{
DisplayStrings = (
a,
"/ogonek a/aogonek"
);
classes = (
{
automatic = 1;
code = "A B C D E F G H I J K L M N O P Q R S T U V W X Y Z Agrave Aacute Acircumflex Atilde Adieresis Aring AE Ccedilla Egrave Eacute Ecircumflex Edieresis Igrave Iacute Icircumflex Idieresis Eth Ntilde Ograve Oacute Ocircumflex Otilde Odieresis Oslash Ugrave Uacute Ucircumflex Udieresis Yacute Thorn Cacute Ccaron Gbreve Idotaccent Lslash OE Scedilla Scaron Ydieresis Zcaron Omega Delta";
name = Uppercase;
}
);
copyright = "Original Fonts are \U00A9 Bitstream. OpenDyslexic changes and additional glyphs by Abelardo Gonzalez are licensed under a Creative Commons Attribution 3.0 Unported License.\012Based on a work at http://dyslexicfonts.com. \U26612012 by Abelardo Gonzalez. Copying is an act of love. Please copy.\012Bitstream license available here: http://opendyslexic.org/legal/";
customParameters = (
{
name = openTypeOS2Type;
value = (
);
},
{
name = glyphOrder;
value = (
    ".notdef",
    uni0000,
    uni000D,
    NULL,
    space,
    exclam,
    quotedbl,
    numbersign,
    dollar,
    percent,
    ampersand,
    quotesingle,
    parenleft,
    parenright,
    asterisk,
    plus,
    comma,
    hyphen,
    period,
    slash,
    zero,
    one,
    two,
    three,
    four,
    five,
    six,
    seven,
    eight,
    nine,
    colon,
    semicolon,
    less,
    equal,
    greater,
    question,
    at,
    A,
    B,
    C,
    D,
    E,
    F,
    G,
    H,
    I,
    J,
    K,
    L,
    M,
    N,
    O,
    P,
    Q,
    R,
    S,
    T,
    U,
    V,
    W,
    X,
    Y,
    Z,
    bracketleft,
    backslash,
    bracketright,
    asciicircum,
    underscore,
    grave,
    a,
    b,
    c,
    d,
    e,
    f,
    g,
    h,
    i,
    j,
    k,
    l,
    m,
    n,
    o,
    p,
    q,
    r,
    s,
    t,
    u,
    v,
    w,
    x,
    y,
    z,
    braceleft,
    bar,
    braceright,
    asciitilde,
    uni00A0,
    exclamdown,
    cent,
    sterling,
    currency,
    yen,

glyphs = (
{
glyphname = .notdef;
lastChange = "2012-10-18 22:31:24 -0400";
layers = (
{
layerId = "D5D14868-B3D8-4E08-9530-062F6179E82D";
name = Bold;
paths = (
{
closed = 1;
nodes = (
"150 -344 LINE",
"150 1446 LINE",
"1198 1446 LINE",
"1198 -344 LINE"
);
},
{
closed = 1;
nodes = (
"336 11 LINE",
"1014 11 LINE",
"1014 1261 LINE",
"336 1261 LINE"
);
}
);
width = 1348;
}
);
},
{
glyphname = exclam;
lastChange = "2012-10-18 22:31:24 -0400";
layers = (
{
layerId = "D5D14868-B3D8-4E08-9530-062F6179E82D";
name = Bold;
paths = (
{
closed = 1;
nodes = (
"182 312 LINE",
"450 312 LINE",
"474 0 LINE",
"158 0 LINE"
);
},
{
closed = 1;
nodes = (
"170 1464 LINE",
"442 1468 LINE",
"452 822 LINE",
"484 449 LINE",
"150 449 LINE",
"170 821 LINE",
"170 820 LINE"
);
}
);
width = 634;
}
);
unicode = 0021;
},
{
glyphname = quotedbl;
lastChange = "2012-10-18 22:31:24 -0400";
layers = (
{
layerId = "D5D14868-B3D8-4E08-9530-062F6179E82D";
name = Bold;
paths = (
{
closed = 1;
nodes = (
"450 1468 LINE",
"462 846 LINE",
"150 846 LINE",
"210 1468 LINE"
);
},
{
closed = 1;
nodes = (
"823 1468 LINE",
"881 846 LINE",
"571 846 LINE",
"582 1468 LINE"
);
}
);
width = 1031;
}
);
unicode = 0022;
},
{
glyphname = numbersign;
lastChange = "2012-10-18 22:31:24 -0400";
layers = (
{
layerId = "D5D14868-B3D8-4E08-9530-062F6179E82D";
name = Bold;
paths = (
{
closed = 1;
nodes = (
"969 841 LINE",
"774 841 LINE",
"716 604 LINE",
"911 604 LINE"
);
},
{
closed = 1;
nodes = (
"925 1447 LINE",
"828 1059 LINE",
"1023 1059 LINE",
"1122 1447 LINE",
"1347 1447 LINE",
"1251 1059 LINE",
"1532 1059 LINE",
"1532 841 LINE",
"1197 841 LINE",
"1192 820 OFFCURVE",
"1187 800 OFFCURVE",
"1183 781 CURVE SMOOTH",
"1174 744 OFFCURVE",
"1165 707 OFFCURVE",
"1155 668 CURVE SMOOTH",
"1150 649 OFFCURVE",
"1144 627 OFFCURVE",
"1138 604 CURVE",
"1425 604 LINE",
"1425 386 LINE",
"1084 386 LINE",
"987 0 LINE",
"760 0 LINE",
"856 386 LINE",
"660 386 LINE",
"564 0 LINE",
"337 0 LINE",
"434 386 LINE",
"150 386 LINE",
"150 604 LINE",
"487 604 LINE",
"546 841 LINE",
"256 841 LINE",
"256 1059 LINE",
"602 1059 LINE",
"617 1122 OFFCURVE",
"633 1187 OFFCURVE",
"649 1255 CURVE SMOOTH",
"665 1322 OFFCURVE",
"681 1386 OFFCURVE",
"696 1447 CURVE"
);
}
);
width = 1682;
}
);
unicode = 0023;
},
{
glyphname = dollar;
lastChange = "2012-10-18 22:31:24 -0400";
layers = (
{
layerId = "D5D14868-B3D8-4E08-9530-062F6179E82D";
name = Bold;
paths = (
{
closed = 1;
nodes = (
"754 -275 LINE",
"506 -271 LINE",
"528 11 LINE",
"413 22 OFFCURVE",
"286 55 OFFCURVE",
"150 116 CURVE",
"154 432 LINE",
"301 336 OFFCURVE",
"428 285 OFFCURVE",
"536 274 CURVE",
"537 300 OFFCURVE",
"537 325 OFFCURVE",
"538 350 CURVE SMOOTH",
"539 374 OFFCURVE",
"539 398 OFFCURVE",
"540 422 CURVE",
"540 446 OFFCURVE",
"540 470 OFFCURVE",
"541 495 CURVE SMOOTH",
"542 520 OFFCURVE",
"542 546 OFFCURVE",
"543 573 CURVE",
"418 600 OFFCURVE",
"331 640 OFFCURVE",
"270 696 CURVE SMOOTH",
"203 760 OFFCURVE",
"168 841 OFFCURVE",
"164 945 CURVE",
"168 1161 OFFCURVE",
"310 1290 OFFCURVE",
"563 1313 CURVE",
"567 1535 LINE",
"736 1533 LINE",
"731 1315 LINE",
"842 1307 OFFCURVE",
"943 1282 OFFCURVE",
"1058 1242 CURVE",
"1053 1010 LINE",
"932 1075 OFFCURVE",
"824 1112 OFFCURVE",
"729 1122 CURVE",
"728 1090 OFFCURVE",
"728 1059 OFFCURVE",
"727 1030 CURVE SMOOTH",
"726 1001 OFFCURVE",
"726 971 OFFCURVE",
"726 942 CURVE SMOOTH",
"725 913 OFFCURVE",
"725 883 OFFCURVE",
"724 853 CURVE SMOOTH",
"723 823 OFFCURVE",
"723 792 OFFCURVE",
"722 759 CURVE",
"985 708 OFFCURVE",
"1119 610 OFFCURVE",
"1128 393 CURVE",
"1126 276 OFFCURVE",
"1085 184 OFFCURVE",
"1004 117 CURVE SMOOTH",
"929 57 OFFCURVE",
"852 23 OFFCURVE",
"740 12 CURVE"
);
},
{
closed = 1;
nodes = (
"545 1114 LINE",
"446 1094 OFFCURVE",
"371 1032 OFFCURVE",
"371 945 CURVE SMOOTH",
"371 868 OFFCURVE",
"427 811 OFFCURVE",
"538 783 CURVE"
);
},
{
closed = 1;
nodes = (
"723 273 LINE",
"768 281 OFFCURVE",
"805 291 OFFCURVE",
"832 302 CURVE SMOOTH",
"857 313 OFFCURVE",
"869 338 OFFCURVE",
"869 375 CURVE SMOOTH",
"869 454 OFFCURVE",
"822 502 OFFCURVE",
"715 530 CURVE"
);
}
);
width = 1278;
}
);
unicode = 0024;
},
{
glyphname = percent;
lastChange = "2012-10-18 22:31:24 -0400";
layers = (
{
layerId = "D5D14868-B3D8-4E08-9530-062F6179E82D";
name = Bold;
paths = (
{
closed = 1;
nodes = (
"1387 613 OFFCURVE",
"1336 537 OFFCURVE",
"1336 408 CURVE SMOOTH",
"1336 280 OFFCURVE",
"1387 203 OFFCURVE",
"1472 203 CURVE SMOOTH",
"1555 203 OFFCURVE",
"1606 280 OFFCURVE",
"1606 408 CURVE SMOOTH",
"1606 536 OFFCURVE",
"1555 613 OFFCURVE",
"1472 613 CURVE SMOOTH"
);
},
{
closed = 1;
nodes = (
"1691 806 OFFCURVE",
"1830 641 OFFCURVE",
"1830 389 CURVE SMOOTH",
"1830 264 OFFCURVE",
"1800 164 OFFCURVE",
"1733 88 CURVE SMOOTH",
"1668 11 OFFCURVE",
"1581 -27 OFFCURVE",
"1472 -27 CURVE SMOOTH",
"1249 -27 OFFCURVE",
"1112 136 OFFCURVE",
"1112 389 CURVE SMOOTH",
"1112 641 OFFCURVE",
"1253 806 OFFCURVE",
"1472 806 CURVE SMOOTH"
);
},
{
closed = 1;
nodes = (
"425 1300 OFFCURVE",
"373 1218 OFFCURVE",
"373 1083 CURVE SMOOTH",
"373 944 OFFCURVE",
"424 864 OFFCURVE",
"509 864 CURVE SMOOTH",
"594 864 OFFCURVE",
"645 944 OFFCURVE",
"645 1083 CURVE SMOOTH",
"645 1216 OFFCURVE",
"593 1300 OFFCURVE",
"509 1300 CURVE SMOOTH"
);
},
{
closed = 1;
nodes = (
"1339 1493 LINE",
"1576 1493 LINE",
"651 -27 LINE",
"414 -27 LINE"
);
},
{
closed = 1;
nodes = (
"726 1493 OFFCURVE",
"869 1328 OFFCURVE",
"869 1077 CURVE SMOOTH",
"869 824 OFFCURVE",
"730 660 OFFCURVE",
"509 660 CURVE SMOOTH",
"286 660 OFFCURVE",
"150 824 OFFCURVE",
"150 1077 CURVE SMOOTH",
"150 1202 OFFCURVE",
"182 1302 OFFCURVE",
"246 1378 CURVE SMOOTH",
"313 1455 OFFCURVE",
"400 1493 OFFCURVE",
"509 1493 CURVE SMOOTH"
);
}
);
width = 1980;
}
);
unicode = 0025;
},
{
glyphname = ampersand;
lastChange = "2012-10-18 22:31:24 -0400";
layers = (
{
layerId = "D5D14868-B3D8-4E08-9530-062F6179E82D";
name = Bold;
paths = (
{
closed = 1;
nodes = (
"486 772 LINE",
"397 685 OFFCURVE",
"358 605 OFFCURVE",
"358 513 CURVE SMOOTH",
"358 353 OFFCURVE",
"492 231 OFFCURVE",
"671 231 CURVE SMOOTH",
"767 231 OFFCURVE",
"853 259 OFFCURVE",
"929 315 CURVE"
);
},
{
closed = 1;
nodes = (
"1102 484 LINE",
"1122 523 OFFCURVE",
"1137 561 OFFCURVE",
"1145 600 CURVE SMOOTH",
"1156 655 OFFCURVE",
"1164 729 OFFCURVE",
"1168 822 CURVE",
"1418 822 LINE",
"1414 781 OFFCURVE",
"1409 729 OFFCURVE",
"1403 678 CURVE SMOOTH",
"1397 626 OFFCURVE",
"1389 575 OFFCURVE",
"1382 535 CURVE SMOOTH",
"1367 458 OFFCURVE",
"1338 382 OFFCURVE",
"1287 307 CURVE",
"1588 0 LINE",
"1247 0 LINE",
"1126 124 LINE",
"995 20 OFFCURVE",
"859 -27 OFFCURVE",
"698 -27 CURVE SMOOTH",
"537 -27 OFFCURVE",
"408 19 OFFCURVE",
"305 110 CURVE SMOOTH",
"202 203 OFFCURVE",
"150 322 OFFCURVE",
"150 468 CURVE SMOOTH",
"150 629 OFFCURVE",
"229 772 OFFCURVE",
"386 897 CURVE",
"335 973 OFFCURVE",
"309 1048 OFFCURVE",
"309 1121 CURVE SMOOTH",
"309 1232 OFFCURVE",
"348 1323 OFFCURVE",
"425 1392 CURVE",
"424 1392 LINE",
"499 1459 OFFCURVE",
"600 1493 OFFCURVE",
"725 1493 CURVE SMOOTH",
"834 1493 OFFCURVE",
"955 1465 OFFCURVE",
"1087 1408 CURVE",
"987 1205 LINE",
"862 1273 OFFCURVE",
"758 1309 OFFCURVE",
"678 1309 CURVE SMOOTH",
"623 1309 OFFCURVE",
"578 1294 OFFCURVE",
"543 1265 CURVE",
"543 1266 LINE",
"511 1239 OFFCURVE",
"495 1203 OFFCURVE",
"495 1160 CURVE SMOOTH",
"495 1135 OFFCURVE",
"503 1109 OFFCURVE",
"518 1082 CURVE",
"517 1083 LINE",
"534 1055 OFFCURVE",
"570 1012 OFFCURVE",
"625 955 CURVE",
"624 955 LINE"
);
}
);
width = 1738;
}
);
unicode = 0026;
},
{
glyphname = quotesingle;
lastChange = "2012-10-18 22:31:24 -0400";
layers = (
{
layerId = "D5D14868-B3D8-4E08-9530-062F6179E82D";
name = Bold;
paths = (
{
closed = 1;
nodes = (
"384 1468 LINE",
"384 875 LINE",
"150 875 LINE",
"150 1468 LINE"
);
}
);
width = 534;
}
);
unicode = 0027;
},
{
glyphname = parenleft;
lastChange = "2012-10-18 22:31:24 -0400";
layers = (
{
layerId = "D5D14868-B3D8-4E08-9530-062F6179E82D";
name = Bold;
paths = (
{
closed = 1;
nodes = (
"757 1514 LINE",
"545 1215 OFFCURVE",
"427 935 OFFCURVE",
"415 656 CURVE",
"427 377 OFFCURVE",
"447 108 OFFCURVE",
"618 -256 CURVE",
"336 -238 LINE",
"205 87 OFFCURVE",
"150 388 OFFCURVE",
"150 675 CURVE",
"174 959 OFFCURVE",
"295 1240 OFFCURVE",
"522 1533 CURVE"
);
}
);
width = 907;
}
);
unicode = 0028;
},
{
glyphname = parenright;
lastChange = "2012-10-18 22:31:24 -0400";
layers = (
{
layerId = "D5D14868-B3D8-4E08-9530-062F6179E82D";
name = Bold;
paths = (
{
closed = 1;
nodes = (
"539 1541 LINE",
"627 1369 OFFCURVE",
"686 1212 OFFCURVE",
"714 1064 CURVE",
"714 1065 LINE",
"742 917 OFFCURVE",
"757 776 OFFCURVE",
"758 635 CURVE SMOOTH",
"758 490 OFFCURVE",
"728 347 OFFCURVE",
"668 205 CURVE SMOOTH",
"609 70 OFFCURVE",
"540 -72 OFFCURVE",
"455 -229 CURVE",
"150 -211 LINE",
"362 90 OFFCURVE",
"474 377 OFFCURVE",
"502 654 CURVE",
"502 792 OFFCURVE",
"491 932 OFFCURVE",
"469 1073 CURVE SMOOTH",
"446 1216 OFFCURVE",
"394 1377 OFFCURVE",
"307 1561 CURVE"
);
}
);
width = 908;
}
);
unicode = 0029;
},
{
glyphname = asterisk;
lastChange = "2012-10-18 22:31:24 -0400";
layers = (
{
layerId = "D5D14868-B3D8-4E08-9530-062F6179E82D";
name = Bold;
paths = (
{
closed = 1;
nodes = (
"1094 1187 LINE",
"786 1019 LINE",
"889 963 OFFCURVE",
"999 903 OFFCURVE",
"1094 852 CURVE",
"1001 695 LINE",
"713 871 LINE",
"713 547 LINE",
"532 547 LINE",
"532 871 LINE",
"483 841 OFFCURVE",
"434 811 OFFCURVE",
"385 782 CURVE SMOOTH",
"336 752 OFFCURVE",
"289 723 OFFCURVE",
"243 695 CURVE",
"150 852 LINE",
"458 1019 LINE",
"406 1047 OFFCURVE",
"354 1076 OFFCURVE",
"301 1105 CURVE SMOOTH",
"248 1134 OFFCURVE",
"198 1162 OFFCURVE",
"150 1187 CURVE",
"241 1345 LINE",
"532 1169 LINE",
"532 1493 LINE",
"713 1493 LINE",
"713 1169 LINE",
"761 1198 OFFCURVE",
"810 1228 OFFCURVE",
"860 1259 CURVE SMOOTH",
"910 1290 OFFCURVE",
"957 1318 OFFCURVE",
"1002 1345 CURVE"
);
}
);
width = 1244;
}
);
unicode = 002A;
},
{
glyphname = plus;
lastChange = "2012-10-18 22:31:24 -0400";
layers = (
{
layerId = "D5D14868-B3D8-4E08-9530-062F6179E82D";
name = Bold;
paths = (
{
closed = 1;
nodes = (
"901 1273 LINE",
"901 753 LINE",
"1421 753 LINE",
"1421 520 LINE",
"901 520 LINE",
"901 0 LINE",
"670 0 LINE",
"670 520 LINE",
"150 520 LINE",
"150 753 LINE",
"670 753 LINE",
"670 1273 LINE"
);
}
);
width = 1571;
}
);
unicode = 002B;
},
{
glyphname = comma;
lastChange = "2012-10-18 22:31:24 -0400";
layers = (
{
layerId = "D5D14868-B3D8-4E08-9530-062F6179E82D";
name = Bold;
paths = (
{
closed = 1;
nodes = (
"259 302 LINE",
"568 302 LINE",
"568 55 LINE",
"341 -269 LINE",
"150 -269 LINE",
"259 74 LINE"
);
}
);
width = 718;
}
);
unicode = 002C;
},
{
glyphname = hyphen;
lastChange = "2012-10-18 22:31:24 -0400";
layers = (
{
layerId = "D5D14868-B3D8-4E08-9530-062F6179E82D";
name = Bold;
paths = (
{
closed = 1;
nodes = (
"159 674 LINE",
"738 685 LINE",
"729 456 LINE",
"150 446 LINE"
);
}
);
width = 888;
}
);
unicode = 002D;
},
{
glyphname = period;
lastChange = "2012-11-01 21:54:59 -0400";
layers = (
{
layerId = "D5D14868-B3D8-4E08-9530-062F6179E82D";
name = Bold;
paths = (
{
closed = 1;
nodes = (
"100 376 LINE",
"453 376 LINE",
"453 0 LINE",
"100 0 LINE"
);
}
);
width = 603;
}
);
unicode = 002E;
},
{
glyphname = slash;
lastChange = "2012-10-18 22:31:24 -0400";
layers = (
{
layerId = "D5D14868-B3D8-4E08-9530-062F6179E82D";
name = Bold;
paths = (
{
closed = 1;
nodes = (
"716 1451 LINE",
"932 1445 LINE",
"444 -186 LINE",
"150 -176 LINE"
);
}
);
width = 1082;
}
);
unicode = 002F;
},
{
glyphname = zero;
lastChange = "2012-10-18 22:31:24 -0400";
layers = (
{
layerId = "D5D14868-B3D8-4E08-9530-062F6179E82D";
name = Bold;
paths = (
{
closed = 1;
nodes = (
"508 1344 OFFCURVE",
"423 1185 OFFCURVE",
"423 868 CURVE SMOOTH",
"423 697 OFFCURVE",
"444 575 OFFCURVE",
"483 496 CURVE",
"482 497 LINE",
"517 428 OFFCURVE",
"576 393 OFFCURVE",
"659 393 CURVE SMOOTH",
"742 393 OFFCURVE",
"804 437 OFFCURVE",
"849 519 CURVE SMOOTH",
"894 601 OFFCURVE",
"921 720 OFFCURVE",
"934 871 CURVE",
"934 1186 OFFCURVE",
"849 1344 OFFCURVE",
"678 1344 CURVE SMOOTH"
);
},
{
closed = 1;
nodes = (
"1015 1493 OFFCURVE",
"1187 1227 OFFCURVE",
"1187 732 CURVE SMOOTH",
"1174 239 OFFCURVE",
"996 -27 OFFCURVE",
"659 -27 CURVE SMOOTH",
"322 -27 OFFCURVE",
"150 238 OFFCURVE",
"150 733 CURVE SMOOTH",
"157 980 OFFCURVE",
"204 1170 OFFCURVE",
"293 1298 CURVE SMOOTH",
"381 1426 OFFCURVE",
"510 1493 OFFCURVE",
"678 1493 CURVE SMOOTH"
);
}
);
width = 1337;
}
);
unicode = 0030;
},
{
glyphname = one;
lastChange = "2012-10-18 22:31:24 -0400";
layers = (
{
layerId = "D5D14868-B3D8-4E08-9530-062F6179E82D";
name = Bold;
paths = (
{
closed = 1;
nodes = (
"177 336 LINE",
"485 336 LINE",
"485 1213 LINE",
"150 1146 LINE",
"150 1394 LINE",
"518 1468 LINE",
"746 1468 LINE",
"746 336 LINE",
"1054 336 LINE",
"1054 0 LINE",
"177 0 LINE"
);
}
);
width = 1204;
}
);
unicode = 0031;
},
{
glyphname = two;
lastChange = "2012-10-18 22:31:24 -0400";
layers = (
{
layerId = "D5D14868-B3D8-4E08-9530-062F6179E82D";
name = Bold;
paths = (
{
closed = 1;
nodes = (
"1109 345 LINE",
"1109 0 LINE",
"150 0 LINE",
"150 326 LINE",
"249 407 OFFCURVE",
"365 501 OFFCURVE",
"476 585 CURVE SMOOTH",
"586 667 OFFCURVE",
"656 725 OFFCURVE",
"685 760 CURVE SMOOTH",
"742 825 OFFCURVE",
"782 879 OFFCURVE",
"805 924 CURVE SMOOTH",
"826 967 OFFCURVE",
"838 1007 OFFCURVE",
"838 1046 CURVE SMOOTH",
"838 1171 OFFCURVE",
"741 1260 OFFCURVE",
"594 1260 CURVE SMOOTH",
"481 1260 OFFCURVE",
"340 1211 OFFCURVE",
"159 1110 CURVE",
"159 1389 LINE",
"333 1458 OFFCURVE",
"477 1493 OFFCURVE",
"590 1493 CURVE SMOOTH",
"743 1493 OFFCURVE",
"867 1454 OFFCURVE",
"960 1377 CURVE SMOOTH",
"1055 1296 OFFCURVE",
"1102 1190 OFFCURVE",
"1102 1058 CURVE SMOOTH",
"1102 996 OFFCURVE",
"1090 937 OFFCURVE",
"1066 881 CURVE SMOOTH",
"1044 826 OFFCURVE",
"1003 763 OFFCURVE",
"943 690 CURVE",
"935 681 OFFCURVE",
"919 663 OFFCURVE",
"894 637 CURVE SMOOTH",
"869 610 OFFCURVE",
"836 575 OFFCURVE",
"794 531 CURVE SMOOTH",
"731 467 OFFCURVE",
"687 405 OFFCURVE",
"662 345 CURVE"
);
}
);
width = 1259;
}
);
unicode = 0032;
},
{
glyphname = three;
lastChange = "2012-10-18 22:31:24 -0400";
layers = (
{
layerId = "D5D14868-B3D8-4E08-9530-062F6179E82D";
name = Bold;
paths = (
{
closed = 1;
nodes = (
"1109 962 OFFCURVE",
"1050 860 OFFCURVE",
"939 796 CURVE",
"985 777 OFFCURVE",
"1024 748 OFFCURVE",
"1057 711 CURVE",
"1113 643 OFFCURVE",
"1142 560 OFFCURVE",
"1142 461 CURVE SMOOTH",
"1142 298 OFFCURVE",
"1090 176 OFFCURVE",
"991 95 CURVE SMOOTH",
"891 14 OFFCURVE",
"746 -27 OFFCURVE",
"559 -27 CURVE SMOOTH",
"439 -27 OFFCURVE",
"303 -1 OFFCURVE",
"150 52 CURVE",
"150 439 LINE",
"286 359 OFFCURVE",
"425 318 OFFCURVE",
"554 318 CURVE SMOOTH",
"663 318 OFFCURVE",
"744 341 OFFCURVE",
"799 388 CURVE SMOOTH",
"853 434 OFFCURVE",
"880 468 OFFCURVE",
"880 489 CURVE SMOOTH",
"880 592 OFFCURVE",
"777 686 OFFCURVE",
"590 686 CURVE SMOOTH",
"391 686 LINE",
"391 916 LINE",
"598 916 LINE SMOOTH",
"759 916 OFFCURVE",
"847 978 OFFCURVE",
"847 1094 CURVE SMOOTH",
"847 1213 OFFCURVE",
"757 1279 OFFCURVE",
"590 1279 CURVE SMOOTH",
"490 1279 OFFCURVE",
"364 1254 OFFCURVE",
"192 1195 CURVE",
"192 1425 LINE",
"355 1472 OFFCURVE",
"490 1493 OFFCURVE",
"607 1493 CURVE SMOOTH",
"759 1493 OFFCURVE",
"881 1459 OFFCURVE",
"970 1387 CURVE",
"970 1388 LINE",
"1063 1316 OFFCURVE",
"1109 1218 OFFCURVE",
"1109 1095 CURVE SMOOTH"
);
}
);
width = 1292;
}
);
unicode = 0033;
},
{
glyphname = four;
lastChange = "2012-10-18 22:31:24 -0400";
layers = (
{
layerId = "D5D14868-B3D8-4E08-9530-062F6179E82D";
name = Bold;
paths = (
{
closed = 1;
nodes = (
"778 1202 LINE",
"410 625 LINE",
"770 625 LINE"
);
},
{
closed = 1;
nodes = (
"748 1468 LINE",
"1042 1468 LINE",
"1051 625 LINE",
"1240 625 LINE",
"1240 394 LINE",
"1052 394 LINE",
"1053 363 OFFCURVE",
"1055 330 OFFCURVE",
"1057 297 CURVE SMOOTH",
"1059 263 OFFCURVE",
"1061 229 OFFCURVE",
"1063 195 CURVE SMOOTH",
"1064 161 OFFCURVE",
"1066 128 OFFCURVE",
"1068 95 CURVE SMOOTH",
"1069 62 OFFCURVE",
"1071 30 OFFCURVE",
"1072 0 CURVE",
"740 0 LINE",
"760 394 LINE",
"150 394 LINE",
"150 558 LINE"
);
}
);
width = 1390;
}
);
unicode = 0034;
},
{
glyphname = five;
lastChange = "2012-10-18 22:31:24 -0400";
layers = (
{
layerId = "D5D14868-B3D8-4E08-9530-062F6179E82D";
name = Bold;
paths = (
{
closed = 1;
nodes = (
"209 1468 LINE",
"1024 1468 LINE",
"1024 1253 LINE",
"438 1253 LINE",
"438 978 LINE",
"495 990 OFFCURVE",
"536 996 OFFCURVE",
"583 996 CURVE SMOOTH",
"911 996 OFFCURVE",
"1126 797 OFFCURVE",
"1126 484 CURVE SMOOTH",
"1126 161 OFFCURVE",
"913 -27 OFFCURVE",
"554 -27 CURVE SMOOTH",
"435 -27 OFFCURVE",
"301 -4 OFFCURVE",
"150 43 CURVE",
"150 425 LINE",
"295 346 OFFCURVE",
"423 309 OFFCURVE",
"551 309 CURVE SMOOTH",
"650 309 OFFCURVE",
"724 334 OFFCURVE",
"775 384 CURVE SMOOTH",
"828 433 OFFCURVE",
"854 475 OFFCURVE",
"854 512 CURVE SMOOTH",
"854 681 OFFCURVE",
"743 763 OFFCURVE",
"551 763 CURVE SMOOTH",
"454 763 OFFCURVE",
"345 736 OFFCURVE",
"209 673 CURVE"
);
}
);
width = 1276;
}
);
unicode = 0035;
},
{
glyphname = six;
lastChange = "2012-10-18 22:31:24 -0400";
layers = (
{
layerId = "D5D14868-B3D8-4E08-9530-062F6179E82D";
name = Bold;
paths = (
{
closed = 1;
nodes = (
"536 772 OFFCURVE",
"446 668 OFFCURVE",
"446 484 CURVE SMOOTH",
"446 384 OFFCURVE",
"529 318 OFFCURVE",
"684 318 CURVE SMOOTH",
"839 318 OFFCURVE",
"922 384 OFFCURVE",
"922 484 CURVE SMOOTH",
"922 668 OFFCURVE",
"832 772 OFFCURVE",
"684 772 CURVE SMOOTH"
);
},
{
closed = 1;
nodes = (
"1096 1169 LINE",
"972 1229 OFFCURVE",
"863 1260 OFFCURVE",
"772 1260 CURVE SMOOTH",
"577 1260 OFFCURVE",
"462 1137 OFFCURVE",
"423 901 CURVE",
"499 964 OFFCURVE",
"589 996 OFFCURVE",
"696 996 CURVE SMOOTH",
"846 996 OFFCURVE",
"965 950 OFFCURVE",
"1054 857 CURVE SMOOTH",
"1142 764 OFFCURVE",
"1187 641 OFFCURVE",
"1187 484 CURVE SMOOTH",
"1187 176 OFFCURVE",
"987 -27 OFFCURVE",
"684 -27 CURVE SMOOTH",
"333 -27 OFFCURVE",
"150 246 OFFCURVE",
"150 733 CURVE SMOOTH",
"150 1190 OFFCURVE",
"389 1493 OFFCURVE",
"765 1493 CURVE SMOOTH",
"864 1493 OFFCURVE",
"969 1471 OFFCURVE",
"1096 1426 CURVE"
);
}
);
width = 1337;
}
);
unicode = 0036;
},
{
glyphname = seven;
lastChange = "2012-10-18 22:31:24 -0400";
layers = (
{
layerId = "D5D14868-B3D8-4E08-9530-062F6179E82D";
name = Bold;
paths = (
{
closed = 1;
nodes = (
"150 1468 LINE",
"1111 1468 LINE",
"1111 1345 LINE",
"755 0 LINE",
"334 0 LINE",
"848 1253 LINE",
"150 1253 LINE"
);
}
);
width = 1261;
}
);
unicode = 0037;
},
{
glyphname = eight;
lastChange = "2012-10-18 22:31:24 -0400";
layers = (
{
layerId = "D5D14868-B3D8-4E08-9530-062F6179E82D";
name = Bold;
paths = (
{
closed = 1;
nodes = (
"521 680 OFFCURVE",
"433 595 OFFCURVE",
"433 448 CURVE SMOOTH",
"433 376 OFFCURVE",
"523 281 OFFCURVE",
"684 281 CURVE SMOOTH",
"765 281 OFFCURVE",
"827 300 OFFCURVE",
"872 339 CURVE",
"871 339 LINE",
"914 377 OFFCURVE",
"936 413 OFFCURVE",
"936 448 CURVE SMOOTH",
"936 596 OFFCURVE",
"847 680 OFFCURVE",
"684 680 CURVE SMOOTH"
);
},
{
closed = 1;
nodes = (
"286 723 OFFCURVE",
"331 757 OFFCURVE",
"386 781 CURVE",
"273 845 OFFCURVE",
"220 954 OFFCURVE",
"220 1095 CURVE SMOOTH",
"220 1316 OFFCURVE",
"391 1475 OFFCURVE",
"684 1475 CURVE SMOOTH",
"831 1475 OFFCURVE",
"946 1439 OFFCURVE",
"1027 1368 CURVE SMOOTH",
"1108 1295 OFFCURVE",
"1148 1204 OFFCURVE",
"1148 1095 CURVE SMOOTH",
"1148 954 OFFCURVE",
"1095 845 OFFCURVE",
"983 781 CURVE",
"1090 733 OFFCURVE",
"1218 625 OFFCURVE",
"1218 429 CURVE SMOOTH",
"1218 134 OFFCURVE",
"1008 -27 OFFCURVE",
"684 -27 CURVE SMOOTH",
"521 -27 OFFCURVE",
"392 12 OFFCURVE",
"297 90 CURVE SMOOTH",
"199 169 OFFCURVE",
"150 282 OFFCURVE",
"150 429 CURVE SMOOTH",
"150 527 OFFCURVE",
"182 611 OFFCURVE",
"246 680 CURVE SMOOTH"
);
},
{
closed = 1;
nodes = (
"464 1012 OFFCURVE",
"543 941 OFFCURVE",
"684 941 CURVE SMOOTH",
"823 941 OFFCURVE",
"905 1012 OFFCURVE",
"905 1133 CURVE SMOOTH",
"905 1233 OFFCURVE",
"834 1277 OFFCURVE",
"779 1294 CURVE SMOOTH",
"752 1303 OFFCURVE",
"720 1307 OFFCURVE",
"684 1307 CURVE SMOOTH",
"613 1307 OFFCURVE",
"558 1290 OFFCURVE",
"518 1255 CURVE",
"519 1255 LINE",
"482 1222 OFFCURVE",
"464 1182 OFFCURVE",
"464 1133 CURVE SMOOTH"
);
}
);
width = 1368;
}
);
unicode = 0038;
},
{
glyphname = nine;
lastChange = "2012-10-18 22:31:24 -0400";
layers = (
{
layerId = "D5D14868-B3D8-4E08-9530-062F6179E82D";
name = Bold;
paths = (
{
closed = 1;
nodes = (
"239 409 LINE",
"363 349 OFFCURVE",
"474 318 OFFCURVE",
"563 318 CURVE SMOOTH",
"680 318 OFFCURVE",
"766 340 OFFCURVE",
"826 381 CURVE SMOOTH",
"867 410 OFFCURVE",
"896 472 OFFCURVE",
"912 567 CURVE",
"836 504 OFFCURVE",
"744 472 OFFCURVE",
"640 472 CURVE SMOOTH",
"490 472 OFFCURVE",
"370 518 OFFCURVE",
"281 609 CURVE SMOOTH",
"194 700 OFFCURVE",
"150 825 OFFCURVE",
"150 982 CURVE SMOOTH",
"150 1137 OFFCURVE",
"196 1260 OFFCURVE",
"287 1352 CURVE SMOOTH",
"378 1446 OFFCURVE",
"500 1493 OFFCURVE",
"652 1493 CURVE SMOOTH",
"825 1493 OFFCURVE",
"959 1426 OFFCURVE",
"1049 1298 CURVE SMOOTH",
"1139 1170 OFFCURVE",
"1186 980 OFFCURVE",
"1186 733 CURVE SMOOTH",
"1186 277 OFFCURVE",
"947 -27 OFFCURVE",
"571 -27 CURVE SMOOTH",
"472 -27 OFFCURVE",
"366 -5 OFFCURVE",
"239 40 CURVE"
);
},
{
closed = 1;
nodes = (
"734 827 OFFCURVE",
"811 838 OFFCURVE",
"867 860 CURVE SMOOTH",
"912 876 OFFCURVE",
"934 927 OFFCURVE",
"934 1012 CURVE SMOOTH",
"934 1189 OFFCURVE",
"820 1299 OFFCURVE",
"636 1299 CURVE SMOOTH",
"451 1299 OFFCURVE",
"337 1191 OFFCURVE",
"337 1012 CURVE SMOOTH",
"337 927 OFFCURVE",
"359 876 OFFCURVE",
"403 860 CURVE SMOOTH",
"459 838 OFFCURVE",
"537 827 OFFCURVE",
"636 827 CURVE SMOOTH"
);
}
);
width = 1336;
}
);
unicode = 0039;
},
{
glyphname = colon;
lastChange = "2012-10-18 22:31:24 -0400";
layers = (
{
layerId = "D5D14868-B3D8-4E08-9530-062F6179E82D";
name = Bold;
paths = (
{
closed = 1;
nodes = (
"150 360 LINE",
"468 360 LINE",
"468 0 LINE",
"150 0 LINE"
);
},
{
closed = 1;
nodes = (
"150 1102 LINE",
"468 1102 LINE",
"468 762 LINE",
"150 762 LINE"
);
}
);
width = 618;
}
);
unicode = 003A;
},
{
glyphname = semicolon;
lastChange = "2012-10-18 22:31:24 -0400";
layers = (
{
layerId = "D5D14868-B3D8-4E08-9530-062F6179E82D";
name = Bold;
paths = (
{
closed = 1;
nodes = (
"241 1098 LINE",
"542 1098 LINE",
"542 749 LINE",
"241 749 LINE"
);
},
{
closed = 1;
nodes = (
"245 278 LINE",
"538 278 LINE",
"538 53 LINE",
"355 -306 LINE",
"150 -306 LINE",
"245 67 LINE"
);
}
);
width = 692;
}
);
unicode = 003B;
},
{
glyphname = less;
lastChange = "2012-10-18 22:31:24 -0400";
layers = (
{
layerId = "D5D14868-B3D8-4E08-9530-062F6179E82D";
name = Bold;
paths = (
{
closed = 1;
nodes = (
"1457 929 LINE",
"544 692 LINE",
"1402 301 LINE",
"1376 -3 LINE",
"150 567 LINE",
"172 830 LINE",
"1479 1178 LINE"
);
}
);
width = 1629;
}
);
unicode = 003C;
},
{
glyphname = equal;
lastChange = "2012-10-18 22:31:24 -0400";
layers = (
{
layerId = "D5D14868-B3D8-4E08-9530-062F6179E82D";
name = Bold;
paths = (
{
closed = 1;
nodes = (
"150 943 LINE",
"1421 943 LINE",
"1421 711 LINE",
"150 711 LINE"
);
},
{
closed = 1;
nodes = (
"150 590 LINE",
"1421 590 LINE",
"1421 329 LINE",
"150 329 LINE"
);
}
);
width = 1571;
}
);
unicode = 003D;
},
{
glyphname = greater;
lastChange = "2012-10-18 22:31:24 -0400";
layers = (
{
layerId = "D5D14868-B3D8-4E08-9530-062F6179E82D";
name = Bold;
paths = (
{
closed = 1;
nodes = (
"232 1048 LINE",
"253 1296 LINE",
"1479 726 LINE",
"1457 463 LINE",
"150 115 LINE",
"177 420 LINE",
"1087 656 LINE"
);
}
);
width = 1629;
}
);
unicode = 003E;
},
{
glyphname = question;
lastChange = "2012-10-18 22:31:24 -0400";
layers = (
{
layerId = "D5D14868-B3D8-4E08-9530-062F6179E82D";
name = Bold;
paths = (
{
closed = 1;
nodes = (
"322 330 LINE",
"642 330 LINE",
"642 -9 LINE",
"322 -9 LINE"
);
},
{
closed = 1;
nodes = (
"646 374 LINE",
"327 374 LINE",
"327 555 LINE SMOOTH",
"327 623 OFFCURVE",
"337 680 OFFCURVE",
"356 729 CURVE SMOOTH",
"376 777 OFFCURVE",
"415 831 OFFCURVE",
"476 888 CURVE SMOOTH",
"570 972 LINE",
"617 1011 OFFCURVE",
"652 1039 OFFCURVE",
"672 1062 CURVE",
"689 1079 OFFCURVE",
"700 1095 OFFCURVE",
"704 1118 CURVE",
"704 1163 OFFCURVE",
"687 1203 OFFCURVE",
"652 1240 CURVE SMOOTH",
"620 1276 OFFCURVE",
"576 1294 OFFCURVE",
"519 1294 CURVE SMOOTH",
"427 1294 OFFCURVE",
"303 1237 OFFCURVE",
"150 1132 CURVE",
"150 1371 LINE",
"284 1452 OFFCURVE",
"418 1493 OFFCURVE",
"551 1493 CURVE SMOOTH",
"676 1493 OFFCURVE",
"774 1461 OFFCURVE",
"847 1393 CURVE SMOOTH",
"922 1325 OFFCURVE",
"959 1236 OFFCURVE",
"959 1127 CURVE SMOOTH",
"959 1071 OFFCURVE",
"943 1019 OFFCURVE",
"910 970 CURVE SMOOTH",
"882 929 OFFCURVE",
"841 878 OFFCURVE",
"788 822 CURVE SMOOTH",
"776 809 OFFCURVE",
"765 796 OFFCURVE",
"755 785 CURVE SMOOTH",
"744 773 OFFCURVE",
"733 760 OFFCURVE",
"720 747 CURVE",
"713 736 OFFCURVE",
"707 725 OFFCURVE",
"700 714 CURVE SMOOTH",
"686 693 OFFCURVE",
"674 676 OFFCURVE",
"665 661 CURVE",
"660 654 OFFCURVE",
"657 647 OFFCURVE",
"655 640 CURVE",
"648 619 OFFCURVE",
"646 587 OFFCURVE",
"646 526 CURVE SMOOTH"
);
}
);
width = 1109;
}
);
unicode = 003F;
},
{
glyphname = at;
lastChange = "2012-10-18 22:31:24 -0400";
layers = (
{
layerId = "D5D14868-B3D8-4E08-9530-062F6179E82D";
name = Bold;
paths = (
{
closed = 1;
nodes = (
"782 479 OFFCURVE",
"858 397 OFFCURVE",
"993 397 CURVE SMOOTH",
"1125 397 OFFCURVE",
"1202 479 OFFCURVE",
"1202 615 CURVE SMOOTH",
"1202 750 OFFCURVE",
"1119 833 OFFCURVE",
"991 833 CURVE SMOOTH",
"928 833 OFFCURVE",
"877 814 OFFCURVE",
"838 775 CURVE",
"801 735 OFFCURVE",
"782 683 OFFCURVE",
"782 615 CURVE SMOOTH"
);
},
{
closed = 1;
nodes = (
"1244 166 LINE",
"1172 106 OFFCURVE",
"1092 82 OFFCURVE",
"984 82 CURVE SMOOTH",
"748 82 OFFCURVE",
"586 271 OFFCURVE",
"586 539 CURVE SMOOTH",
"586 672 OFFCURVE",
"621 781 OFFCURVE",
"696 866 CURVE SMOOTH",
"771 953 OFFCURVE",
"867 996 OFFCURVE",
"984 996 CURVE SMOOTH",
"1088 996 OFFCURVE",
"1175 968 OFFCURVE",
"1244 911 CURVE",
"1244 977 LINE",
"1452 977 LINE",
"1452 300 LINE",
"1512 317 OFFCURVE",
"1561 352 OFFCURVE",
"1598 399 CURVE",
"1643 463 OFFCURVE",
"1668 546 OFFCURVE",
"1668 647 CURVE SMOOTH",
"1668 771 OFFCURVE",
"1631 880 OFFCURVE",
"1558 973 CURVE SMOOTH",
"1433 1128 OFFCURVE",
"1254 1211 OFFCURVE",
"1046 1211 CURVE SMOOTH",
"899 1211 OFFCURVE",
"766 1173 OFFCURVE",
"651 1097 CURVE SMOOTH",
"464 974 OFFCURVE",
"356 771 OFFCURVE",
"356 544 CURVE SMOOTH",
"356 451 OFFCURVE",
"372 377 OFFCURVE",
"405 322 CURVE",
"404 322 LINE",
"437 266 OFFCURVE",
"501 188 OFFCURVE",
"574 109 CURVE",
"635 49 OFFCURVE",
"702 8 OFFCURVE",
"775 -14 CURVE SMOOTH",
"851 -38 OFFCURVE",
"935 -49 OFFCURVE",
"1030 -49 CURVE SMOOTH",
"1179 -49 OFFCURVE",
"1335 0 OFFCURVE",
"1480 108 CURVE",
"1409 89 OFFCURVE",
"1332 80 OFFCURVE",
"1244 77 CURVE"
);
},
{
closed = 1;
nodes = (
"1659 180 OFFCURVE",
"1585 139 OFFCURVE",
"1496 113 CURVE",
"1612 -119 LINE",
"1432 -258 OFFCURVE",
"1229 -332 OFFCURVE",
"1030 -332 CURVE SMOOTH",
"787 -332 OFFCURVE",
"573 -246 OFFCURVE",
"406 -83 CURVE SMOOTH",
"238 81 OFFCURVE",
"150 297 OFFCURVE",
"150 544 CURVE SMOOTH",
"150 781 OFFCURVE",
"241 1000 OFFCURVE",
"406 1165 CURVE SMOOTH",
"575 1332 OFFCURVE",
"799 1421 OFFCURVE",
"1044 1421 CURVE SMOOTH",
"1320 1421 OFFCURVE",
"1563 1302 OFFCURVE",
"1726 1094 CURVE SMOOTH",
"1825 965 OFFCURVE",
"1877 812 OFFCURVE",
"1877 651 CURVE SMOOTH",
"1877 476 OFFCURVE",
"1824 338 OFFCURVE",
"1717 236 CURVE SMOOTH"
);
}
);
width = 2027;
}
);
unicode = 0040;
},
{
glyphname = A;
lastChange = "2013-04-22 10:03:47 -0400";
layers = (
{
anchors = (
{
name = bottom;
position = "{850, -11}";
},
{
name = ogonek;
position = "{1376, 0}";
},
{
name = top;
position = "{855, 1493}";
}
);
layerId = "D5D14868-B3D8-4E08-9530-062F6179E82D";
name = Bold;
paths = (
{
closed = 1;
nodes = (
"855 1158 LINE",
"837 1104 OFFCURVE",
"820 1052 OFFCURVE",
"803 1001 CURVE SMOOTH",
"786 950 OFFCURVE",
"770 900 OFFCURVE",
"753 849 CURVE SMOOTH",
"736 798 OFFCURVE",
"718 747 OFFCURVE",
"701 695 CURVE SMOOTH",
"684 642 OFFCURVE",
"666 588 OFFCURVE",
"647 532 CURVE",
"1064 532 LINE"
);
},
{
closed = 1;
nodes = (
"740 1493 LINE",
"971 1493 LINE",
"1560 0 LINE",
"1198 0 LINE",
"1145 231 LINE",
"564 231 LINE",
"492 0 LINE",
"150 0 LINE"
);
}
);
width = 1710;
}
);
unicode = 0041;
},
{
glyphname = B;
lastChange = "2012-10-18 22:32:31 -0400";
layers = (
{
layerId = "D5D14868-B3D8-4E08-9530-062F6179E82D";
name = Bold;
paths = (
{
closed = 1;
nodes = (
"418 677 LINE",
"418 357 LINE",
"688 357 LINE SMOOTH",
"785 357 OFFCURVE",
"855 370 OFFCURVE",
"897 396 CURVE",
"896 396 LINE",
"934 419 OFFCURVE",
"953 467 OFFCURVE",
"953 541 CURVE SMOOTH",
"953 561 OFFCURVE",
"933 588 OFFCURVE",
"892 622 CURVE SMOOTH",
"849 659 OFFCURVE",
"781 677 OFFCURVE",
"688 677 CURVE SMOOTH"
);
},
{
closed = 1;
nodes = (
"418 1288 LINE",
"418 908 LINE",
"664 908 LINE SMOOTH",
"824 908 OFFCURVE",
"904 967 OFFCURVE",
"904 1084 CURVE SMOOTH",
"904 1204 OFFCURVE",
"831 1288 OFFCURVE",
"664 1288 CURVE SMOOTH"
);
},
{
closed = 1;
nodes = (
"150 1493 LINE",
"631 1493 LINE SMOOTH",
"790 1493 OFFCURVE",
"913 1458 OFFCURVE",
"997 1392 CURVE SMOOTH",
"1081 1326 OFFCURVE",
"1125 1229 OFFCURVE",
"1125 1105 CURVE SMOOTH",
"1125 961 OFFCURVE",
"1077 862 OFFCURVE",
"980 808 CURVE",
"1165 741 OFFCURVE",
"1250 610 OFFCURVE",
"1250 435 CURVE SMOOTH",
"1250 156 OFFCURVE",
"1032 0 OFFCURVE",
"697 0 CURVE SMOOTH",
"150 0 LINE"
);
}
);
width = 1400;
}
);
leftKerningGroup = Block;
rightKerningGroup = Block;
unicode = 0042;
},
{
glyphname = C;
lastChange = "2012-10-18 22:31:24 -0400";
layers = (
{
anchors = (
{
name = bottom;
position = "{807, 0}";
},
{
name = top;
position = "{807, 1493}";
}
);
layerId = "D5D14868-B3D8-4E08-9530-062F6179E82D";
name = Bold;
paths = (
{
closed = 1;
nodes = (
"1368 1106 LINE",
"1141 1261 OFFCURVE",
"1016 1285 OFFCURVE",
"861 1285 CURVE SMOOTH",
"560 1285 OFFCURVE",
"428 1097 OFFCURVE",
"428 745 CURVE SMOOTH",
"433 440 OFFCURVE",
"582 339 OFFCURVE",
"891 339 CURVE SMOOTH",
"1046 339 OFFCURVE",
"1201 413 OFFCURVE",
"1368 568 CURVE",
"1368 127 LINE",
"1217 24 OFFCURVE",
"1056 -28 OFFCURVE",
"880 -28 CURVE SMOOTH",
"429 -28 OFFCURVE",
"150 270 OFFCURVE",
"150 745 CURVE SMOOTH",
"150 1218 OFFCURVE",
"398 1499 OFFCURVE",
"850 1519 CURVE SMOOTH",
"1025 1527 OFFCURVE",
"1158 1518 OFFCURVE",
"1368 1416 CURVE"
);
}
);
width = 1518;
}
);
unicode = 0043;
},
{
glyphname = D;
lastChange = "2013-04-22 10:05:58 -0400";
layers = (
{
anchors = (
{
name = bottom;
position = "{646, 2}";
},
{
name = center;
position = "{706, 747}";
},
{
name = top;
position = "{706, 1493}";
}
);
layerId = "D5D14868-B3D8-4E08-9530-062F6179E82D";
name = Bold;
paths = (
{
closed = 1;
nodes = (
"427 1260 LINE",
"427 433 LINE",
"620 433 LINE SMOOTH",
"806 433 OFFCURVE",
"934 456 OFFCURVE",
"1004 503 CURVE",
"1064 551 OFFCURVE",
"1121 645 OFFCURVE",
"1148 770 CURVE",
"1148 934 OFFCURVE",
"1107 1056 OFFCURVE",
"1020 1138 CURVE SMOOTH",
"933 1220 OFFCURVE",
"801 1260 OFFCURVE",
"620 1260 CURVE SMOOTH"
);
},
{
closed = 1;
nodes = (
"150 1493 LINE",
"582 1493 LINE SMOOTH",
"861 1493 OFFCURVE",
"1076 1429 OFFCURVE",
"1212 1312 CURVE",
"1345 1189 OFFCURVE",
"1417 1000 OFFCURVE",
"1417 748 CURVE SMOOTH",
"1417 493 OFFCURVE",
"1348 304 OFFCURVE",
"1211 181 CURVE SMOOTH",
"1074 60 OFFCURVE",
"865 0 OFFCURVE",
"582 0 CURVE SMOOTH",
"150 0 LINE"
);
}
);
width = 1567;
}
);
unicode = 0044;
},
{
glyphname = E;
lastChange = "2013-04-22 10:07:25 -0400";
layers = (
{
anchors = (
{
name = bottom;
position = "{627, 0}";
},
{
name = ogonek;
position = "{628, 0}";
},
{
name = top;
position = "{627, 1493}";
}
);
layerId = "D5D14868-B3D8-4E08-9530-062F6179E82D";
name = Bold;
paths = (
{
closed = 1;
nodes = (
"150 1493 LINE",
"1122 1493 LINE",
"1122 1256 LINE",
"418 1256 LINE",
"418 912 LINE",
"1092 912 LINE",
"1092 675 LINE",
"418 675 LINE",
"418 370 LINE",
"1139 370 LINE",
"1139 0 LINE",
"150 0 LINE"
);
}
);
width = 1289;
}
);
leftKerningGroup = Block;
rightKerningGroup = Block;
unicode = 0045;
},
{
glyphname = F;
lastChange = "2012-10-18 22:31:24 -0400";
layers = (
{
layerId = "D5D14868-B3D8-4E08-9530-062F6179E82D";
name = Bold;
paths = (
{
closed = 1;
nodes = (
"200 1493 LINE",
"1051 1493 LINE",
"1051 1246 LINE",
"465 1246 LINE",
"462 1187 OFFCURVE",
"460 1135 OFFCURVE",
"457 1082 CURVE SMOOTH",
"453 1029 OFFCURVE",
"451 975 OFFCURVE",
"448 914 CURVE",
"1000 914 LINE",
"1000 639 LINE",
"458 639 LINE",
"477 0 LINE",
"150 0 LINE"
);
}
);
width = 1201;
}
);
unicode = 0046;
},
{
glyphname = G;
lastChange = "2012-10-18 22:31:24 -0400";
layers = (
{
anchors = (
{
name = bottom;
position = "{845, 0}";
},
{
name = top;
position = "{845, 1493}";
}
);
layerId = "D5D14868-B3D8-4E08-9530-062F6179E82D";
name = Bold;
paths = (
{
closed = 1;
nodes = (
"1169 527 LINE",
"866 527 LINE",
"866 788 LINE",
"1464 788 LINE",
"1464 150 LINE",
"1297 31 OFFCURVE",
"1108 -28 OFFCURVE",
"895 -28 CURVE SMOOTH",
"663 -28 OFFCURVE",
"480 40 OFFCURVE",
"347 177 CURVE SMOOTH",
"216 316 OFFCURVE",
"150 505 OFFCURVE",
"150 745 CURVE SMOOTH",
"150 1229 OFFCURVE",
"431 1519 OFFCURVE",
"895 1519 CURVE SMOOTH",
"1088 1519 OFFCURVE",
"1257 1477 OFFCURVE",
"1417 1377 CURVE",
"1417 1089 LINE",
"1241 1239 OFFCURVE",
"1079 1304 OFFCURVE",
"911 1304 CURVE SMOOTH",
"590 1304 OFFCURVE",
"429 1125 OFFCURVE",
"428 766 CURVE",
"436 609 OFFCURVE",
"476 496 OFFCURVE",
"548 441 CURVE",
"547 441 LINE",
"624 386 OFFCURVE",
"746 358 OFFCURVE",
"911 358 CURVE SMOOTH",
"978 358 OFFCURVE",
"1034 363 OFFCURVE",
"1085 374 CURVE",
"1084 374 LINE",
"1121 383 OFFCURVE",
"1149 394 OFFCURVE",
"1169 409 CURVE"
);
}
);
width = 1614;
}
);
unicode = 0047;
},
{
glyphname = H;
lastChange = "2013-04-22 10:05:33 -0400";
layers = (
{
anchors = (
{
name = bottom;
position = "{733, -22}";
},
{
name = center;
position = "{737, 747}";
},
{
name = top;
position = "{737, 1493}";
}
);
layerId = "D5D14868-B3D8-4E08-9530-062F6179E82D";
name = Bold;
paths = (
{
closed = 1;
nodes = (
"169 1493 LINE",
"447 1493 LINE",
"447 817 LINE",
"1029 817 LINE",
"1029 1493 LINE",
"1307 1493 LINE",
"1326 0 LINE",
"1029 0 LINE",
"1029 476 LINE",
"447 476 LINE",
"447 0 LINE",
"150 0 LINE"
);
}
);
width = 1476;
}
);
leftKerningGroup = Block;
rightKerningGroup = Block;
unicode = 0048;
},
{
glyphname = I;
lastChange = "2013-04-22 10:07:44 -0400";
layers = (
{
anchors = (
{
name = ogonek;
position = "{314, 0}";
},
{
name = top;
position = "{318, 1493}";
}
);
layerId = "D5D14868-B3D8-4E08-9530-062F6179E82D";
name = Bold;
paths = (
{
closed = 1;
nodes = (
"181 1493 LINE",
"438 1493 LINE",
"457 0 LINE",
"150 0 LINE"
);
}
);
width = 607;
}
);
unicode = 0049;
},
{
glyphname = J;
lastChange = "2012-10-18 22:31:24 -0400";
layers = (
{
anchors = (
{
name = top;
position = "{572, 1493}";
}
);
layerId = "D5D14868-B3D8-4E08-9530-062F6179E82D";
name = Bold;
paths = (
{
closed = 1;
nodes = (
"542 1497 LINE",
"819 1480 LINE",
"766 96 LINE SMOOTH",
"762 -83 OFFCURVE",
"723 -214 OFFCURVE",
"651 -289 CURVE SMOOTH",
"578 -366 OFFCURVE",
"460 -407 OFFCURVE",
"297 -410 CURVE",
"150 -395 LINE",
"150 0 LINE",
"285 -30 LINE",
"353 -26 OFFCURVE",
"409 -8 OFFCURVE",
"440 21 CURVE SMOOTH",
"471 50 OFFCURVE",
"487 80 OFFCURVE",
"488 111 CURVE SMOOTH"
);
}
);
width = 969;
}
);
unicode = 004A;
},
{
glyphname = K;
lastChange = "2012-10-18 22:31:24 -0400";
layers = (
{
anchors = (
{
name = bottom;
position = "{711, 0}";
},
{
name = top;
position = "{711, 1493}";
}
);
layerId = "D5D14868-B3D8-4E08-9530-062F6179E82D";
name = Bold;
paths = (
{
closed = 1;
nodes = (
"190 1493 LINE",
"457 1493 LINE",
"440 945 LINE",
"1021 1493 LINE",
"1378 1493 LINE",
"633 793 LINE",
"1424 0 LINE",
"861 0 LINE",
"444 590 LINE",
"447 543 OFFCURVE",
"450 494 OFFCURVE",
"453 443 CURVE SMOOTH",
"459 342 OFFCURVE",
"465 240 OFFCURVE",
"470 141 CURVE SMOOTH",
"473 92 OFFCURVE",
"475 45 OFFCURVE",
"477 0 CURVE",
"150 0 LINE"
);
}
);
width = 1574;
}
);
unicode = 004B;
},
{
glyphname = L;
lastChange = "2013-04-22 10:02:59 -0400";
layers = (
{
anchors = (
{
name = bottom;
position = "{614, -65}";
},
{
name = dot;
position = "{779, 877}";
},
{
name = top;
position = "{492, 1493}";
}
);
layerId = "D5D14868-B3D8-4E08-9530-062F6179E82D";
name = Bold;
paths = (
{
closed = 1;
nodes = (
"170 1493 LINE",
"437 1493 LINE",
"428 370 LINE",
"1120 370 LINE",
"1097 0 LINE",
"150 0 LINE"
);
}
);
width = 1270;
}
);
unicode = 004C;
},
{
glyphname = M;
lastChange = "2013-04-20 00:34:03 -0400";
layers = (
{
anchors = (
{
name = top;
position = "{941, 1358}";
}
);
layerId = "D5D14868-B3D8-4E08-9530-062F6179E82D";
name = Bold;
paths = (
{
closed = 1;
nodes = (
"210 1493 LINE",
"558 1493 LINE",
"886 770 LINE",
"1233 1493 LINE",
"1562 1493 LINE",
"1622 0 LINE",
"1270 0 LINE",
"1302 1027 LINE",
"1028 225 LINE",
"743 225 LINE",
"469 1029 LINE",
"474 857 OFFCURVE",
"480 684 OFFCURVE",
"485 511 CURVE SMOOTH",
"490 338 OFFCURVE",
"496 167 OFFCURVE",
"501 0 CURVE",
"150 0 LINE"
);
}
);
width = 1772;
}
);
leftKerningGroup = Block;
rightKerningGroup = Block;
unicode = 004D;
},
{
glyphname = N;
lastChange = "2012-10-18 22:32:31 -0400";
layers = (
{
anchors = (
{
name = bottom;
position = "{752, 0}";
},
{
name = top;
position = "{752, 1493}";
}
);
layerId = "D5D14868-B3D8-4E08-9530-062F6179E82D";
name = Bold;
paths = (
{
closed = 1;
nodes = (
"189 1465 LINE",
"488 1465 LINE",
"1040 451 LINE",
"1066 1493 LINE",
"1318 1493 LINE",
"1318 0 LINE",
"980 0 LINE",
"421 1054 LINE",
"430 879 OFFCURVE",
"438 703 OFFCURVE",
"447 524 CURVE SMOOTH",
"455 345 OFFCURVE",
"463 171 OFFCURVE",
"471 0 CURVE",
"150 0 LINE"
);
}
);
width = 1468;
}
);
leftKerningGroup = Block;
rightKerningGroup = Block;
unicode = 004E;
},
{
glyphname = O;
lastChange = "2013-04-20 00:23:26 -0400";
layers = (
{
anchors = (
{
name = horncomb;
position = "{1415, 1038}";
},
{
name = top;
position = "{844, 1493}";
}
);
layerId = "D5D14868-B3D8-4E08-9530-062F6179E82D";
name = Bold;
paths = (
{
closed = 1;
nodes = (
"721 1287 OFFCURVE",
"617 1234 OFFCURVE",
"542 1146 CURVE",
"470 1050 OFFCURVE",
"428 912 OFFCURVE",
"428 745 CURVE SMOOTH",
"428 613 OFFCURVE",
"464 526 OFFCURVE",
"532 482 CURVE",
"608 437 OFFCURVE",
"713 413 OFFCURVE",
"845 413 CURVE SMOOTH",
"1110 413 OFFCURVE",
"1259 481 OFFCURVE",
"1259 745 CURVE SMOOTH",
"1259 1088 OFFCURVE",
"1098 1287 OFFCURVE",
"845 1287 CURVE SMOOTH"
);
},
{
closed = 1;
nodes = (
"1054 1519 OFFCURVE",
"1223 1448 OFFCURVE",
"1350 1306 CURVE SMOOTH",
"1475 1165 OFFCURVE",
"1538 981 OFFCURVE",
"1538 745 CURVE SMOOTH",
"1538 512 OFFCURVE",
"1475 325 OFFCURVE",
"1350 184 CURVE SMOOTH",
"1222 43 OFFCURVE",
"1054 -28 OFFCURVE",
"845 -28 CURVE SMOOTH",
"634 -28 OFFCURVE",
"465 43 OFFCURVE",
"338 184 CURVE SMOOTH",
"213 325 OFFCURVE",
"150 512 OFFCURVE",
"150 745 CURVE SMOOTH",
"150 981 OFFCURVE",
"213 1165 OFFCURVE",
"338 1306 CURVE SMOOTH",
"465 1448 OFFCURVE",
"634 1519 OFFCURVE",
"845 1519 CURVE SMOOTH"
);
}
);
width = 1688;
}
);
unicode = 004F;
},
{
glyphname = P;
lastChange = "2012-10-18 22:31:24 -0400";
layers = (
{
layerId = "D5D14868-B3D8-4E08-9530-062F6179E82D";
name = Bold;
paths = (
{
closed = 1;
nodes = (
"485 1335 LINE",
"482 1255 OFFCURVE",
"480 1182 OFFCURVE",
"477 1109 CURVE SMOOTH",
"473 1036 OFFCURVE",
"471 962 OFFCURVE",
"468 879 CURVE",
"688 879 LINE SMOOTH",
"856 879 OFFCURVE",
"950 960 OFFCURVE",
"950 1108 CURVE SMOOTH",
"950 1253 OFFCURVE",
"856 1335 OFFCURVE",
"688 1335 CURVE SMOOTH"
);
},
{
closed = 1;
nodes = (
"211 1493 LINE",
"670 1493 LINE SMOOTH",
"1015 1493 OFFCURVE",
"1190 1336 OFFCURVE",
"1190 1032 CURVE SMOOTH",
"1190 879 OFFCURVE",
"1145 761 OFFCURVE",
"1056 678 CURVE SMOOTH",
"969 593 OFFCURVE",
"841 551 OFFCURVE",
"670 551 CURVE SMOOTH",
"475 551 LINE",
"456 0 LINE",
"150 0 LINE"
);
}
);
width = 1340;
}
);
unicode = 0050;
},
{
glyphname = Q;
lastChange = "2012-10-18 22:31:24 -0400";
layers = (
{
layerId = "D5D14868-B3D8-4E08-9530-062F6179E82D";
name = Bold;
paths = (
{
closed = 1;
nodes = (
"721 1287 OFFCURVE",
"617 1234 OFFCURVE",
"542 1146 CURVE",
"470 1050 OFFCURVE",
"428 912 OFFCURVE",
"428 745 CURVE SMOOTH",
"428 614 OFFCURVE",
"462 529 OFFCURVE",
"531 488 CURVE SMOOTH",
"607 445 OFFCURVE",
"675 420 OFFCURVE",
"726 413 CURVE SMOOTH",
"791 402 LINE",
"797 413 OFFCURVE",
"804 424 OFFCURVE",
"812 437 CURVE",
"819 450 OFFCURVE",
"827 462 OFFCURVE",
"834 475 CURVE SMOOTH",
"841 488 OFFCURVE",
"849 500 OFFCURVE",
"856 511 CURVE SMOOTH",
"863 522 OFFCURVE",
"869 533 OFFCURVE",
"874 542 CURVE",
"959 503 OFFCURVE",
"1043 477 OFFCURVE",
"1112 466 CURVE",
"1210 523 OFFCURVE",
"1259 616 OFFCURVE",
"1259 745 CURVE SMOOTH",
"1259 1085 OFFCURVE",
"1097 1287 OFFCURVE",
"845 1287 CURVE SMOOTH"
);
},
{
closed = 1;
nodes = (
"1650 -251 LINE",
"1097 -251 LINE",
"899 -26 LINE",
"884 -27 OFFCURVE",
"871 -28 OFFCURVE",
"862 -28 CURVE SMOOTH",
"853 -28 OFFCURVE",
"844 -28 OFFCURVE",
"835 -28 CURVE SMOOTH",
"427 -28 OFFCURVE",
"150 277 OFFCURVE",
"150 745 CURVE SMOOTH",
"150 1212 OFFCURVE",
"422 1519 OFFCURVE",
"845 1519 CURVE SMOOTH",
"1264 1519 OFFCURVE",
"1537 1212 OFFCURVE",
"1537 745 CURVE SMOOTH",
"1537 575 OFFCURVE",
"1510 439 OFFCURVE",
"1457 338 CURVE SMOOTH",
"1410 251 OFFCURVE",
"1365 180 OFFCURVE",
"1316 121 CURVE"
);
}
);
width = 1800;
}
);
unicode = 0051;
},
{
glyphname = R;
lastChange = "2012-10-18 22:31:24 -0400";
layers = (
{
anchors = (
{
name = bottom;
position = "{628, 0}";
},
{
name = top;
position = "{628, 1493}";
}
);
layerId = "D5D14868-B3D8-4E08-9530-062F6179E82D";
name = Bold;
paths = (
{
closed = 1;
nodes = (
"1112 884 OFFCURVE",
"1050 765 OFFCURVE",
"942 700 CURVE",
"1009 649 OFFCURVE",
"1070 562 OFFCURVE",
"1131 442 CURVE SMOOTH",
"1163 378 OFFCURVE",
"1203 299 OFFCURVE",
"1243 220 CURVE SMOOTH",
"1283 141 OFFCURVE",
"1322 63 OFFCURVE",
"1353 0 CURVE",
"994 0 LINE",
"841 387 LINE",
"842 384 LINE",
"755 563 OFFCURVE",
"695 599 OFFCURVE",
"560 599 CURVE SMOOTH",
"455 599 LINE",
"455 0 LINE",
"150 0 LINE",
"150 1493 LINE",
"621 1493 LINE SMOOTH",
"776 1493 OFFCURVE",
"898 1457 OFFCURVE",
"982 1383 CURVE SMOOTH",
"1066 1309 OFFCURVE",
"1112 1196 OFFCURVE",
"1112 1047 CURVE SMOOTH"
);
},
{
closed = 1;
nodes = (
"436 1316 LINE",
"436 870 LINE",
"640 870 LINE SMOOTH",
"771 870 OFFCURVE",
"901 959 OFFCURVE",
"901 1047 CURVE SMOOTH",
"901 1259 OFFCURVE",
"769 1316 OFFCURVE",
"640 1316 CURVE SMOOTH"
);
}
);
width = 1503;
}
);
unicode = 0052;
},
{
glyphname = S;
lastChange = "2012-10-18 22:31:24 -0400";
layers = (
{
anchors = (
{
name = bottom;
position = "{661, 0}";
},
{
name = top;
position = "{661, 1493}";
}
);
layerId = "D5D14868-B3D8-4E08-9530-062F6179E82D";
name = Bold;
paths = (
{
closed = 1;
nodes = (
"1138 1162 LINE",
"959 1246 OFFCURVE",
"822 1287 OFFCURVE",
"707 1287 CURVE SMOOTH",
"522 1287 OFFCURVE",
"418 1217 OFFCURVE",
"418 1092 CURVE SMOOTH",
"418 1040 OFFCURVE",
"432 1002 OFFCURVE",
"461 978 CURVE",
"460 979 LINE",
"494 950 OFFCURVE",
"560 927 OFFCURVE",
"657 909 CURVE SMOOTH",
"774 886 LINE",
"773 886 LINE",
"1080 827 OFFCURVE",
"1223 681 OFFCURVE",
"1223 429 CURVE SMOOTH",
"1223 130 OFFCURVE",
"1023 -28 OFFCURVE",
"642 -28 CURVE SMOOTH",
"503 -28 OFFCURVE",
"338 6 OFFCURVE",
"155 74 CURVE",
"155 468 LINE",
"344 363 OFFCURVE",
"503 308 OFFCURVE",
"642 308 CURVE SMOOTH",
"743 308 OFFCURVE",
"820 327 OFFCURVE",
"874 366 CURVE SMOOTH",
"923 401 OFFCURVE",
"947 433 OFFCURVE",
"947 462 CURVE SMOOTH",
"947 489 OFFCURVE",
"928 518 OFFCURVE",
"895 550 CURVE",
"859 581 OFFCURVE",
"786 610 OFFCURVE",
"703 629 CURVE SMOOTH",
"586 652 LINE SMOOTH",
"285 709 OFFCURVE",
"150 840 OFFCURVE",
"150 1076 CURVE SMOOTH",
"150 1352 OFFCURVE",
"358 1519 OFFCURVE",
"685 1519 CURVE SMOOTH",
"821 1519 OFFCURVE",
"972 1491 OFFCURVE",
"1138 1436 CURVE"
);
}
);
width = 1373;
}
);
unicode = 0053;
},
{
glyphname = T;
lastChange = "2012-10-18 22:31:24 -0400";
layers = (
{
anchors = (
{
name = bottom;
position = "{787, 0}";
},
{
name = center;
position = "{787, 747}";
},
{
name = top;
position = "{787, 1493}";
}
);
layerId = "D5D14868-B3D8-4E08-9530-062F6179E82D";
name = Bold;
paths = (
{
closed = 1;
nodes = (
"150 1493 LINE",
"1425 1493 LINE",
"1425 1254 LINE",
"923 1274 LINE",
"961 0 LINE",
"614 0 LINE",
"652 1274 LINE",
"150 1255 LINE"
);
}
);
width = 1575;
}
);
unicode = 0054;
},
{
glyphname = U;
lastChange = "2013-04-22 10:08:14 -0400";
layers = (
{
anchors = (
{
name = horncomb;
position = "{1243, 1120}";
},
{
name = ogonek;
position = "{717, 0}";
},
{
name = top;
position = "{730, 1493}";
}
);
layerId = "D5D14868-B3D8-4E08-9530-062F6179E82D";
name = Bold;
paths = (
{
closed = 1;
nodes = (
"150 1493 LINE",
"419 1493 LINE",
"419 727 LINE SMOOTH",
"419 585 OFFCURVE",
"444 483 OFFCURVE",
"493 422 CURVE",
"493 423 LINE",
"540 366 OFFCURVE",
"620 337 OFFCURVE",
"731 337 CURVE SMOOTH",
"842 337 OFFCURVE",
"922 366 OFFCURVE",
"969 423 CURVE",
"969 422 LINE",
"1018 483 OFFCURVE",
"1043 585 OFFCURVE",
"1043 727 CURVE SMOOTH",
"1043 1493 LINE",
"1311 1493 LINE",
"1311 570 LINE SMOOTH",
"1311 174 OFFCURVE",
"1115 -28 OFFCURVE",
"731 -28 CURVE SMOOTH",
"348 -28 OFFCURVE",
"150 177 OFFCURVE",
"150 570 CURVE SMOOTH"
);
}
);
width = 1461;
}
);
unicode = 0055;
},
{
glyphname = V;
lastChange = "2012-10-18 22:31:24 -0400";
layers = (
{
layerId = "D5D14868-B3D8-4E08-9530-062F6179E82D";
name = Bold;
paths = (
{
closed = 1;
nodes = (
"669 0 LINE",
"150 1493 LINE",
"429 1493 LINE",
"853 493 LINE",
"1277 1493 LINE",
"1555 1493 LINE",
"1037 0 LINE"
);
}
);
width = 1705;
}
);
unicode = 0056;
},
{
glyphname = W;
lastChange = "2012-10-18 22:31:24 -0400";
layers = (
{
anchors = (
{
name = top;
position = "{1088, 1493}";
}
);
layerId = "D5D14868-B3D8-4E08-9530-062F6179E82D";
name = Bold;
paths = (
{
closed = 1;
nodes = (
"150 1493 LINE",
"410 1493 LINE",
"680 532 LINE",
"729 630 OFFCURVE",
"780 729 OFFCURVE",
"832 829 CURVE SMOOTH",
"883 929 OFFCURVE",
"933 1027 OFFCURVE",
"981 1122 CURVE",
"1198 1122 LINE",
"1474 515 LINE",
"1524 675 OFFCURVE",
"1575 847 OFFCURVE",
"1627 1011 CURVE SMOOTH",
"1679 1175 OFFCURVE",
"1730 1336 OFFCURVE",
"1779 1493 CURVE",
"2041 1493 LINE",
"1665 0 LINE",
"1329 0 LINE",
"1094 678 LINE",
"1053 565 OFFCURVE",
"1010 450 OFFCURVE",
"966 332 CURVE SMOOTH",
"922 214 OFFCURVE",
"880 100 OFFCURVE",
"839 0 CURVE",
"484 0 LINE"
);
}
);
width = 2191;
}
);
unicode = 0057;
},
{
glyphname = X;
lastChange = "2012-10-18 22:31:24 -0400";
layers = (
{
layerId = "D5D14868-B3D8-4E08-9530-062F6179E82D";
name = Bold;
paths = (
{
closed = 1;
nodes = (
"224 1493 LINE",
"517 1493 LINE",
"848 928 LINE",
"1180 1493 LINE",
"1474 1493 LINE",
"1015 700 LINE",
"1512 0 LINE",
"1105 0 LINE",
"832 470 LINE",
"558 0 LINE",
"150 0 LINE",
"666 702 LINE"
);
}
);
width = 1662;
}
);
unicode = 0058;
},
{
glyphname = Y;
lastChange = "2012-10-18 22:31:24 -0400";
layers = (
{
anchors = (
{
name = top;
position = "{809, 1493}";
}
);
layerId = "D5D14868-B3D8-4E08-9530-062F6179E82D";
name = Bold;
paths = (
{
closed = 1;
nodes = (
"150 1493 LINE",
"441 1493 LINE",
"811 809 LINE",
"1178 1493 LINE",
"1469 1493 LINE",
"972 513 LINE",
"972 0 LINE",
"637 0 LINE",
"637 513 LINE"
);
}
);
width = 1619;
}
);
unicode = 0059;
},
{
glyphname = Z;
lastChange = "2012-10-18 22:31:24 -0400";
layers = (
{
anchors = (
{
name = top;
position = "{773, 1493}";
}
);
layerId = "D5D14868-B3D8-4E08-9530-062F6179E82D";
name = Bold;
paths = (
{
closed = 1;
nodes = (
"172 1493 LINE",
"1361 1493 LINE",
"1361 1294 LINE",
"513 361 LINE",
"1383 361 LINE",
"1383 0 LINE",
"150 0 LINE",
"150 323 LINE",
"998 1256 LINE",
"172 1256 LINE"
);
}
);
width = 1533;
}
);
unicode = 005A;
},
{
glyphname = bracketleft;
lastChange = "2012-10-18 22:31:24 -0400";
layers = (
{
layerId = "D5D14868-B3D8-4E08-9530-062F6179E82D";
name = Bold;
paths = (
{
closed = 1;
nodes = (
"150 1527 LINE",
"620 1527 LINE",
"620 1319 LINE",
"396 1319 LINE",
"396 31 LINE",
"620 31 LINE",
"620 -252 LINE",
"150 -252 LINE"
);
}
);
width = 770;
}
);
unicode = 005B;
},
{
glyphname = backslash;
lastChange = "2012-10-18 22:31:24 -0400";
layers = (
{
layerId = "D5D14868-B3D8-4E08-9530-062F6179E82D";
name = Bold;
paths = (
{
closed = 1;
nodes = (
"387 1462 LINE",
"837 -202 LINE",
"562 -191 LINE",
"150 1469 LINE"
);
}
);
width = 987;
}
);
unicode = 005C;
},
{
glyphname = bracketright;
lastChange = "2012-10-18 22:31:24 -0400";
layers = (
{
layerId = "D5D14868-B3D8-4E08-9530-062F6179E82D";
name = Bold;
paths = (
{
closed = 1;
nodes = (
"621 1527 LINE",
"621 -252 LINE",
"150 -252 LINE",
"150 21 LINE",
"373 21 LINE",
"373 1319 LINE",
"150 1319 LINE",
"150 1527 LINE"
);
}
);
width = 771;
}
);
unicode = 005D;
},
{
glyphname = asciicircum;
lastChange = "2012-10-18 22:31:24 -0400";
layers = (
{
layerId = "D5D14868-B3D8-4E08-9530-062F6179E82D";
name = Bold;
paths = (
{
closed = 1;
nodes = (
"926 1468 LINE",
"1527 874 LINE",
"1128 874 LINE",
"838 1272 LINE",
"549 874 LINE",
"150 874 LINE",
"751 1468 LINE"
);
}
);
width = 1677;
}
);
unicode = 005E;
},
{
glyphname = underscore;
lastChange = "2012-10-18 22:31:24 -0400";
layers = (
{
layerId = "D5D14868-B3D8-4E08-9530-062F6179E82D";
name = Bold;
paths = (
{
closed = 1;
nodes = (
"1218 -209 LINE",
"1218 -451 LINE",
"150 -451 LINE",
"150 -209 LINE"
);
}
);
width = 1368;
}
);
unicode = 005F;
},
{
glyphname = grave;
lastChange = "2013-04-01 01:08:43 -0400";
layers = (
{
anchors = (
{
name = _top;
position = "{513, 736}";
}
);
layerId = "D5D14868-B3D8-4E08-9530-062F6179E82D";
name = Bold;
paths = (
{
closed = 1;
nodes = (
"416 1603 LINE",
"736 1180 LINE",
"384 1180 LINE",
"150 1603 LINE"
);
}
);
width = 886;
}
);
unicode = 0060;
},
{
glyphname = a;
lastChange = "2013-06-15 11:39:48 -0400";
layers = (
{
anchors = (
{
name = ogonek;
position = "{1043, 0}";
},
{
name = top;
position = "{665, 1120}";
}
);
layerId = "D5D14868-B3D8-4E08-9530-062F6179E82D";
name = Bold;
paths = (
{
closed = 1;
nodes = (
"924.846 1143.81 LINE",
"1161.81 1143.81 LINE",
"1162 0 LINE",
"912 0 LINE",
"912 264 LINE",
"882 59 OFFCURVE",
"739.877 -27 OFFCURVE",
"614.898 -27 CURVE SMOOTH",
"335.944 -27 OFFCURVE",
"149.975 211.965 OFFCURVE",
"149.975 558.907 CURVE SMOOTH",
"149.975 905.849 OFFCURVE",
"335.944 1144.81 OFFCURVE",
"614.898 1144.81 CURVE SMOOTH",
"739.877 1144.81 OFFCURVE",
"867 1120 OFFCURVE",
"925 1001 CURVE"
);
},
{
closed = 1;
nodes = (
"415.931 852.858 LINE",
"369.938 787.869 OFFCURVE",
"345.942 697.884 OFFCURVE",
"344.943 582.903 CURVE",
"356.941 499.917 OFFCURVE",
"381.936 441.926 OFFCURVE",
"418.93 408.932 CURVE",
"418.93 409.932 LINE",
"455.924 376.937 OFFCURVE",
"513.914 359.94 OFFCURVE",
"594.901 359.94 CURVE SMOOTH",
"759.874 359.94 OFFCURVE",
"847 415 OFFCURVE",
"852 615 CURVE",
"848 724 OFFCURVE",
"808.865 787.869 OFFCURVE",
"770.872 848.859 CURVE SMOOTH",
"732.878 909.849 OFFCURVE",
"675.888 944.843 OFFCURVE",
"599.9 944.843 CURVE SMOOTH",
"522.913 944.843 OFFCURVE",
"460.923 913.848 OFFCURVE",
"414.931 851.858 CURVE"
);
}
);
width = 1258;
}
);
unicode = 0061;
},
{
glyphname = b;
lastChange = "2012-11-04 06:09:11 -0500";
layers = (
{
layerId = "D5D14868-B3D8-4E08-9530-062F6179E82D";
name = Bold;
paths = (
{
closed = 1;
nodes = (
"934 441 OFFCURVE",
"961 506 OFFCURVE",
"976 601 CURVE",
"972 714 OFFCURVE",
"948 800 OFFCURVE",
"908 861 CURVE SMOOTH",
"870 919 OFFCURVE",
"812 948 OFFCURVE",
"735 948 CURVE SMOOTH",
"658 948 OFFCURVE",
"595 916 OFFCURVE",
"550 860 CURVE",
"505 799 OFFCURVE",
"481 708 OFFCURVE",
"480 595 CURVE",
"504 435 OFFCURVE",
"580 355 OFFCURVE",
"732 354 CURVE",
"800 358 OFFCURVE",
"854 378 OFFCURVE",
"897 409 CURVE"
);
},
{
closed = 1;
nodes = (
"193 210 LINE",
"169 1527 LINE",
"417 1527 LINE",
"402 1039 LINE",
"478 1115 OFFCURVE",
"570 1145 OFFCURVE",
"695 1145 CURVE SMOOTH",
"972 1145 OFFCURVE",
"1160 906 OFFCURVE",
"1160 559 CURVE SMOOTH",
"1160 212 OFFCURVE",
"972 -27 OFFCURVE",
"695 -27 CURVE SMOOTH",
"570 -27 OFFCURVE",
"473 7 OFFCURVE",
"398 83 CURVE"
);
}
);
width = 1310;
}
);
unicode = 0062;
},
{
glyphname = c;
lastChange = "2012-10-18 22:31:24 -0400";
layers = (
{
anchors = (
{
name = bottom;
position = "{662, 0}";
},
{
name = top;
position = "{662, 1120}";
}
);
layerId = "D5D14868-B3D8-4E08-9530-062F6179E82D";
name = Bold;
paths = (
{
closed = 1;
nodes = (
"1052 829 LINE",
"925 899 OFFCURVE",
"814 934 OFFCURVE",
"721 934 CURVE SMOOTH",
"521 934 OFFCURVE",
"418 795 OFFCURVE",
"415 563 CURVE",
"424 487 OFFCURVE",
"450 429 OFFCURVE",
"490 400 CURVE",
"535 371 OFFCURVE",
"622 351 OFFCURVE",
"715 343 CURVE",
"862 343 LINE SMOOTH",
"905 344 OFFCURVE",
"966 364 OFFCURVE",
"1047 411 CURVE",
"1052 54 LINE",
"935 -1 OFFCURVE",
"823 -27 OFFCURVE",
"702 -27 CURVE SMOOTH",
"367 -27 OFFCURVE",
"150 206 OFFCURVE",
"150 559 CURVE SMOOTH",
"150 920 OFFCURVE",
"365 1145 OFFCURVE",
"713 1145 CURVE SMOOTH",
"824 1145 OFFCURVE",
"936 1119 OFFCURVE",
"1052 1066 CURVE"
);
}
);
width = 1202;
}
);
unicode = 0063;
},
{
glyphname = d;
lastChange = "2013-04-20 00:35:56 -0400";
layers = (
{
anchors = (
{
name = bottom;
position = "{619.37, -126.954}";
},
{
name = center;
position = "{798, 560}";
}
);
layerId = "D5D14868-B3D8-4E08-9530-062F6179E82D";
name = Bold;
paths = (
{
closed = 1;
nodes = (
"932 1527 LINE",
"1177 1527 LINE",
"1159 0 LINE",
"912 0 LINE",
"912 83 LINE",
"837 7 OFFCURVE",
"740 -27 OFFCURVE",
"615 -27 CURVE SMOOTH",
"336 -27 OFFCURVE",
"150 212 OFFCURVE",
"150 559 CURVE SMOOTH",
"150 906 OFFCURVE",
"336 1145 OFFCURVE",
"615 1145 CURVE SMOOTH",
"740 1145 OFFCURVE",
"839 1107 OFFCURVE",
"915 1032 CURVE"
);
},
{
closed = 1;
nodes = (
"416 853 LINE",
"370 788 OFFCURVE",
"346 698 OFFCURVE",
"345 583 CURVE",
"357 500 OFFCURVE",
"382 442 OFFCURVE",
"419 409 CURVE",
"419 410 LINE",
"456 377 OFFCURVE",
"514 360 OFFCURVE",
"595 360 CURVE SMOOTH",
"760 360 OFFCURVE",
"828 390 OFFCURVE",
"833 590 CURVE",
"829 699 OFFCURVE",
"809 788 OFFCURVE",
"771 849 CURVE SMOOTH",
"733 910 OFFCURVE",
"676 945 OFFCURVE",
"600 945 CURVE SMOOTH",
"523 945 OFFCURVE",
"461 914 OFFCURVE",
"415 852 CURVE"
);
}
);
width = 1327;
}
);
unicode = 0064;
},
{
glyphname = e;
lastChange = "2013-04-22 10:09:05 -0400";
layers = (
{
anchors = (
{
name = bottom;
position = "{745, -27}";
},
{
name = ogonek;
position = "{728, 0}";
},
{
name = top;
position = "{688, 1120}";
}
);
layerId = "D5D14868-B3D8-4E08-9530-062F6179E82D";
name = Bold;
paths = (
{
closed = 1;
nodes = (
"1184 566 LINE",
"405 566 LINE",
"413 466 OFFCURVE",
"444 398 OFFCURVE",
"487 366 CURVE",
"544 331 OFFCURVE",
"637 310 OFFCURVE",
"738 302 CURVE",
"805 302 OFFCURVE",
"862 304 OFFCURVE",
"925 309 CURVE SMOOTH",
"984 314 OFFCURVE",
"1058 341 OFFCURVE",
"1149 389 CURVE",
"1154 65 LINE",
"1010 5 OFFCURVE",
"869 -27 OFFCURVE",
"728 -27 CURVE SMOOTH",
"553 -21 OFFCURVE",
"413 32 OFFCURVE",
"307 133 CURVE SMOOTH",
"202 235 OFFCURVE",
"150 374 OFFCURVE",
"150 551 CURVE SMOOTH",
"162 911 OFFCURVE",
"362 1145 OFFCURVE",
"701 1145 CURVE",
"851 1139 OFFCURVE",
"966 1098 OFFCURVE",
"1046 1022 CURVE",
"1045 1022 LINE",
"1125 946 OFFCURVE",
"1171 829 OFFCURVE",
"1184 671 CURVE"
);
},
{
closed = 1;
nodes = (
"950 791 LINE",
"935 826 OFFCURVE",
"908 867 OFFCURVE",
"877 904 CURVE SMOOTH",
"833 955 OFFCURVE",
"774 980 OFFCURVE",
"701 980 CURVE SMOOTH",
"615 980 OFFCURVE",
"547 955 OFFCURVE",
"497 904 CURVE",
"497 905 LINE",
"458 866 OFFCURVE",
"435 828 OFFCURVE",
"426 790 CURVE"
);
}
);
width = 1334;
}
);
unicode = 0065;
},
{
glyphname = f;
lastChange = "2012-10-18 22:31:24 -0400";
layers = (
{
layerId = "D5D14868-B3D8-4E08-9530-062F6179E82D";
name = Bold;
paths = (
{
closed = 1;
nodes = (
"834 1486 LINE",
"834 1267 LINE",
"642 1291 LINE",
"614 1290 OFFCURVE",
"586 1285 OFFCURVE",
"577 1274 CURVE",
"566 1263 OFFCURVE",
"561 1231 OFFCURVE",
"561 1176 CURVE",
"562 1169 OFFCURVE",
"562 1163 OFFCURVE",
"563 1160 CURVE",
"564 1156 OFFCURVE",
"564 1152 OFFCURVE",
"565 1149 CURVE",
"565 1146 OFFCURVE",
"565 1142 OFFCURVE",
"566 1138 CURVE",
"567 1133 OFFCURVE",
"567 1127 OFFCURVE",
"568 1120 CURVE",
"844 1120 LINE",
"844 875 LINE",
"572 875 LINE",
"577 735 OFFCURVE",
"582 585 OFFCURVE",
"586 436 CURVE SMOOTH",
"590 287 OFFCURVE",
"595 139 OFFCURVE",
"600 0 CURVE",
"276 0 LINE",
"303 875 LINE",
"150 875 LINE",
"150 1120 LINE",
"308 1120 LINE",
"314 1158 LINE",
"315 1285 OFFCURVE",
"347 1376 OFFCURVE",
"414 1429 CURVE",
"413 1429 LINE",
"477 1482 OFFCURVE",
"556 1508 OFFCURVE",
"648 1508 CURVE"
);
}
);
width = 994;
}
);
unicode = 0066;
},
{
glyphname = g;
lastChange = "2012-10-18 22:31:24 -0400";
layers = (
{
anchors = (
{
name = top;
position = "{691, 1120}";
}
);
layerId = "D5D14868-B3D8-4E08-9530-062F6179E82D";
name = Bold;
paths = (
{
closed = 1;
nodes = (
"837 695 OFFCURVE",
"814 784 OFFCURVE",
"771 845 CURVE SMOOTH",
"727 905 OFFCURVE",
"663 937 OFFCURVE",
"582 937 CURVE SMOOTH",
"423 937 OFFCURVE",
"367 826 OFFCURVE",
"345 738 CURVE SMOOTH",
"334 693 OFFCURVE",
"328 643 OFFCURVE",
"327 586 CURVE",
"338 478 OFFCURVE",
"360 409 OFFCURVE",
"389 386 CURVE",
"424 365 OFFCURVE",
"485 353 OFFCURVE",
"569 353 CURVE SMOOTH",
"742 353 OFFCURVE",
"837 366 OFFCURVE",
"837 582 CURVE SMOOTH"
);
},
{
closed = 1;
nodes = (
"1149 166 LINE SMOOTH",
"1141 -57 OFFCURVE",
"1096 -229 OFFCURVE",
"1012 -320 CURVE SMOOTH",
"925 -415 OFFCURVE",
"794 -463 OFFCURVE",
"621 -463 CURVE SMOOTH",
"496 -463 OFFCURVE",
"378 -441 OFFCURVE",
"257 -397 CURVE",
"257 -2 LINE",
"390 -75 OFFCURVE",
"498 -107 OFFCURVE",
"594 -107 CURVE SMOOTH",
"693 -107 OFFCURVE",
"767 -77 OFFCURVE",
"814 -26 CURVE SMOOTH",
"845 10 OFFCURVE",
"867 48 OFFCURVE",
"884 84 CURVE",
"869 73 OFFCURVE",
"851 61 OFFCURVE",
"832 50 CURVE SMOOTH",
"771 17 OFFCURVE",
"698 0 OFFCURVE",
"614 0 CURVE SMOOTH",
"333 0 OFFCURVE",
"150 233 OFFCURVE",
"150 572 CURVE SMOOTH",
"150 912 OFFCURVE",
"333 1145 OFFCURVE",
"614 1145 CURVE SMOOTH",
"747 1145 OFFCURVE",
"847 1108 OFFCURVE",
"923 1024 CURVE",
"926 1041 OFFCURVE",
"928 1058 OFFCURVE",
"930 1075 CURVE",
"931 1092 OFFCURVE",
"933 1107 OFFCURVE",
"934 1120 CURVE",
"1178 1120 LINE"
);
}
);
width = 1328;
}
);
unicode = 0067;
},
{
glyphname = h;
lastChange = "2012-10-18 22:31:24 -0400";
layers = (
{
anchors = (
{
name = center;
position = "{533, 560}";
},
{
name = top;
position = "{533, 1120}";
}
);
layerId = "D5D14868-B3D8-4E08-9530-062F6179E82D";
name = Bold;
paths = (
{
closed = 1;
nodes = (
"1140 0 LINE",
"854 0 LINE",
"874 664 LINE",
"874 663 LINE",
"874 838 OFFCURVE",
"808 940 OFFCURVE",
"679 940 CURVE SMOOTH",
"518 940 OFFCURVE",
"417 813 OFFCURVE",
"417 629 CURVE SMOOTH",
"420 530 OFFCURVE",
"423 422 OFFCURVE",
"427 314 CURVE SMOOTH",
"431 206 OFFCURVE",
"434 99 OFFCURVE",
"437 0 CURVE",
"150 0 LINE",
"189 1527 LINE",
"437 1527 LINE",
"420 1029 LINE",
"500 1109 OFFCURVE",
"595 1145 OFFCURVE",
"718 1145 CURVE SMOOTH",
"983 1145 OFFCURVE",
"1120 983 OFFCURVE",
"1120 668 CURVE",
"1120 669 LINE"
);
}
);
width = 1290;
}
);
unicode = 0068;
},
{
glyphname = i;
lastChange = "2012-10-18 22:31:24 -0400";
layers = (
{
layerId = "D5D14868-B3D8-4E08-9530-062F6179E82D";
name = Bold;
paths = (
{
closed = 1;
nodes = (
"161 1120 LINE",
"389 1120 LINE",
"398 0 LINE",
"152 0 LINE"
);
},
{
closed = 1;
nodes = (
"162 1527 LINE",
"388 1527 LINE",
"400 1235 LINE",
"150 1235 LINE"
);
}
);
width = 550;
}
);
unicode = 0069;
},
{
glyphname = j;
lastChange = "2012-10-18 22:31:24 -0400";
layers = (
{
layerId = "D5D14868-B3D8-4E08-9530-062F6179E82D";
name = Bold;
paths = (
{
closed = 1;
nodes = (
"448 1116 LINE",
"684 1112 LINE",
"646 10 LINE SMOOTH",
"642 -131 OFFCURVE",
"611 -236 OFFCURVE",
"554 -297 CURVE SMOOTH",
"496 -361 OFFCURVE",
"405 -395 OFFCURVE",
"282 -399 CURVE",
"150 -398 LINE",
"155 -65 LINE",
"263 -66 LINE",
"318 -63 OFFCURVE",
"355 -51 OFFCURVE",
"372 -32 CURVE SMOOTH",
"381 -22 OFFCURVE",
"388 -4 OFFCURVE",
"393 23 CURVE SMOOTH",
"398 49 OFFCURVE",
"400 84 OFFCURVE",
"401 127 CURVE SMOOTH"
);
},
{
closed = 1;
nodes = (
"487 1527 LINE",
"713 1527 LINE",
"725 1235 LINE",
"475 1235 LINE"
);
}
);
width = 875;
}
);
unicode = 006A;
},
{
glyphname = k;
lastChange = "2012-10-18 22:31:24 -0400";
layers = (
{
anchors = (
{
name = bottom;
position = "{557, 0}";
}
);
layerId = "D5D14868-B3D8-4E08-9530-062F6179E82D";
name = Bold;
paths = (
{
closed = 1;
nodes = (
"189 1527 LINE",
"436 1527 LINE",
"427 770 LINE",
"726 1120 LINE",
"1040 1120 LINE",
"618 597 LINE",
"665 551 OFFCURVE",
"716 503 OFFCURVE",
"769 452 CURVE SMOOTH",
"822 401 OFFCURVE",
"875 349 OFFCURVE",
"929 297 CURVE SMOOTH",
"983 245 OFFCURVE",
"1036 194 OFFCURVE",
"1089 143 CURVE SMOOTH",
"1142 92 OFFCURVE",
"1191 45 OFFCURVE",
"1237 0 CURVE",
"772 0 LINE",
"433 417 LINE",
"456 0 LINE",
"150 0 LINE"
);
}
);
width = 1387;
}
);
unicode = 006B;
},
{
glyphname = l;
lastChange = "2012-10-18 22:31:24 -0400";
layers = (
{
anchors = (
{
name = bottom;
position = "{246, 0}";
},
{
name = top;
position = "{365, 1556}";
},
{
name = topright;
position = "{580, 1120}";
}
);
layerId = "D5D14868-B3D8-4E08-9530-062F6179E82D";
name = Bold;
paths = (
{
closed = 1;
nodes = (
"170 1527 LINE",
"407 1527 LINE",
"407 287 LINE",
"523 287 LINE",
"523 0 LINE",
"150 0 LINE"
);
}
);
width = 673;
}
);
unicode = 006C;
},
{
glyphname = m;
lastChange = "2012-10-18 22:31:24 -0400";
layers = (
{
layerId = "D5D14868-B3D8-4E08-9530-062F6179E82D";
name = Bold;
paths = (
{
closed = 1;
nodes = (
"985 1050 OFFCURVE",
"1023 1010 OFFCURVE",
"1050 961 CURVE",
"1125 1069 OFFCURVE",
"1213 1145 OFFCURVE",
"1392 1145 CURVE SMOOTH",
"1513 1145 OFFCURVE",
"1608 1102 OFFCURVE",
"1672 1021 CURVE SMOOTH",
"1736 940 OFFCURVE",
"1770 820 OFFCURVE",
"1770 668 CURVE",
"1770 669 LINE",
"1773 564 OFFCURVE",
"1776 450 OFFCURVE",
"1780 335 CURVE SMOOTH",
"1784 219 OFFCURVE",
"1787 105 OFFCURVE",
"1790 0 CURVE",
"1473 0 LINE",
"1523 693 LINE",
"1523 877 OFFCURVE",
"1488 949 OFFCURVE",
"1372 949 CURVE SMOOTH",
"1220 949 OFFCURVE",
"1131 818 OFFCURVE",
"1131 627 CURVE SMOOTH",
"1120 0 LINE",
"805 0 LINE",
"874 704 LINE",
"873 877 OFFCURVE",
"817 959 OFFCURVE",
"694 959 CURVE SMOOTH",
"618 959 OFFCURVE",
"558 928 OFFCURVE",
"510 865 CURVE SMOOTH",
"460 800 OFFCURVE",
"435 721 OFFCURVE",
"435 629 CURVE SMOOTH",
"438 530 OFFCURVE",
"441 422 OFFCURVE",
"445 314 CURVE SMOOTH",
"449 206 OFFCURVE",
"452 99 OFFCURVE",
"455 0 CURVE",
"150 0 LINE",
"189 1120 LINE",
"439 1120 LINE",
"432 1044 LINE",
"507 1113 OFFCURVE",
"599 1145 OFFCURVE",
"715 1145 CURVE SMOOTH",
"798 1145 OFFCURVE",
"874 1122 OFFCURVE",
"938 1082 CURVE"
);
}
);
width = 1940;
}
);
unicode = 006D;
},
{
glyphname = n;
lastChange = "2012-10-18 22:31:24 -0400";
layers = (
{
anchors = (
{
name = bottom;
position = "{630, 0}";
},
{
name = top;
position = "{630, 1120}";
}
);
layerId = "D5D14868-B3D8-4E08-9530-062F6179E82D";
name = Bold;
paths = (
{
closed = 1;
nodes = (
"1168 0 LINE",
"843 0 LINE",
"882 674 LINE",
"882 846 OFFCURVE",
"834 931 OFFCURVE",
"707 931 CURVE SMOOTH",
"519 931 OFFCURVE",
"435 823 OFFCURVE",
"435 639 CURVE",
"465 0 LINE",
"150 0 LINE",
"180 1129 LINE",
"426 1129 LINE",
"426 1040 LINE",
"454 1059 OFFCURVE",
"483 1075 OFFCURVE",
"515 1094 CURVE",
"576 1127 OFFCURVE",
"646 1145 OFFCURVE",
"726 1145 CURVE SMOOTH",
"987 1145 OFFCURVE",
"1122 974 OFFCURVE",
"1138 670 CURVE SMOOTH"
);
}
);
width = 1318;
}
);
unicode = 006E;
},
{
glyphname = o;
lastChange = "2013-04-20 00:24:57 -0400";
layers = (
{
anchors = (
{
name = horncomb;
position = "{1023, 706}";
},
{
name = top;
position = "{666, 1120}";
}
);
layerId = "D5D14868-B3D8-4E08-9530-062F6179E82D";
name = Bold;
paths = (
{
closed = 1;
nodes = (
"508 944 OFFCURVE",
"405 813 OFFCURVE",
"405 589 CURVE SMOOTH",
"405 373 OFFCURVE",
"495 344 OFFCURVE",
"667 344 CURVE SMOOTH",
"750 344 OFFCURVE",
"817 361 OFFCURVE",
"864 388 CURVE",
"906 415 OFFCURVE",
"927 482 OFFCURVE",
"927 589 CURVE SMOOTH",
"927 814 OFFCURVE",
"824 944 OFFCURVE",
"667 944 CURVE SMOOTH"
);
},
{
closed = 1;
nodes = (
"988 1145 OFFCURVE",
"1184 919 OFFCURVE",
"1184 559 CURVE SMOOTH",
"1184 199 OFFCURVE",
"988 -27 OFFCURVE",
"667 -27 CURVE SMOOTH",
"504 -27 OFFCURVE",
"377 26 OFFCURVE",
"286 132 CURVE SMOOTH",
"194 236 OFFCURVE",
"150 378 OFFCURVE",
"150 559 CURVE SMOOTH",
"150 740 OFFCURVE",
"194 882 OFFCURVE",
"286 987 CURVE SMOOTH",
"377 1092 OFFCURVE",
"504 1145 OFFCURVE",
"667 1145 CURVE SMOOTH"
);
}
);
width = 1334;
}
);
unicode = 006F;
},
{
glyphname = p;
lastChange = "2012-11-08 01:22:15 -0500";
layers = (
{
layerId = "D5D14868-B3D8-4E08-9530-062F6179E82D";
name = Bold;
paths = (
{
closed = 1;
nodes = (
"397 -398 LINE",
"100 -398 LINE",
"163 120 LINE",
"189 1120 LINE",
"439 1120 LINE",
"433 1049 LINE",
"505 1113 OFFCURVE",
"599 1145 OFFCURVE",
"714 1145 CURVE SMOOTH",
"990 1145 OFFCURVE",
"1179 904 OFFCURVE",
"1179 559 CURVE SMOOTH",
"1179 214 OFFCURVE",
"990 -27 OFFCURVE",
"714 -27 CURVE SMOOTH",
"589 -27 OFFCURVE",
"490 11 OFFCURVE",
"414 86 CURVE"
);
},
{
closed = 1;
nodes = (
"995 708 OFFCURVE",
"970 798 OFFCURVE",
"923 863 CURVE SMOOTH",
"878 926 OFFCURVE",
"817 957 OFFCURVE",
"740 957 CURVE SMOOTH",
"663 957 OFFCURVE",
"602 926 OFFCURVE",
"555 863 CURVE",
"556 864 LINE",
"509 799 OFFCURVE",
"485 707 OFFCURVE",
"485 589 CURVE SMOOTH",
"485 362 OFFCURVE",
"584 330 OFFCURVE",
"749 330 CURVE SMOOTH",
"916 330 OFFCURVE",
"995 361 OFFCURVE",
"995 589 CURVE SMOOTH"
);
}
);
width = 1329;
}
);
unicode = 0070;
},
{
glyphname = q;
lastChange = "2012-10-18 22:31:24 -0400";
layers = (
{
layerId = "D5D14868-B3D8-4E08-9530-062F6179E82D";
name = Bold;
paths = (
{
closed = 1;
nodes = (
"338 359 OFFCURVE",
"423 334 OFFCURVE",
"588 334 CURVE SMOOTH",
"672 334 OFFCURVE",
"738 348 OFFCURVE",
"785 377 CURVE SMOOTH",
"828 402 OFFCURVE",
"849 471 OFFCURVE",
"849 583 CURVE SMOOTH",
"849 700 OFFCURVE",
"825 791 OFFCURVE",
"778 858 CURVE",
"731 920 OFFCURVE",
"670 951 OFFCURVE",
"593 951 CURVE SMOOTH",
"516 951 OFFCURVE",
"455 920 OFFCURVE",
"408 858 CURVE",
"409 859 LINE",
"362 792 OFFCURVE",
"338 702 OFFCURVE",
"338 583 CURVE SMOOTH"
);
},
{
closed = 1;
nodes = (
"1224 -126 LINE SMOOTH",
"1277 -203 OFFCURVE",
"1340 -301 OFFCURVE",
"1395 -329 CURVE",
"1210 -379 LINE SMOOTH",
"1149 -395 OFFCURVE",
"1129 -398 OFFCURVE",
"1106 -398 CURVE SMOOTH",
"893 -398 LINE",
"909 79 LINE",
"833 3 OFFCURVE",
"742 -27 OFFCURVE",
"615 -27 CURVE SMOOTH",
"336 -27 OFFCURVE",
"150 212 OFFCURVE",
"150 559 CURVE SMOOTH",
"150 906 OFFCURVE",
"336 1145 OFFCURVE",
"615 1145 CURVE SMOOTH",
"748 1145 OFFCURVE",
"847 1108 OFFCURVE",
"923 1024 CURVE",
"928 1059 OFFCURVE",
"932 1093 OFFCURVE",
"935 1120 CURVE",
"1178 1120 LINE",
"1125 84 LINE SMOOTH",
"1124 69 OFFCURVE",
"1128 13 OFFCURVE",
"1133 6 CURVE SMOOTH"
);
}
);
width = 1545;
}
);
unicode = 0071;
},
{
glyphname = r;
lastChange = "2012-10-18 22:31:24 -0400";
layers = (
{
anchors = (
{
name = bottom;
position = "{375, 0}";
},
{
name = top;
position = "{375, 1120}";
}
);
layerId = "D5D14868-B3D8-4E08-9530-062F6179E82D";
name = Bold;
paths = (
{
closed = 1;
nodes = (
"829 838 LINE",
"786 863 OFFCURVE",
"758 875 OFFCURVE",
"733 882 CURVE SMOOTH",
"708 889 OFFCURVE",
"687 889 OFFCURVE",
"663 889 CURVE SMOOTH",
"580 889 OFFCURVE",
"521 861 OFFCURVE",
"485 806 CURVE",
"485 807 LINE",
"446 746 OFFCURVE",
"427 664 OFFCURVE",
"427 561 CURVE",
"447 0 LINE",
"150 0 LINE",
"200 1111 LINE",
"427 1111 LINE",
"427 1037 LINE",
"435 1042 OFFCURVE",
"444 1048 OFFCURVE",
"454 1053 CURVE SMOOTH",
"464 1058 OFFCURVE",
"474 1064 OFFCURVE",
"484 1071 CURVE",
"484 1070 LINE",
"548 1108 OFFCURVE",
"625 1127 OFFCURVE",
"714 1127 CURVE SMOOTH",
"739 1127 OFFCURVE",
"769 1122 OFFCURVE",
"828 1111 CURVE"
);
}
);
width = 979;
}
);
unicode = 0072;
},
{
glyphname = s;
lastChange = "2012-10-18 22:31:24 -0400";
layers = (
{
anchors = (
{
name = bottom;
position = "{563, 0}";
},
{
name = top;
position = "{563, 1120}";
}
);
layerId = "D5D14868-B3D8-4E08-9530-062F6179E82D";
name = Bold;
paths = (
{
closed = 1;
nodes = (
"968 847 LINE",
"839 912 OFFCURVE",
"722 945 OFFCURVE",
"617 945 CURVE SMOOTH",
"470 945 OFFCURVE",
"389 898 OFFCURVE",
"389 817 CURVE SMOOTH",
"389 784 OFFCURVE",
"401 757 OFFCURVE",
"426 738 CURVE",
"425 738 LINE",
"453 717 OFFCURVE",
"515 695 OFFCURVE",
"599 676 CURVE SMOOTH",
"608 674 OFFCURVE",
"618 672 OFFCURVE",
"628 669 CURVE SMOOTH",
"637 666 OFFCURVE",
"647 664 OFFCURVE",
"656 663 CURVE",
"784 636 OFFCURVE",
"878 595 OFFCURVE",
"934 548 CURVE SMOOTH",
"991 497 OFFCURVE",
"1024 422 OFFCURVE",
"1024 326 CURVE SMOOTH",
"1024 107 OFFCURVE",
"839 -27 OFFCURVE",
"555 -27 CURVE SMOOTH",
"440 -27 OFFCURVE",
"305 -2 OFFCURVE",
"150 49 CURVE",
"150 389 LINE",
"308 307 OFFCURVE",
"444 266 OFFCURVE",
"558 266 CURVE SMOOTH",
"625 266 OFFCURVE",
"674 274 OFFCURVE",
"705 290 CURVE SMOOTH",
"736 305 OFFCURVE",
"753 329 OFFCURVE",
"754 360 CURVE",
"738 387 OFFCURVE",
"725 409 OFFCURVE",
"710 425 CURVE SMOOTH",
"699 436 OFFCURVE",
"645 453 OFFCURVE",
"548 474 CURVE SMOOTH",
"488 488 LINE",
"489 488 LINE",
"265 533 OFFCURVE",
"158 615 OFFCURVE",
"158 800 CURVE SMOOTH",
"158 1023 OFFCURVE",
"314 1145 OFFCURVE",
"597 1145 CURVE SMOOTH",
"729 1145 OFFCURVE",
"852 1124 OFFCURVE",
"968 1077 CURVE"
);
}
);
width = 1174;
}
);
unicode = 0073;
},
{
glyphname = t;
lastChange = "2012-10-18 22:31:24 -0400";
layers = (
{
anchors = (
{
name = bottom;
position = "{501, 0}";
},
{
name = center;
position = "{501, 560}";
}
);
layerId = "D5D14868-B3D8-4E08-9530-062F6179E82D";
name = Bold;
paths = (
{
closed = 1;
nodes = (
"543 1379 LINE",
"534 1120 LINE",
"774 1120 LINE",
"774 912 LINE",
"533 912 LINE",
"523 493 LINE SMOOTH",
"523 418 OFFCURVE",
"531 372 OFFCURVE",
"548 356 CURVE",
"563 339 OFFCURVE",
"602 330 OFFCURVE",
"663 330 CURVE SMOOTH",
"877 330 LINE",
"877 0 LINE",
"663 0 LINE SMOOTH",
"379 0 OFFCURVE",
"267 98 OFFCURVE",
"267 382 CURVE SMOOTH",
"276 912 LINE",
"150 912 LINE",
"150 1120 LINE",
"277 1120 LINE",
"286 1379 LINE"
);
}
);
width = 1027;
}
);
unicode = 0074;
},
{
glyphname = u;
lastChange = "2013-04-22 10:09:33 -0400";
layers = (
{
anchors = (
{
name = horncomb;
position = "{1057, 793}";
},
{
name = ogonek;
position = "{964, 8}";
},
{
name = top;
position = "{642, 1120}";
}
);
layerId = "D5D14868-B3D8-4E08-9530-062F6179E82D";
name = Bold;
paths = (
{
closed = 1;
nodes = (
"150 1120 LINE",
"368 1120 LINE",
"368 608 LINE",
"379 437 OFFCURVE",
"435 346 OFFCURVE",
"562 346 CURVE SMOOTH",
"644 346 OFFCURVE",
"706 371 OFFCURVE",
"749 422 CURVE SMOOTH",
"794 473 OFFCURVE",
"818 551 OFFCURVE",
"825 642 CURVE",
"836 1120 LINE",
"1110 1120 LINE",
"1090 0 LINE",
"841 0 LINE",
"846 85 LINE",
"769 10 OFFCURVE",
"671 -27 OFFCURVE",
"554 -27 CURVE SMOOTH",
"289 -27 OFFCURVE",
"150 137 OFFCURVE",
"150 450 CURVE SMOOTH"
);
}
);
width = 1260;
}
);
unicode = 0075;
},
{
glyphname = v;
lastChange = "2012-10-18 22:31:24 -0400";
layers = (
{
layerId = "D5D14868-B3D8-4E08-9530-062F6179E82D";
name = Bold;
paths = (
{
closed = 1;
nodes = (
"150 1120 LINE",
"411 1120 LINE",
"712 413 LINE",
"761 529 OFFCURVE",
"812 647 OFFCURVE",
"864 768 CURVE SMOOTH",
"916 889 OFFCURVE",
"966 1006 OFFCURVE",
"1014 1120 CURVE",
"1275 1120 LINE",
"866 0 LINE",
"560 0 LINE"
);
}
);
width = 1425;
}
);
unicode = 0076;
},
{
glyphname = w;
lastChange = "2012-10-18 22:31:24 -0400";
layers = (
{
anchors = (
{
name = top;
position = "{901, 1120}";
}
);
layerId = "D5D14868-B3D8-4E08-9530-062F6179E82D";
name = Bold;
paths = (
{
closed = 1;
nodes = (
"150 1120 LINE",
"399 1120 LINE",
"595 453 LINE",
"757 775 LINE",
"1044 775 LINE",
"1207 453 LINE",
"1239 563 OFFCURVE",
"1272 675 OFFCURVE",
"1305 789 CURVE SMOOTH",
"1338 902 OFFCURVE",
"1370 1013 OFFCURVE",
"1402 1120 CURVE",
"1650 1120 LINE",
"1357 0 LINE",
"1063 0 LINE",
"900 412 LINE",
"728 0 LINE",
"443 0 LINE"
);
}
);
width = 1800;
}
);
unicode = 0077;
},
{
glyphname = x;
lastChange = "2012-10-18 22:31:24 -0400";
layers = (
{
layerId = "D5D14868-B3D8-4E08-9530-062F6179E82D";
name = Bold;
paths = (
{
closed = 1;
nodes = (
"1312 1120 LINE",
"921 530 LINE",
"954 490 OFFCURVE",
"990 447 OFFCURVE",
"1028 402 CURVE SMOOTH",
"1066 356 OFFCURVE",
"1104 310 OFFCURVE",
"1143 264 CURVE SMOOTH",
"1182 217 OFFCURVE",
"1220 172 OFFCURVE",
"1257 127 CURVE SMOOTH",
"1294 82 OFFCURVE",
"1329 39 OFFCURVE",
"1362 0 CURVE",
"985 0 LINE",
"764 335 LINE",
"527 0 LINE",
"150 0 LINE",
"599 540 LINE",
"215 1120 LINE",
"487 1120 LINE",
"755 720 LINE",
"803 785 OFFCURVE",
"852 852 OFFCURVE",
"903 921 CURVE SMOOTH",
"954 989 OFFCURVE",
"1003 1055 OFFCURVE",
"1050 1120 CURVE"
);
}
);
width = 1512;
}
);
unicode = 0078;
},
{
glyphname = y;
lastChange = "2012-10-18 22:31:24 -0400";
layers = (
{
anchors = (
{
name = top;
position = "{616, 1120}";
}
);
layerId = "D5D14868-B3D8-4E08-9530-062F6179E82D";
name = Bold;
paths = (
{
closed = 1;
nodes = (
"819 -74 LINE",
"694 -359 OFFCURVE",
"592 -416 OFFCURVE",
"420 -416 CURVE SMOOTH",
"227 -416 LINE",
"227 -114 LINE",
"384 -114 LINE SMOOTH",
"421 -114 OFFCURVE",
"451 -105 OFFCURVE",
"470 -90 CURVE",
"493 -70 OFFCURVE",
"520 -42 OFFCURVE",
"547 -7 CURVE",
"558 16 OFFCURVE",
"570 38 OFFCURVE",
"581 59 CURVE SMOOTH",
"592 80 OFFCURVE",
"603 102 OFFCURVE",
"614 125 CURVE",
"577 204 OFFCURVE",
"539 285 OFFCURVE",
"500 369 CURVE SMOOTH",
"421 537 OFFCURVE",
"342 708 OFFCURVE",
"264 876 CURVE SMOOTH",
"225 960 OFFCURVE",
"187 1041 OFFCURVE",
"150 1120 CURVE",
"410 1120 LINE",
"755 553 LINE",
"1020 1120 LINE",
"1279 1120 LINE"
);
}
);
width = 1429;
}
);
unicode = 0079;
},
{
glyphname = z;
lastChange = "2012-10-18 22:31:24 -0400";
layers = (
{
anchors = (
{
name = top;
position = "{626, 1120}";
}
);
layerId = "D5D14868-B3D8-4E08-9530-062F6179E82D";
name = Bold;
paths = (
{
closed = 1;
nodes = (
"192 1120 LINE",
"1073 1120 LINE",
"1073 911 LINE",
"529 305 LINE",
"1063 305 LINE",
"1063 0 LINE",
"150 0 LINE",
"150 302 LINE",
"763 917 LINE",
"192 917 LINE"
);
}
);
width = 1223;
}
);
unicode = 007A;
},
{
glyphname = braceleft;
lastChange = "2012-10-18 22:31:24 -0400";
layers = (
{
layerId = "D5D14868-B3D8-4E08-9530-062F6179E82D";
name = Bold;
paths = (
{
closed = 1;
nodes = (
"951 -60 LINE",
"949 -325 LINE",
"853 -324 LINE SMOOTH",
"693 -321 OFFCURVE",
"580 -289 OFFCURVE",
"521 -238 CURVE",
"469 -183 OFFCURVE",
"436 -80 OFFCURVE",
"432 65 CURVE",
"435 286 LINE",
"427 459 OFFCURVE",
"398 500 OFFCURVE",
"243 504 CURVE SMOOTH",
"238 504 OFFCURVE",
"232 504 OFFCURVE",
"223 504 CURVE SMOOTH",
"214 504 OFFCURVE",
"205 504 OFFCURVE",
"196 505 CURVE",
"187 505 OFFCURVE",
"178 505 OFFCURVE",
"170 505 CURVE SMOOTH",
"161 505 OFFCURVE",
"155 505 OFFCURVE",
"150 505 CURVE",
"152 713 LINE",
"244 712 LINE",
"324 717 OFFCURVE",
"378 731 OFFCURVE",
"405 756 CURVE SMOOTH",
"431 781 OFFCURVE",
"445 835 OFFCURVE",
"447 917 CURVE SMOOTH",
"450 1141 LINE SMOOTH",
"455 1438 OFFCURVE",
"555 1507 OFFCURVE",
"883 1515 CURVE SMOOTH",
"980 1514 LINE",
"976 1306 LINE",
"877 1307 LINE",
"706 1296 OFFCURVE",
"702 1290 OFFCURVE",
"698 1133 CURVE",
"698 1134 LINE",
"694 902 LINE SMOOTH",
"692 799 OFFCURVE",
"674 721 OFFCURVE",
"641 670 CURVE SMOOTH",
"622 641 OFFCURVE",
"597 618 OFFCURVE",
"566 601 CURVE",
"595 582 OFFCURVE",
"618 557 OFFCURVE",
"635 526 CURVE",
"635 527 LINE",
"662 477 OFFCURVE",
"678 407 OFFCURVE",
"683 316 CURVE",
"679 86 LINE",
"684 33 OFFCURVE",
"693 -7 OFFCURVE",
"712 -27 CURVE",
"727 -46 OFFCURVE",
"774 -57 OFFCURVE",
"851 -59 CURVE SMOOTH"
);
}
);
width = 1130;
}
);
unicode = 007B;
},
{
glyphname = bar;
lastChange = "2012-10-18 22:31:24 -0400";
layers = (
{
layerId = "D5D14868-B3D8-4E08-9530-062F6179E82D";
name = Bold;
paths = (
{
closed = 1;
nodes = (
"403 -451 LINE",
"150 -451 LINE",
"200 566 LINE",
"432 566 LINE"
);
},
{
closed = 1;
nodes = (
"197 591 LINE",
"237 1535 LINE",
"471 1535 LINE",
"431 591 LINE"
);
}
);
width = 621;
}
);
unicode = 007C;
},
{
glyphname = braceright;
lastChange = "2012-10-18 22:31:24 -0400";
layers = (
{
layerId = "D5D14868-B3D8-4E08-9530-062F6179E82D";
name = Bold;
paths = (
{
closed = 1;
nodes = (
"150 -93 LINE",
"253 -93 LINE SMOOTH",
"406 -93 OFFCURVE",
"425 -74 OFFCURVE",
"425 83 CURVE SMOOTH",
"425 315 LINE SMOOTH",
"425 414 OFFCURVE",
"441 488 OFFCURVE",
"473 538 CURVE SMOOTH",
"492 566 OFFCURVE",
"515 589 OFFCURVE",
"547 608 CURVE",
"515 627 OFFCURVE",
"492 650 OFFCURVE",
"473 678 CURVE SMOOTH",
"441 728 OFFCURVE",
"425 806 OFFCURVE",
"425 911 CURVE SMOOTH",
"425 1142 LINE SMOOTH",
"425 1298 OFFCURVE",
"404 1319 OFFCURVE",
"253 1319 CURVE SMOOTH",
"150 1319 LINE",
"150 1527 LINE",
"246 1527 LINE SMOOTH",
"411 1527 OFFCURVE",
"523 1501 OFFCURVE",
"581 1449 CURVE",
"580 1449 LINE",
"641 1395 OFFCURVE",
"672 1294 OFFCURVE",
"672 1146 CURVE SMOOTH",
"672 922 LINE SMOOTH",
"672 839 OFFCURVE",
"685 783 OFFCURVE",
"712 754 CURVE",
"712 755 LINE",
"739 727 OFFCURVE",
"791 713 OFFCURVE",
"868 713 CURVE SMOOTH",
"963 713 LINE",
"963 505 LINE",
"868 505 LINE SMOOTH",
"712 505 OFFCURVE",
"672 462 OFFCURVE",
"672 293 CURVE SMOOTH",
"672 70 LINE SMOOTH",
"672 -79 OFFCURVE",
"641 -180 OFFCURVE",
"580 -233 CURVE",
"581 -233 LINE",
"524 -286 OFFCURVE",
"412 -312 OFFCURVE",
"246 -312 CURVE SMOOTH",
"150 -312 LINE"
);
}
);
width = 1113;
}
);
unicode = 007D;
},
{
glyphname = asciitilde;
lastChange = "2012-10-18 22:31:24 -0400";
layers = (
{
layerId = "D5D14868-B3D8-4E08-9530-062F6179E82D";
name = Bold;
paths = (
{
closed = 1;
nodes = (
"1421 634 LINE",
"1389 609 OFFCURVE",
"1353 582 OFFCURVE",
"1318 558 CURVE SMOOTH",
"1283 533 OFFCURVE",
"1250 509 OFFCURVE",
"1222 492 CURVE",
"1222 493 LINE",
"1159 452 OFFCURVE",
"1095 431 OFFCURVE",
"1028 431 CURVE SMOOTH",
"953 431 OFFCURVE",
"868 460 OFFCURVE",
"772 518 CURVE",
"760 523 LINE",
"740 529 LINE",
"647 580 OFFCURVE",
"573 604 OFFCURVE",
"521 604 CURVE SMOOTH",
"474 604 OFFCURVE",
"428 587 OFFCURVE",
"381 552 CURVE SMOOTH",
"354 532 OFFCURVE",
"312 498 OFFCURVE",
"268 462 CURVE SMOOTH",
"224 426 OFFCURVE",
"179 389 OFFCURVE",
"150 364 CURVE",
"150 658 LINE",
"223 714 OFFCURVE",
"290 753 OFFCURVE",
"354 778 CURVE SMOOTH",
"417 803 OFFCURVE",
"479 815 OFFCURVE",
"543 815 CURVE SMOOTH",
"615 815 OFFCURVE",
"699 795 OFFCURVE",
"796 756 CURVE SMOOTH",
"810 750 LINE",
"813 749 OFFCURVE",
"817 748 OFFCURVE",
"821 747 CURVE",
"825 745 OFFCURVE",
"829 743 OFFCURVE",
"832 742 CURVE",
"923 707 OFFCURVE",
"993 688 OFFCURVE",
"1049 688 CURVE SMOOTH",
"1146 688 OFFCURVE",
"1258 745 OFFCURVE",
"1421 878 CURVE"
);
}
);
width = 1571;
}
);
unicode = 007E;
},
{
glyphname = exclamdown;
lastChange = "2012-10-18 22:31:24 -0400";
layers = (
{
layerId = "D5D14868-B3D8-4E08-9530-062F6179E82D";
name = Bold;
paths = (
{
closed = 1;
nodes = (
"462 1138 LINE",
"160 1138 LINE",
"160 1468 LINE",
"462 1468 LINE"
);
},
{
closed = 1;
nodes = (
"472 0 LINE",
"150 0 LINE",
"160 650 LINE",
"182 1019 LINE",
"441 1019 LINE",
"462 650 LINE"
);
}
);
width = 622;
}
);
unicode = 00A1;
},
{
glyphname = cent;
lastChange = "2012-10-18 22:31:30 -0400";
layers = (
{
layerId = "D5D14868-B3D8-4E08-9530-062F6179E82D";
name = Bold;
paths = (
{
closed = 1;
nodes = (
"630 933 LINE",
"563 914 OFFCURVE",
"511 870 OFFCURVE",
"472 806 CURVE SMOOTH",
"433 741 OFFCURVE",
"411 655 OFFCURVE",
"407 554 CURVE",
"408 479 OFFCURVE",
"428 406 OFFCURVE",
"471 357 CURVE",
"470 357 LINE",
"506 314 OFFCURVE",
"557 286 OFFCURVE",
"617 271 CURVE"
);
},
{
closed = 1;
nodes = (
"1059 831 LINE",
"947 895 OFFCURVE",
"867 930 OFFCURVE",
"800 939 CURVE",
"788 261 LINE",
"863 273 OFFCURVE",
"946 305 OFFCURVE",
"1050 357 CURVE",
"1044 37 LINE",
"956 0 OFFCURVE",
"871 -23 OFFCURVE",
"783 -34 CURVE",
"782 -77 OFFCURVE",
"782 -122 OFFCURVE",
"781 -169 CURVE SMOOTH",
"780 -216 OFFCURVE",
"779 -261 OFFCURVE",
"778 -302 CURVE",
"609 -301 LINE",
"613 -27 LINE",
"471 -7 OFFCURVE",
"359 52 OFFCURVE",
"276 149 CURVE SMOOTH",
"190 253 OFFCURVE",
"148 390 OFFCURVE",
"150 560 CURVE SMOOTH",
"153 732 OFFCURVE",
"201 865 OFFCURVE",
"290 965 CURVE SMOOTH",
"375 1061 OFFCURVE",
"485 1115 OFFCURVE",
"633 1132 CURVE",
"634 1176 OFFCURVE",
"635 1222 OFFCURVE",
"636 1269 CURVE SMOOTH",
"637 1316 OFFCURVE",
"637 1361 OFFCURVE",
"638 1403 CURVE",
"808 1401 LINE",
"804 1129 LINE",
"888 1118 OFFCURVE",
"972 1094 OFFCURVE",
"1061 1051 CURVE"
);
}
);
width = 1211;
}
);
unicode = 00A2;
},
{
glyphname = sterling;
lastChange = "2012-10-18 22:31:24 -0400";
layers = (
{
layerId = "D5D14868-B3D8-4E08-9530-062F6179E82D";
name = Bold;
paths = (
{
closed = 1;
nodes = (
"1166 1151 LINE",
"1042 1219 OFFCURVE",
"946 1255 OFFCURVE",
"878 1258 CURVE",
"715 1247 OFFCURVE",
"666 1204 OFFCURVE",
"658 956 CURVE SMOOTH",
"654 793 LINE",
"711 792 OFFCURVE",
"775 790 OFFCURVE",
"838 790 CURVE SMOOTH",
"901 789 OFFCURVE",
"963 787 OFFCURVE",
"1018 786 CURVE",
"1014 596 LINE",
"649 604 LINE",
"648 545 OFFCURVE",
"647 493 OFFCURVE",
"645 441 CURVE SMOOTH",
"643 388 OFFCURVE",
"640 334 OFFCURVE",
"639 273 CURVE",
"1159 263 LINE",
"1152 -17 LINE",
"150 1 LINE",
"158 281 LINE",
"378 276 LINE",
"379 335 OFFCURVE",
"381 387 OFFCURVE",
"383 440 CURVE SMOOTH",
"385 492 OFFCURVE",
"386 545 OFFCURVE",
"387 608 CURVE",
"202 611 LINE",
"206 801 LINE",
"392 798 LINE",
"398 983 LINE SMOOTH",
"402 1156 OFFCURVE",
"442 1281 OFFCURVE",
"517 1358 CURVE SMOOTH",
"592 1437 OFFCURVE",
"707 1478 OFFCURVE",
"863 1482 CURVE",
"944 1481 OFFCURVE",
"1055 1454 OFFCURVE",
"1172 1409 CURVE"
);
}
);
width = 1322;
}
);
unicode = 00A3;
},
{
glyphname = currency;
lastChange = "2012-10-18 22:31:24 -0400";
layers = (
{
layerId = "D5D14868-B3D8-4E08-9530-062F6179E82D";
name = Bold;
paths = (
{
closed = 1;
nodes = (
"1140 1211 LINE",
"1298 1052 LINE",
"1100 854 LINE",
"1139 784 OFFCURVE",
"1159 711 OFFCURVE",
"1159 636 CURVE SMOOTH",
"1159 556 OFFCURVE",
"1140 492 OFFCURVE",
"1097 421 CURVE",
"1297 222 LINE",
"1138 65 LINE",
"940 263 LINE",
"868 220 OFFCURVE",
"797 201 OFFCURVE",
"724 201 CURVE SMOOTH",
"651 201 OFFCURVE",
"579 221 OFFCURVE",
"507 260 CURVE",
"307 61 LINE",
"150 221 LINE",
"349 420 LINE",
"309 495 OFFCURVE",
"289 567 OFFCURVE",
"289 636 CURVE SMOOTH",
"289 712 OFFCURVE",
"310 782 OFFCURVE",
"350 850 CURVE",
"334 865 OFFCURVE",
"318 882 OFFCURVE",
"301 899 CURVE SMOOTH",
"284 916 OFFCURVE",
"266 934 OFFCURVE",
"249 951 CURVE SMOOTH",
"232 968 OFFCURVE",
"215 985 OFFCURVE",
"199 1002 CURVE SMOOTH",
"182 1019 OFFCURVE",
"167 1034 OFFCURVE",
"152 1048 CURVE",
"312 1208 LINE",
"510 1010 LINE",
"577 1051 OFFCURVE",
"649 1071 OFFCURVE",
"724 1071 CURVE SMOOTH",
"796 1071 OFFCURVE",
"869 1050 OFFCURVE",
"941 1011 CURVE"
);
},
{
closed = 1;
nodes = (
"938 757 OFFCURVE",
"845 848 OFFCURVE",
"724 848 CURVE SMOOTH",
"607 848 OFFCURVE",
"510 758 OFFCURVE",
"510 637 CURVE SMOOTH",
"510 576 OFFCURVE",
"530 525 OFFCURVE",
"571 484 CURVE",
"571 485 LINE",
"612 444 OFFCURVE",
"663 423 OFFCURVE",
"724 423 CURVE SMOOTH",
"785 423 OFFCURVE",
"835 443 OFFCURVE",
"876 484 CURVE",
"875 484 LINE",
"917 526 OFFCURVE",
"938 577 OFFCURVE",
"938 637 CURVE SMOOTH"
);
}
);
width = 1448;
}
);
unicode = 00A4;
},
{
glyphname = yen;
lastChange = "2012-10-18 22:31:24 -0400";
layers = (
{
layerId = "D5D14868-B3D8-4E08-9530-062F6179E82D";
name = Bold;
paths = (
{
closed = 1;
nodes = (
"1279 387 LINE",
"894 387 LINE",
"895 356 OFFCURVE",
"897 325 OFFCURVE",
"899 292 CURVE SMOOTH",
"901 259 OFFCURVE",
"903 225 OFFCURVE",
"905 192 CURVE SMOOTH",
"906 159 OFFCURVE",
"908 126 OFFCURVE",
"910 93 CURVE SMOOTH",
"911 60 OFFCURVE",
"913 29 OFFCURVE",
"914 0 CURVE",
"591 0 LINE",
"619 387 LINE",
"233 387 LINE",
"233 614 LINE",
"622 614 LINE",
"608 635 OFFCURVE",
"595 655 OFFCURVE",
"583 673 CURVE",
"570 690 OFFCURVE",
"557 710 OFFCURVE",
"542 732 CURVE",
"215 732 LINE",
"215 921 LINE",
"438 921 LINE",
"150 1468 LINE",
"430 1468 LINE",
"752 857 LINE",
"805 958 OFFCURVE",
"858 1060 OFFCURVE",
"913 1164 CURVE SMOOTH",
"967 1267 OFFCURVE",
"1020 1369 OFFCURVE",
"1072 1468 CURVE",
"1354 1468 LINE",
"1057 921 LINE",
"1279 921 LINE",
"1279 732 LINE",
"955 732 LINE",
"891 615 LINE",
"891 614 LINE",
"1279 614 LINE"
);
}
);
width = 1504;
}
);
unicode = 00A5;
},
{
glyphname = brokenbar;
lastChange = "2012-10-18 22:31:24 -0400";
layers = (
{
layerId = "D5D14868-B3D8-4E08-9530-062F6179E82D";
name = Bold;
paths = (
{
closed = 1;
nodes = (
"383 455 LINE",
"383 -327 LINE",
"150 -327 LINE",
"150 455 LINE"
);
},
{
closed = 1;
nodes = (
"383 1411 LINE",
"383 629 LINE",
"150 629 LINE",
"150 1411 LINE"
);
}
);
width = 533;
}
);
unicode = 00A6;
},
{
glyphname = section;
lastChange = "2012-10-18 22:31:24 -0400";
layers = (
{
layerId = "D5D14868-B3D8-4E08-9530-062F6179E82D";
name = Bold;
paths = (
{
closed = 1;
nodes = (
"477 903 LINE",
"458 889 LINE",
"437 901 LINE"
);
},
{
closed = 1;
nodes = (
"684 758 OFFCURVE",
"597 813 OFFCURVE",
"458 889 CURVE",
"403 846 OFFCURVE",
"375 804 OFFCURVE",
"375 763 CURVE SMOOTH",
"375 727 OFFCURVE",
"393 692 OFFCURVE",
"429 657 CURVE",
"428 657 LINE",
"469 620 OFFCURVE",
"550 567 OFFCURVE",
"697 486 CURVE",
"752 529 OFFCURVE",
"780 571 OFFCURVE",
"780 612 CURVE SMOOTH",
"780 649 OFFCURVE",
"761 684 OFFCURVE",
"724 719 CURVE SMOOTH"
);
},
{
closed = 1;
nodes = (
"912 1190 LINE",
"777 1254 OFFCURVE",
"676 1284 OFFCURVE",
"612 1284 CURVE SMOOTH",
"513 1284 OFFCURVE",
"458 1246 OFFCURVE",
"458 1181 CURVE SMOOTH",
"458 1140 OFFCURVE",
"516 1087 OFFCURVE",
"631 1022 CURVE",
"630 1022 LINE",
"668 1001 LINE SMOOTH",
"803 924 OFFCURVE",
"893 860 OFFCURVE",
"936 809 CURVE",
"935 809 LINE",
"982 754 OFFCURVE",
"1006 691 OFFCURVE",
"1006 619 CURVE SMOOTH",
"1006 508 OFFCURVE",
"957 418 OFFCURVE",
"858 349 CURVE",
"918 286 OFFCURVE",
"945 221 OFFCURVE",
"945 145 CURVE SMOOTH",
"945 -54 OFFCURVE",
"789 -182 OFFCURVE",
"556 -182 CURVE SMOOTH",
"460 -182 OFFCURVE",
"355 -161 OFFCURVE",
"224 -118 CURVE",
"224 167 LINE",
"364 104 OFFCURVE",
"468 74 OFFCURVE",
"535 74 CURVE SMOOTH",
"639 74 OFFCURVE",
"698 91 OFFCURVE",
"698 158 CURVE SMOOTH",
"698 193 OFFCURVE",
"636 246 OFFCURVE",
"512 316 CURVE",
"513 315 LINE",
"488 329 LINE SMOOTH",
"212 482 OFFCURVE",
"150 564 OFFCURVE",
"150 712 CURVE SMOOTH",
"150 820 OFFCURVE",
"203 917 OFFCURVE",
"295 982 CURVE",
"242 1038 OFFCURVE",
"211 1107 OFFCURVE",
"211 1186 CURVE SMOOTH",
"211 1281 OFFCURVE",
"246 1353 OFFCURVE",
"318 1410 CURVE SMOOTH",
"389 1465 OFFCURVE",
"479 1493 OFFCURVE",
"590 1493 CURVE SMOOTH",
"683 1493 OFFCURVE",
"791 1472 OFFCURVE",
"912 1427 CURVE"
);
}
);
width = 1156;
}
);
unicode = 00A7;
},
{
glyphname = dieresis;
lastChange = "2013-04-20 00:34:22 -0400";
layers = (
{
anchors = (
{
name = _top;
position = "{485, 946}";
}
);
layerId = "D5D14868-B3D8-4E08-9530-062F6179E82D";
name = Bold;
paths = (
{
closed = 1;
nodes = (
"541 1537 LINE",
"819 1537 LINE",
"819 1260 LINE",
"541 1260 LINE"
);
},
{
closed = 1;
nodes = (
"150 1537 LINE",
"428 1537 LINE",
"428 1260 LINE",
"150 1260 LINE"
);
}
);
width = 969;
}
);
unicode = 00A8;
},
{
glyphname = copyright;
lastChange = "2012-10-18 22:31:24 -0400";
layers = (
{
layerId = "D5D14868-B3D8-4E08-9530-062F6179E82D";
name = Bold;
paths = (
{
closed = 1;
nodes = (
"1278 1461 OFFCURVE",
"1608 1132 OFFCURVE",
"1608 729 CURVE SMOOTH",
"1608 329 OFFCURVE",
"1278 0 OFFCURVE",
"879 0 CURVE SMOOTH",
"678 0 OFFCURVE",
"507 72 OFFCURVE",
"364 216 CURVE SMOOTH",
"221 358 OFFCURVE",
"150 529 OFFCURVE",
"150 729 CURVE SMOOTH",
"150 1132 OFFCURVE",
"478 1461 OFFCURVE",
"879 1461 CURVE SMOOTH"
);
},
{
closed = 1;
nodes = (
"725 1290 OFFCURVE",
"593 1235 OFFCURVE",
"484 1126 CURVE SMOOTH",
"375 1015 OFFCURVE",
"318 881 OFFCURVE",
"318 729 CURVE SMOOTH",
"318 580 OFFCURVE",
"374 464 OFFCURVE",
"483 365 CURVE",
"478 368 LINE",
"591 292 OFFCURVE",
"723 245 OFFCURVE",
"879 245 CURVE SMOOTH",
"1036 245 OFFCURVE",
"1169 292 OFFCURVE",
"1281 368 CURVE",
"1278 367 LINE",
"1386 451 OFFCURVE",
"1438 577 OFFCURVE",
"1438 729 CURVE SMOOTH",
"1438 884 OFFCURVE",
"1384 1016 OFFCURVE",
"1276 1126 CURVE SMOOTH",
"1165 1235 OFFCURVE",
"1033 1290 OFFCURVE",
"879 1290 CURVE SMOOTH"
);
},
{
closed = 1;
nodes = (
"1195 945 LINE",
"1080 1002 OFFCURVE",
"989 1029 OFFCURVE",
"913 1029 CURVE SMOOTH",
"833 1029 OFFCURVE",
"769 1000 OFFCURVE",
"725 947 CURVE SMOOTH",
"679 890 OFFCURVE",
"656 817 OFFCURVE",
"656 729 CURVE SMOOTH",
"656 624 OFFCURVE",
"752 511 OFFCURVE",
"923 511 CURVE SMOOTH",
"996 511 OFFCURVE",
"1079 537 OFFCURVE",
"1195 596 CURVE",
"1195 336 LINE",
"1091 289 OFFCURVE",
"994 270 OFFCURVE",
"902 270 CURVE SMOOTH",
"614 270 OFFCURVE",
"429 449 OFFCURVE",
"429 729 CURVE SMOOTH",
"429 1009 OFFCURVE",
"611 1187 OFFCURVE",
"902 1187 CURVE SMOOTH",
"998 1187 OFFCURVE",
"1095 1165 OFFCURVE",
"1195 1124 CURVE"
);
}
);
width = 1758;
}
);
unicode = 00A9;
},
{
glyphname = ordfeminine;
lastChange = "2012-10-18 22:31:24 -0400";
layers = (
{
layerId = "D5D14868-B3D8-4E08-9530-062F6179E82D";
name = Bold;
paths = (
{
closed = 1;
nodes = (
"172 627 LINE",
"889 627 LINE",
"889 438 LINE",
"172 438 LINE"
);
},
{
closed = 1;
nodes = (
"887 669 LINE",
"673 669 LINE",
"673 720 LINE",
"613 674 OFFCURVE",
"538 651 OFFCURVE",
"448 651 CURVE SMOOTH",
"271 651 OFFCURVE",
"150 757 OFFCURVE",
"150 920 CURVE SMOOTH",
"150 1115 OFFCURVE",
"280 1212 OFFCURVE",
"541 1212 CURVE SMOOTH",
"670 1212 LINE",
"655 1278 OFFCURVE",
"595 1311 OFFCURVE",
"492 1311 CURVE SMOOTH",
"420 1311 OFFCURVE",
"323 1281 OFFCURVE",
"207 1225 CURVE",
"207 1429 LINE",
"319 1472 OFFCURVE",
"421 1493 OFFCURVE",
"512 1493 CURVE SMOOTH",
"767 1493 OFFCURVE",
"887 1374 OFFCURVE",
"887 1125 CURVE SMOOTH"
);
},
{
closed = 1;
nodes = (
"664 1091 LINE",
"664 1101 LINE",
"664 1128 LINE",
"701 1091 LINE"
);
},
{
closed = 1;
nodes = (
"645 989 OFFCURVE",
"662 1035 OFFCURVE",
"664 1091 CURVE",
"583 1091 LINE SMOOTH",
"488 1091 OFFCURVE",
"426 1083 OFFCURVE",
"391 1064 CURVE SMOOTH",
"365 1050 OFFCURVE",
"352 1026 OFFCURVE",
"352 992 CURVE SMOOTH",
"352 935 OFFCURVE",
"403 898 OFFCURVE",
"483 898 CURVE SMOOTH",
"536 898 OFFCURVE",
"580 916 OFFCURVE",
"613 953 CURVE SMOOTH"
);
}
);
width = 1039;
}
);
unicode = 00AA;
},
{
glyphname = guillemotleft;
lastChange = "2012-10-18 22:31:24 -0400";
layers = (
{
layerId = "D5D14868-B3D8-4E08-9530-062F6179E82D";
name = Bold;
paths = (
{
closed = 1;
nodes = (
"1131 1077 LINE",
"1121 798 LINE",
"851 574 LINE",
"893 534 OFFCURVE",
"936 493 OFFCURVE",
"981 451 CURVE SMOOTH",
"1025 408 OFFCURVE",
"1067 368 OFFCURVE",
"1108 329 CURVE",
"1045 29 LINE",
"555 497 LINE",
"608 642 LINE"
);
},
{
closed = 1;
nodes = (
"726 1091 LINE",
"716 813 LINE",
"446 589 LINE",
"530 509 OFFCURVE",
"622 422 OFFCURVE",
"703 343 CURVE",
"640 43 LINE",
"150 511 LINE",
"203 656 LINE"
);
}
);
width = 1281;
}
);
unicode = 00AB;
},
{
glyphname = logicalnot;
lastChange = "2012-10-18 22:31:24 -0400";
layers = (
{
layerId = "D5D14868-B3D8-4E08-9530-062F6179E82D";
name = Bold;
paths = (
{
closed = 1;
nodes = (
"150 879 LINE",
"1420 879 LINE",
"1451 268 LINE",
"1139 268 LINE",
"1185 646 LINE",
"1016 643 OFFCURVE",
"844 639 OFFCURVE",
"667 636 CURVE SMOOTH",
"490 633 OFFCURVE",
"317 629 OFFCURVE",
"150 626 CURVE"
);
}
);
width = 1601;
}
);
unicode = 00AC;
},
{
glyphname = registered;
lastChange = "2012-10-18 22:31:24 -0400";
layers = (
{
layerId = "D5D14868-B3D8-4E08-9530-062F6179E82D";
name = Bold;
paths = (
{
closed = 1;
nodes = (
"572 1290 OFFCURVE",
"318 1055 OFFCURVE",
"318 775 CURVE SMOOTH",
"318 496 OFFCURVE",
"571 260 OFFCURVE",
"879 260 CURVE SMOOTH",
"1188 260 OFFCURVE",
"1438 492 OFFCURVE",
"1438 775 CURVE SMOOTH",
"1438 914 OFFCURVE",
"1377 1039 OFFCURVE",
"1276 1138 CURVE",
"1169 1233 OFFCURVE",
"1028 1290 OFFCURVE",
"879 1290 CURVE SMOOTH"
);
},
{
closed = 1;
nodes = (
"1278 1461 OFFCURVE",
"1608 1132 OFFCURVE",
"1608 729 CURVE SMOOTH",
"1608 329 OFFCURVE",
"1278 0 OFFCURVE",
"879 0 CURVE SMOOTH",
"678 0 OFFCURVE",
"507 72 OFFCURVE",
"364 216 CURVE SMOOTH",
"221 358 OFFCURVE",
"150 529 OFFCURVE",
"150 729 CURVE SMOOTH",
"150 1132 OFFCURVE",
"478 1461 OFFCURVE",
"879 1461 CURVE SMOOTH"
);
},
{
closed = 1;
nodes = (
"823 1046 LINE",
"823 863 LINE",
"900 863 LINE SMOOTH",
"1021 863 OFFCURVE",
"1047 887 OFFCURVE",
"1047 954 CURVE SMOOTH",
"1047 1021 OFFCURVE",
"1009 1046 OFFCURVE",
"900 1046 CURVE SMOOTH"
);
},
{
closed = 1;
nodes = (
"860 1170 LINE SMOOTH",
"1107 1170 OFFCURVE",
"1224 1086 OFFCURVE",
"1224 909 CURVE SMOOTH",
"1224 805 OFFCURVE",
"1171 732 OFFCURVE",
"1078 693 CURVE",
"1101 665 OFFCURVE",
"1128 628 OFFCURVE",
"1159 581 CURVE",
"1321 315 LINE",
"1074 315 LINE",
"942 528 LINE SMOOTH",
"909 583 OFFCURVE",
"882 617 OFFCURVE",
"863 630 CURVE",
"858 633 OFFCURVE",
"855 635 OFFCURVE",
"852 638 CURVE",
"849 640 OFFCURVE",
"846 642 OFFCURVE",
"844 643 CURVE",
"841 645 OFFCURVE",
"839 647 OFFCURVE",
"838 648 CURVE",
"823 648 LINE",
"823 315 LINE",
"557 315 LINE",
"557 1170 LINE"
);
}
);
width = 1758;
}
);
unicode = 00AE;
},
{
glyphname = macron;
lastChange = "2013-04-20 00:34:31 -0400";
layers = (
{
anchors = (
{
name = _top;
position = "{466, 1221}";
}
);
layerId = "D5D14868-B3D8-4E08-9530-062F6179E82D";
name = Bold;
paths = (
{
closed = 1;
nodes = (
"150 1499 LINE",
"782 1499 LINE",
"782 1286 LINE",
"150 1286 LINE"
);
}
);
width = 932;
}
);
unicode = 00AF;
},
{
glyphname = degree;
lastChange = "2012-10-18 22:31:24 -0400";
layers = (
{
layerId = "D5D14868-B3D8-4E08-9530-062F6179E82D";
name = Bold;
paths = (
{
closed = 1;
nodes = (
"406 1345 OFFCURVE",
"343 1288 OFFCURVE",
"343 1220 CURVE SMOOTH",
"343 1151 OFFCURVE",
"404 1098 OFFCURVE",
"483 1098 CURVE SMOOTH",
"562 1098 OFFCURVE",
"623 1151 OFFCURVE",
"623 1220 CURVE SMOOTH",
"623 1285 OFFCURVE",
"563 1345 OFFCURVE",
"483 1345 CURVE SMOOTH"
);
},
{
closed = 1;
nodes = (
"574 1493 OFFCURVE",
"659 1457 OFFCURVE",
"720 1393 CURVE",
"719 1394 LINE",
"784 1331 OFFCURVE",
"816 1252 OFFCURVE",
"816 1157 CURVE SMOOTH",
"816 1065 OFFCURVE",
"783 986 OFFCURVE",
"718 921 CURVE",
"718 922 LINE",
"654 858 OFFCURVE",
"575 826 OFFCURVE",
"481 826 CURVE SMOOTH",
"293 826 OFFCURVE",
"150 969 OFFCURVE",
"150 1157 CURVE SMOOTH",
"150 1252 OFFCURVE",
"182 1331 OFFCURVE",
"246 1395 CURVE SMOOTH",
"309 1460 OFFCURVE",
"388 1493 OFFCURVE",
"483 1493 CURVE SMOOTH"
);
}
);
width = 966;
}
);
unicode = 00B0;
},
{
glyphname = plusminus;
lastChange = "2012-10-18 22:31:24 -0400";
layers = (
{
layerId = "D5D14868-B3D8-4E08-9530-062F6179E82D";
name = Bold;
paths = (
{
closed = 1;
nodes = (
"901 1273 LINE",
"901 912 LINE",
"1421 912 LINE",
"1421 679 LINE",
"901 679 LINE",
"901 317 LINE",
"670 317 LINE",
"670 679 LINE",
"150 679 LINE",
"150 912 LINE",
"670 912 LINE",
"670 1273 LINE"
);
},
{
closed = 1;
nodes = (
"150 252 LINE",
"1421 252 LINE",
"1421 0 LINE",
"150 0 LINE"
);
}
);
width = 1571;
}
);
unicode = 00B1;
},
{
glyphname = twosuperior;
lastChange = "2012-10-18 22:31:24 -0400";
layers = (
{
layerId = "D5D14868-B3D8-4E08-9530-062F6179E82D";
name = Bold;
paths = (
{
closed = 1;
nodes = (
"783 805 LINE",
"783 623 LINE",
"150 623 LINE",
"150 780 LINE",
"253 873 LINE SMOOTH",
"459 1056 OFFCURVE",
"562 1170 OFFCURVE",
"562 1217 CURVE SMOOTH",
"562 1277 OFFCURVE",
"507 1317 OFFCURVE",
"423 1317 CURVE SMOOTH",
"364 1317 OFFCURVE",
"275 1288 OFFCURVE",
"156 1229 CURVE",
"156 1431 LINE",
"272 1472 OFFCURVE",
"368 1493 OFFCURVE",
"443 1493 CURVE SMOOTH",
"639 1493 OFFCURVE",
"778 1392 OFFCURVE",
"778 1232 CURVE SMOOTH",
"778 1135 OFFCURVE",
"671 995 OFFCURVE",
"458 812 CURVE",
"458 811 OFFCURVE",
"458 811 OFFCURVE",
"457 810 CURVE SMOOTH",
"456 809 OFFCURVE",
"454 808 OFFCURVE",
"450 805 CURVE"
);
}
);
width = 933;
}
);
unicode = 00B2;
},
{
glyphname = threesuperior;
lastChange = "2012-10-18 22:31:24 -0400";
layers = (
{
layerId = "D5D14868-B3D8-4E08-9530-062F6179E82D";
name = Bold;
paths = (
{
closed = 1;
nodes = (
"782 1181 OFFCURVE",
"749 1124 OFFCURVE",
"689 1085 CURVE",
"762 1042 OFFCURVE",
"802 976 OFFCURVE",
"802 888 CURVE SMOOTH",
"802 708 OFFCURVE",
"669 609 OFFCURVE",
"422 609 CURVE SMOOTH",
"349 609 OFFCURVE",
"258 625 OFFCURVE",
"150 657 CURVE",
"150 860 LINE",
"244 811 OFFCURVE",
"330 786 OFFCURVE",
"409 786 CURVE SMOOTH",
"522 786 OFFCURVE",
"586 824 OFFCURVE",
"586 888 CURVE SMOOTH",
"586 956 OFFCURVE",
"530 990 OFFCURVE",
"418 990 CURVE SMOOTH",
"301 990 LINE",
"301 1166 LINE",
"426 1166 LINE SMOOTH",
"518 1166 OFFCURVE",
"567 1192 OFFCURVE",
"567 1243 CURVE SMOOTH",
"567 1291 OFFCURVE",
"517 1317 OFFCURVE",
"422 1317 CURVE SMOOTH",
"399 1317 OFFCURVE",
"371 1314 OFFCURVE",
"332 1306 CURVE SMOOTH",
"292 1298 OFFCURVE",
"242 1286 OFFCURVE",
"177 1267 CURVE",
"177 1453 LINE",
"289 1480 OFFCURVE",
"380 1493 OFFCURVE",
"453 1493 CURVE SMOOTH",
"548 1493 OFFCURVE",
"628 1471 OFFCURVE",
"687 1432 CURVE",
"748 1388 OFFCURVE",
"782 1326 OFFCURVE",
"782 1253 CURVE SMOOTH"
);
}
);
width = 952;
}
);
unicode = 00B3;
},
{
glyphname = acute;
lastChange = "2013-04-20 00:34:48 -0400";
layers = (
{
anchors = (
{
name = _top;
position = "{317, 766}";
}
);
layerId = "D5D14868-B3D8-4E08-9530-062F6179E82D";
name = Bold;
paths = (
{
closed = 1;
nodes = (
"497 1603 LINE",
"803 1603 LINE",
"400 1139 LINE",
"150 1139 LINE"
);
}
);
width = 953;
}
);
unicode = 00B4;
},
{
glyphname = mu;
lastChange = "2012-11-01 20:29:55 -0400";
layers = (
{
layerId = "D5D14868-B3D8-4E08-9530-062F6179E82D";
name = Bold;
paths = (
{
closed = 1;
nodes = (
"169 -398 LINE",
"150 1118 LINE",
"395 1131 LINE",
"406 629 LINE SMOOTH",
"406 472 OFFCURVE",
"478 393 OFFCURVE",
"623 393 CURVE SMOOTH",
"783 393 OFFCURVE",
"863 485 OFFCURVE",
"863 669 CURVE SMOOTH",
"873 1120 LINE",
"1119 1120 LINE",
"1109 278 LINE SMOOTH",
"1109 265 OFFCURVE",
"1132 256 OFFCURVE",
"1179 253 CURVE",
"1184 254 OFFCURVE",
"1194 258 OFFCURVE",
"1210 265 CURVE SMOOTH",
"1226 272 OFFCURVE",
"1249 281 OFFCURVE",
"1278 294 CURVE",
"1278 77 LINE",
"1272 74 OFFCURVE",
"1265 70 OFFCURVE",
"1256 65 CURVE SMOOTH",
"1247 60 OFFCURVE",
"1237 54 OFFCURVE",
"1228 48 CURVE",
"1218 42 OFFCURVE",
"1208 36 OFFCURVE",
"1198 30 CURVE",
"1187 24 OFFCURVE",
"1178 18 OFFCURVE",
"1169 12 CURVE",
"1170 12 LINE",
"1130 -14 OFFCURVE",
"1095 -27 OFFCURVE",
"1065 -27 CURVE SMOOTH",
"983 -27 OFFCURVE",
"927 8 OFFCURVE",
"896 77 CURVE",
"832 16 OFFCURVE",
"740 -27 OFFCURVE",
"636 -27 CURVE SMOOTH",
"541 -27 OFFCURVE",
"465 -2 OFFCURVE",
"408 48 CURVE",
"409 -27 OFFCURVE",
"411 -102 OFFCURVE",
"412 -178 CURVE SMOOTH",
"413 -255 OFFCURVE",
"415 -328 OFFCURVE",
"416 -398 CURVE"
);
}
);
width = 1428;
}
);
unicode = 00B5;
},
{
glyphname = paragraph;
lastChange = "2012-10-18 22:31:21 -0400";
layers = (
{
layerId = "D5D14868-B3D8-4E08-9530-062F6179E82D";
name = Bold;
paths = (
{
closed = 1;
nodes = (
"1072 1468 LINE",
"1288 -184 LINE",
"871 -184 LINE",
"880 1279 LINE",
"778 1279 LINE",
"778 -184 LINE",
"399 -184 LINE",
"465 613 LINE",
"401 632 OFFCURVE",
"339 671 OFFCURVE",
"271 735 CURVE SMOOTH",
"190 810 OFFCURVE",
"150 910 OFFCURVE",
"150 1037 CURVE SMOOTH",
"150 1297 OFFCURVE",
"344 1468 OFFCURVE",
"631 1468 CURVE SMOOTH"
);
}
);
width = 1438;
}
);
unicode = 00B6;
},
{
glyphname = periodcentered;
lastChange = "2013-04-22 10:00:32 -0400";
layers = (
{
anchors = (
{
name = _dot;
position = "{270, 711}";
}
);
layerId = "D5D14868-B3D8-4E08-9530-062F6179E82D";
name = Bold;
paths = (
{
closed = 1;
nodes = (
"150 857 LINE",
"421 857 LINE",
"421 545 LINE",
"150 545 LINE"
);
}
);
width = 571;
}
);
unicode = 00B7;
},
{
glyphname = cedilla;
lastChange = "2012-10-18 22:31:24 -0400";
layers = (
{
anchors = (
{
name = _bottom;
position = "{381, 0}";
}
);
layerId = "D5D14868-B3D8-4E08-9530-062F6179E82D";
name = Bold;
paths = (
{
closed = 1;
nodes = (
"489 75 LINE",
"572 -20 OFFCURVE",
"611 -92 OFFCURVE",
"611 -163 CURVE SMOOTH",
"611 -300 OFFCURVE",
"523 -369 OFFCURVE",
"351 -369 CURVE SMOOTH",
"290 -369 OFFCURVE",
"225 -358 OFFCURVE",
"150 -338 CURVE",
"150 -125 LINE",
"226 -164 OFFCURVE",
"280 -179 OFFCURVE",
"332 -179 CURVE SMOOTH",
"381 -179 OFFCURVE",
"406 -162 OFFCURVE",
"406 -129 CURVE SMOOTH",
"406 -114 OFFCURVE",
"396 -89 OFFCURVE",
"377 -56 CURVE SMOOTH",
"357 -23 OFFCURVE",
"327 20 OFFCURVE",
"287 75 CURVE"
);
}
);
width = 761;
}
);
unicode = 00B8;
},
{
glyphname = onesuperior;
lastChange = "2012-10-18 22:31:24 -0400";
layers = (
{
layerId = "D5D14868-B3D8-4E08-9530-062F6179E82D";
name = Bold;
paths = (
{
closed = 1;
nodes = (
"167 801 LINE",
"358 801 LINE",
"358 1290 LINE",
"341 1287 OFFCURVE",
"324 1283 OFFCURVE",
"305 1280 CURVE SMOOTH",
"268 1273 OFFCURVE",
"231 1267 OFFCURVE",
"197 1260 CURVE SMOOTH",
"180 1257 OFFCURVE",
"164 1254 OFFCURVE",
"150 1252 CURVE",
"150 1435 LINE",
"401 1477 LINE",
"567 1477 LINE",
"567 801 LINE",
"758 801 LINE",
"758 623 LINE",
"167 623 LINE"
);
}
);
width = 908;
}
);
unicode = 00B9;
},
{
glyphname = ordmasculine;
lastChange = "2012-10-18 22:31:24 -0400";
layers = (
{
layerId = "D5D14868-B3D8-4E08-9530-062F6179E82D";
name = Bold;
paths = (
{
closed = 1;
nodes = (
"190 627 LINE",
"907 627 LINE",
"907 438 LINE",
"190 438 LINE"
);
},
{
closed = 1;
nodes = (
"790 1493 OFFCURVE",
"946 1327 OFFCURVE",
"946 1071 CURVE SMOOTH",
"946 816 OFFCURVE",
"792 651 OFFCURVE",
"549 651 CURVE SMOOTH",
"306 651 OFFCURVE",
"150 819 OFFCURVE",
"150 1071 CURVE SMOOTH",
"150 1326 OFFCURVE",
"305 1493 OFFCURVE",
"549 1493 CURVE SMOOTH"
);
},
{
closed = 1;
nodes = (
"440 1346 OFFCURVE",
"371 1276 OFFCURVE",
"371 1149 CURVE SMOOTH",
"371 1087 OFFCURVE",
"387 1039 OFFCURVE",
"419 1005 CURVE",
"419 1006 LINE",
"453 972 OFFCURVE",
"496 955 OFFCURVE",
"549 955 CURVE SMOOTH",
"657 955 OFFCURVE",
"726 1030 OFFCURVE",
"726 1149 CURVE SMOOTH",
"726 1212 OFFCURVE",
"709 1259 OFFCURVE",
"678 1295 CURVE",
"646 1329 OFFCURVE",
"603 1346 OFFCURVE",
"549 1346 CURVE SMOOTH"
);
}
);
width = 1096;
}
);
unicode = 00BA;
},
{
glyphname = guillemotright;
lastChange = "2012-10-18 22:31:24 -0400";
layers = (
{
layerId = "D5D14868-B3D8-4E08-9530-062F6179E82D";
name = Bold;
paths = (
{
closed = 1;
nodes = (
"192 1133 LINE",
"676 654 LINE",
"716 507 LINE",
"186 81 LINE",
"150 386 LINE",
"429 609 LINE",
"178 856 LINE"
);
},
{
closed = 1;
nodes = (
"596 1112 LINE",
"1080 633 LINE",
"1120 485 LINE",
"590 60 LINE",
"554 365 LINE",
"833 587 LINE",
"582 834 LINE"
);
}
);
width = 1270;
}
);
unicode = 00BB;
},
{
glyphname = onequarter;
lastChange = "2012-10-18 22:31:24 -0400";
layers = (
{
layerId = "D5D14868-B3D8-4E08-9530-062F6179E82D";
name = Bold;
paths = (
{
closed = 1;
nodes = (
"167 801 LINE",
"358 801 LINE",
"358 1290 LINE",
"341 1287 OFFCURVE",
"324 1283 OFFCURVE",
"305 1280 CURVE SMOOTH",
"268 1273 OFFCURVE",
"231 1267 OFFCURVE",
"197 1260 CURVE SMOOTH",
"180 1257 OFFCURVE",
"164 1254 OFFCURVE",
"150 1252 CURVE",
"150 1435 LINE",
"401 1477 LINE",
"567 1477 LINE",
"567 801 LINE",
"758 801 LINE",
"758 623 LINE",
"167 623 LINE"
);
},
{
closed = 1;
nodes = (
"1635 1493 LINE",
"1872 1493 LINE",
"957 -27 LINE",
"720 -27 LINE"
);
},
{
closed = 1;
nodes = (
"1452 546 LINE",
"1276 306 LINE",
"1452 306 LINE"
);
},
{
closed = 1;
nodes = (
"1451 810 LINE",
"1662 810 LINE",
"1662 306 LINE",
"1788 306 LINE",
"1788 130 LINE",
"1662 130 LINE",
"1662 -44 LINE",
"1452 -44 LINE",
"1452 130 LINE",
"1066 130 LINE",
"1066 292 LINE"
);
}
);
width = 2022;
}
);
unicode = 00BC;
},
{
glyphname = onehalf;
lastChange = "2012-10-18 22:31:24 -0400";
layers = (
{
layerId = "D5D14868-B3D8-4E08-9530-062F6179E82D";
name = Bold;
paths = (
{
closed = 1;
nodes = (
"167 801 LINE",
"358 801 LINE",
"358 1290 LINE",
"341 1287 OFFCURVE",
"324 1283 OFFCURVE",
"305 1280 CURVE SMOOTH",
"268 1273 OFFCURVE",
"231 1267 OFFCURVE",
"197 1260 CURVE SMOOTH",
"180 1257 OFFCURVE",
"164 1254 OFFCURVE",
"150 1252 CURVE",
"150 1435 LINE",
"401 1477 LINE",
"567 1477 LINE",
"567 801 LINE",
"758 801 LINE",
"758 623 LINE",
"167 623 LINE"
);
},
{
closed = 1;
nodes = (
"1375 1493 LINE",
"1612 1493 LINE",
"697 -27 LINE",
"460 -27 LINE"
);
},
{
closed = 1;
nodes = (
"1866 138 LINE",
"1866 -44 LINE",
"1233 -44 LINE",
"1233 113 LINE",
"1336 206 LINE SMOOTH",
"1542 389 OFFCURVE",
"1645 503 OFFCURVE",
"1645 550 CURVE SMOOTH",
"1645 610 OFFCURVE",
"1590 650 OFFCURVE",
"1506 650 CURVE SMOOTH",
"1447 650 OFFCURVE",
"1358 621 OFFCURVE",
"1239 562 CURVE",
"1239 764 LINE",
"1355 805 OFFCURVE",
"1451 826 OFFCURVE",
"1526 826 CURVE SMOOTH",
"1722 826 OFFCURVE",
"1861 725 OFFCURVE",
"1861 565 CURVE SMOOTH",
"1861 468 OFFCURVE",
"1754 328 OFFCURVE",
"1541 145 CURVE",
"1541 144 OFFCURVE",
"1541 144 OFFCURVE",
"1540 143 CURVE SMOOTH",
"1539 142 OFFCURVE",
"1537 141 OFFCURVE",
"1533 138 CURVE"
);
}
);
width = 2016;
}
);
unicode = 00BD;
},
{
glyphname = threequarters;
lastChange = "2012-10-18 22:31:24 -0400";
layers = (
{
layerId = "D5D14868-B3D8-4E08-9530-062F6179E82D";
name = Bold;
paths = (
{
closed = 1;
nodes = (
"782 1181 OFFCURVE",
"749 1124 OFFCURVE",
"689 1085 CURVE",
"762 1042 OFFCURVE",
"802 976 OFFCURVE",
"802 888 CURVE SMOOTH",
"802 708 OFFCURVE",
"669 609 OFFCURVE",
"422 609 CURVE SMOOTH",
"349 609 OFFCURVE",
"258 625 OFFCURVE",
"150 657 CURVE",
"150 860 LINE",
"244 811 OFFCURVE",
"330 786 OFFCURVE",
"409 786 CURVE SMOOTH",
"522 786 OFFCURVE",
"586 824 OFFCURVE",
"586 888 CURVE SMOOTH",
"586 956 OFFCURVE",
"530 990 OFFCURVE",
"418 990 CURVE SMOOTH",
"301 990 LINE",
"301 1166 LINE",
"426 1166 LINE SMOOTH",
"518 1166 OFFCURVE",
"567 1192 OFFCURVE",
"567 1243 CURVE SMOOTH",
"567 1291 OFFCURVE",
"517 1317 OFFCURVE",
"422 1317 CURVE SMOOTH",
"399 1317 OFFCURVE",
"371 1314 OFFCURVE",
"332 1306 CURVE SMOOTH",
"292 1298 OFFCURVE",
"242 1286 OFFCURVE",
"177 1267 CURVE",
"177 1453 LINE",
"289 1480 OFFCURVE",
"380 1493 OFFCURVE",
"453 1493 CURVE SMOOTH",
"548 1493 OFFCURVE",
"628 1471 OFFCURVE",
"687 1432 CURVE",
"748 1388 OFFCURVE",
"782 1326 OFFCURVE",
"782 1253 CURVE SMOOTH"
);
},
{
closed = 1;
nodes = (
"1330 1493 LINE",
"1567 1493 LINE",
"652 -27 LINE",
"415 -27 LINE"
);
},
{
closed = 1;
nodes = (
"1407 546 LINE",
"1231 306 LINE",
"1407 306 LINE"
);
},
{
closed = 1;
nodes = (
"1406 810 LINE",
"1617 810 LINE",
"1617 306 LINE",
"1743 306 LINE",
"1743 130 LINE",
"1617 130 LINE",
"1617 -44 LINE",
"1407 -44 LINE",
"1407 130 LINE",
"1021 130 LINE",
"1021 292 LINE"
);
}
);
width = 1893;
}
);
unicode = 00BE;
},
{
glyphname = questiondown;
lastChange = "2012-10-18 22:31:24 -0400";
layers = (
{
layerId = "D5D14868-B3D8-4E08-9530-062F6179E82D";
name = Bold;
paths = (
{
closed = 1;
nodes = (
"483 1094 LINE",
"707 1094 LINE",
"707 911 LINE SMOOTH",
"707 774 OFFCURVE",
"681 745 OFFCURVE",
"589 644 CURVE",
"504 561 LINE SMOOTH",
"440 501 OFFCURVE",
"414 456 OFFCURVE",
"414 405 CURVE SMOOTH",
"414 361 OFFCURVE",
"430 326 OFFCURVE",
"462 299 CURVE",
"462 300 LINE",
"495 271 OFFCURVE",
"542 257 OFFCURVE",
"601 257 CURVE SMOOTH",
"690 257 OFFCURVE",
"816 314 OFFCURVE",
"969 419 CURVE",
"969 95 LINE",
"832 12 OFFCURVE",
"704 -27 OFFCURVE",
"568 -27 CURVE SMOOTH",
"319 -27 OFFCURVE",
"150 120 OFFCURVE",
"150 340 CURVE SMOOTH",
"150 393 OFFCURVE",
"163 443 OFFCURVE",
"188 492 CURVE",
"215 539 OFFCURVE",
"256 590 OFFCURVE",
"313 646 CURVE SMOOTH",
"395 726 LINE SMOOTH",
"423 753 OFFCURVE",
"442 775 OFFCURVE",
"453 790 CURVE",
"453 789 LINE",
"473 814 OFFCURVE",
"478 835 OFFCURVE",
"481 869 CURVE SMOOTH",
"482 886 OFFCURVE",
"483 910 OFFCURVE",
"483 942 CURVE SMOOTH"
);
},
{
closed = 1;
nodes = (
"741 1156 LINE",
"478 1156 LINE",
"478 1468 LINE",
"741 1468 LINE"
);
}
);
width = 1119;
}
);
unicode = 00BF;
},
{
glyphname = Agrave;
lastChange = "2012-10-18 22:31:24 -0400";
layers = (
{
layerId = "D5D14868-B3D8-4E08-9530-062F6179E82D";
name = Bold;
paths = (
{
closed = 1;
nodes = (
"855 1158 LINE",
"837 1104 OFFCURVE",
"820 1052 OFFCURVE",
"803 1001 CURVE SMOOTH",
"786 950 OFFCURVE",
"770 900 OFFCURVE",
"753 849 CURVE SMOOTH",
"736 798 OFFCURVE",
"718 747 OFFCURVE",
"701 695 CURVE SMOOTH",
"684 642 OFFCURVE",
"666 588 OFFCURVE",
"647 532 CURVE",
"1064 532 LINE"
);
},
{
closed = 1;
nodes = (
"740 1493 LINE",
"971 1493 LINE",
"1560 0 LINE",
"1198 0 LINE",
"1145 231 LINE",
"564 231 LINE",
"492 0 LINE",
"150 0 LINE"
);
},
{
closed = 1;
nodes = (
"702 1872 LINE",
"940 1551 LINE",
"707 1551 LINE",
"428 1872 LINE"
);
}
);
width = 1710;
}
);
unicode = 00C0;
},
{
glyphname = Aacute;
lastChange = "2012-10-18 22:31:24 -0400";
layers = (
{
layerId = "D5D14868-B3D8-4E08-9530-062F6179E82D";
name = Bold;
paths = (
{
closed = 1;
nodes = (
"855 1158 LINE",
"837 1104 OFFCURVE",
"820 1052 OFFCURVE",
"803 1001 CURVE SMOOTH",
"786 950 OFFCURVE",
"770 900 OFFCURVE",
"753 849 CURVE SMOOTH",
"736 798 OFFCURVE",
"718 747 OFFCURVE",
"701 695 CURVE SMOOTH",
"684 642 OFFCURVE",
"666 588 OFFCURVE",
"647 532 CURVE",
"1064 532 LINE"
);
},
{
closed = 1;
nodes = (
"740 1493 LINE",
"971 1493 LINE",
"1560 0 LINE",
"1198 0 LINE",
"1145 231 LINE",
"564 231 LINE",
"492 0 LINE",
"150 0 LINE"
);
},
{
closed = 1;
nodes = (
"955 1872 LINE",
"1228 1872 LINE",
"951 1551 LINE",
"716 1551 LINE"
);
}
);
width = 1710;
}
);
unicode = 00C1;
},
{
glyphname = Acircumflex;
lastChange = "2012-10-18 22:31:24 -0400";
layers = (
{
layerId = "D5D14868-B3D8-4E08-9530-062F6179E82D";
name = Bold;
paths = (
{
closed = 1;
nodes = (
"855 1158 LINE",
"837 1104 OFFCURVE",
"820 1052 OFFCURVE",
"803 1001 CURVE SMOOTH",
"786 950 OFFCURVE",
"770 900 OFFCURVE",
"753 849 CURVE SMOOTH",
"736 798 OFFCURVE",
"718 747 OFFCURVE",
"701 695 CURVE SMOOTH",
"684 642 OFFCURVE",
"666 588 OFFCURVE",
"647 532 CURVE",
"1064 532 LINE"
);
},
{
closed = 1;
nodes = (
"740 1493 LINE",
"971 1493 LINE",
"1560 0 LINE",
"1198 0 LINE",
"1145 231 LINE",
"564 231 LINE",
"492 0 LINE",
"150 0 LINE"
);
},
{
closed = 1;
nodes = (
"742 1874 LINE",
"953 1874 LINE",
"1210 1551 LINE",
"987 1551 LINE",
"847 1700 LINE",
"824 1676 OFFCURVE",
"800 1651 OFFCURVE",
"777 1625 CURVE SMOOTH",
"753 1599 OFFCURVE",
"730 1574 OFFCURVE",
"709 1551 CURVE",
"486 1551 LINE"
);
}
);
width = 1710;
}
);
unicode = 00C2;
},
{
glyphname = Atilde;
lastChange = "2012-10-18 22:31:24 -0400";
layers = (
{
layerId = "D5D14868-B3D8-4E08-9530-062F6179E82D";
name = Bold;
paths = (
{
closed = 1;
nodes = (
"855 1158 LINE",
"837 1104 OFFCURVE",
"820 1052 OFFCURVE",
"803 1001 CURVE SMOOTH",
"786 950 OFFCURVE",
"770 900 OFFCURVE",
"753 849 CURVE SMOOTH",
"736 798 OFFCURVE",
"718 747 OFFCURVE",
"701 695 CURVE SMOOTH",
"684 642 OFFCURVE",
"666 588 OFFCURVE",
"647 532 CURVE",
"1064 532 LINE"
);
},
{
closed = 1;
nodes = (
"740 1493 LINE",
"971 1493 LINE",
"1560 0 LINE",
"1198 0 LINE",
"1145 231 LINE",
"564 231 LINE",
"492 0 LINE",
"150 0 LINE"
);
},
{
closed = 1;
nodes = (
"779 1656 LINE SMOOTH",
"756 1669 OFFCURVE",
"741 1675 OFFCURVE",
"735 1675 CURVE SMOOTH",
"712 1675 OFFCURVE",
"701 1656 OFFCURVE",
"701 1624 CURVE SMOOTH",
"701 1581 LINE",
"510 1581 LINE",
"510 1666 OFFCURVE",
"531 1736 OFFCURVE",
"568 1785 CURVE SMOOTH",
"605 1833 OFFCURVE",
"659 1860 OFFCURVE",
"723 1860 CURVE SMOOTH",
"750 1860 OFFCURVE",
"771 1858 OFFCURVE",
"795 1851 CURVE SMOOTH",
"819 1844 OFFCURVE",
"844 1834 OFFCURVE",
"877 1815 CURVE",
"876 1815 LINE",
"930 1787 LINE",
"951 1774 OFFCURVE",
"968 1768 OFFCURVE",
"979 1768 CURVE SMOOTH",
"998 1768 OFFCURVE",
"1009 1788 OFFCURVE",
"1009 1817 CURVE SMOOTH",
"1009 1860 LINE",
"1201 1860 LINE",
"1198 1775 OFFCURVE",
"1177 1705 OFFCURVE",
"1140 1657 CURVE SMOOTH",
"1103 1608 OFFCURVE",
"1050 1581 OFFCURVE",
"987 1581 CURVE SMOOTH",
"960 1581 OFFCURVE",
"938 1584 OFFCURVE",
"917 1589 CURVE",
"896 1595 OFFCURVE",
"868 1607 OFFCURVE",
"833 1625 CURVE"
);
}
);
width = 1710;
}
);
unicode = 00C3;
},
{
glyphname = Adieresis;
lastChange = "2012-10-18 22:31:24 -0400";
layers = (
{
layerId = "D5D14868-B3D8-4E08-9530-062F6179E82D";
name = Bold;
paths = (
{
closed = 1;
nodes = (
"855 1158 LINE",
"837 1104 OFFCURVE",
"820 1052 OFFCURVE",
"803 1001 CURVE SMOOTH",
"786 950 OFFCURVE",
"770 900 OFFCURVE",
"753 849 CURVE SMOOTH",
"736 798 OFFCURVE",
"718 747 OFFCURVE",
"701 695 CURVE SMOOTH",
"684 642 OFFCURVE",
"666 588 OFFCURVE",
"647 532 CURVE",
"1064 532 LINE"
);
},
{
closed = 1;
nodes = (
"740 1493 LINE",
"971 1493 LINE",
"1560 0 LINE",
"1198 0 LINE",
"1145 231 LINE",
"564 231 LINE",
"492 0 LINE",
"150 0 LINE"
);
},
{
closed = 1;
nodes = (
"894 1845 LINE",
"1158 1845 LINE",
"1158 1581 LINE",
"894 1581 LINE"
);
},
{
closed = 1;
nodes = (
"529 1845 LINE",
"794 1845 LINE",
"794 1581 LINE",
"529 1581 LINE"
);
}
);
width = 1710;
}
);
unicode = 00C4;
},
{
glyphname = Aring;
lastChange = "2012-10-18 22:31:24 -0400";
layers = (
{
layerId = "D5D14868-B3D8-4E08-9530-062F6179E82D";
name = Bold;
paths = (
{
closed = 1;
nodes = (
"961 1637 OFFCURVE",
"911 1688 OFFCURVE",
"855 1688 CURVE SMOOTH",
"795 1688 OFFCURVE",
"749 1642 OFFCURVE",
"749 1581 CURVE SMOOTH",
"749 1522 OFFCURVE",
"795 1476 OFFCURVE",
"855 1476 CURVE SMOOTH",
"915 1476 OFFCURVE",
"961 1522 OFFCURVE",
"961 1581 CURVE SMOOTH"
);
},
{
closed = 1;
nodes = (
"856 1154 LINE",
"821 1059 OFFCURVE",
"788 971 OFFCURVE",
"755 881 CURVE SMOOTH",
"738 836 OFFCURVE",
"721 790 OFFCURVE",
"704 744 CURVE SMOOTH",
"687 697 OFFCURVE",
"669 649 OFFCURVE",
"651 599 CURVE",
"1059 599 LINE"
);
},
{
closed = 1;
nodes = (
"667 1351 LINE",
"594 1410 OFFCURVE",
"557 1487 OFFCURVE",
"557 1581 CURVE SMOOTH",
"557 1749 OFFCURVE",
"688 1880 OFFCURVE",
"855 1880 CURVE SMOOTH",
"939 1880 OFFCURVE",
"1009 1851 OFFCURVE",
"1066 1792 CURVE SMOOTH",
"1125 1735 OFFCURVE",
"1154 1664 OFFCURVE",
"1154 1581 CURVE SMOOTH",
"1154 1489 OFFCURVE",
"1116 1409 OFFCURVE",
"1044 1350 CURVE",
"1559 0 LINE",
"1278 0 LINE",
"1148 364 LINE",
"564 364 LINE",
"434 0 LINE",
"150 0 LINE"
);
}
);
width = 1709;
}
);
unicode = 00C5;
},
{
glyphname = AE;
lastChange = "2012-10-18 22:31:24 -0400";
layers = (
{
anchors = (
{
name = top;
position = "{1188, 1493}";
}
);
layerId = "D5D14868-B3D8-4E08-9530-062F6179E82D";
name = Bold;
paths = (
{
closed = 1;
nodes = (
"1989 1493 LINE",
"1989 1256 LINE",
"1285 1256 LINE",
"1285 751 LINE",
"1960 751 LINE",
"1960 513 LINE",
"1285 513 LINE",
"1285 323 LINE",
"2007 323 LINE",
"2007 0 LINE",
"1017 0 LINE",
"1017 250 LINE",
"592 250 LINE",
"602 0 LINE",
"150 0 LINE",
"775 1493 LINE"
);
},
{
closed = 1;
nodes = (
"960 1267 LINE",
"674 485 LINE",
"1017 485 LINE",
"1017 1267 LINE"
);
}
);
width = 2157;
}
);
unicode = 00C6;
},
{
glyphname = Ccedilla;
lastChange = "2012-10-18 22:31:24 -0400";
layers = (
{
layerId = "D5D14868-B3D8-4E08-9530-062F6179E82D";
name = Bold;
paths = (
{
closed = 1;
nodes = (
"1368 1056 LINE",
"1201 1211 OFFCURVE",
"1046 1285 OFFCURVE",
"891 1285 CURVE SMOOTH",
"590 1285 OFFCURVE",
"428 1097 OFFCURVE",
"428 745 CURVE SMOOTH",
"433 440 OFFCURVE",
"582 339 OFFCURVE",
"891 339 CURVE SMOOTH",
"1046 339 OFFCURVE",
"1201 413 OFFCURVE",
"1368 568 CURVE",
"1368 127 LINE",
"1217 24 OFFCURVE",
"1056 -28 OFFCURVE",
"880 -28 CURVE SMOOTH",
"429 -28 OFFCURVE",
"150 270 OFFCURVE",
"150 745 CURVE SMOOTH",
"150 1218 OFFCURVE",
"428 1519 OFFCURVE",
"880 1519 CURVE SMOOTH",
"1055 1519 OFFCURVE",
"1218 1468 OFFCURVE",
"1368 1366 CURVE"
);
},
{
closed = 1;
nodes = (
"899 75 LINE",
"982 -20 OFFCURVE",
"1021 -92 OFFCURVE",
"1021 -163 CURVE SMOOTH",
"1021 -300 OFFCURVE",
"933 -369 OFFCURVE",
"761 -369 CURVE SMOOTH",
"700 -369 OFFCURVE",
"635 -358 OFFCURVE",
"560 -338 CURVE",
"560 -125 LINE",
"636 -164 OFFCURVE",
"690 -179 OFFCURVE",
"742 -179 CURVE SMOOTH",
"791 -179 OFFCURVE",
"816 -162 OFFCURVE",
"816 -129 CURVE SMOOTH",
"816 -114 OFFCURVE",
"806 -89 OFFCURVE",
"787 -56 CURVE SMOOTH",
"767 -23 OFFCURVE",
"737 20 OFFCURVE",
"697 75 CURVE"
);
}
);
width = 1518;
}
);
unicode = 00C7;
},
{
glyphname = Egrave;
lastChange = "2012-10-18 22:31:24 -0400";
layers = (
{
layerId = "D5D14868-B3D8-4E08-9530-062F6179E82D";
name = Bold;
paths = (
{
closed = 1;
nodes = (
"150 1493 LINE",
"1122 1493 LINE",
"1122 1256 LINE",
"418 1256 LINE",
"418 912 LINE",
"1092 912 LINE",
"1092 675 LINE",
"418 675 LINE",
"418 370 LINE",
"1139 370 LINE",
"1139 0 LINE",
"150 0 LINE"
);
},
{
closed = 1;
nodes = (
"431 1872 LINE",
"669 1551 LINE",
"436 1551 LINE",
"157 1872 LINE"
);
}
);
width = 1289;
}
);
unicode = 00C8;
},
{
glyphname = Eacute;
lastChange = "2012-10-18 22:31:24 -0400";
layers = (
{
layerId = "D5D14868-B3D8-4E08-9530-062F6179E82D";
name = Bold;
paths = (
{
closed = 1;
nodes = (
"150 1493 LINE",
"1122 1493 LINE",
"1122 1256 LINE",
"418 1256 LINE",
"418 912 LINE",
"1092 912 LINE",
"1092 675 LINE",
"418 675 LINE",
"418 370 LINE",
"1139 370 LINE",
"1139 0 LINE",
"150 0 LINE"
);
},
{
closed = 1;
nodes = (
"574 1872 LINE",
"847 1872 LINE",
"570 1551 LINE",
"335 1551 LINE"
);
}
);
width = 1289;
}
);
unicode = 00C9;
},
{
glyphname = Ecircumflex;
lastChange = "2012-10-18 22:31:24 -0400";
layers = (
{
layerId = "D5D14868-B3D8-4E08-9530-062F6179E82D";
name = Bold;
paths = (
{
closed = 1;
nodes = (
"150 1493 LINE",
"1122 1493 LINE",
"1122 1256 LINE",
"418 1256 LINE",
"418 912 LINE",
"1092 912 LINE",
"1092 675 LINE",
"418 675 LINE",
"418 370 LINE",
"1139 370 LINE",
"1139 0 LINE",
"150 0 LINE"
);
},
{
closed = 1;
nodes = (
"491 1874 LINE",
"702 1874 LINE",
"959 1551 LINE",
"736 1551 LINE",
"596 1700 LINE",
"573 1676 OFFCURVE",
"549 1651 OFFCURVE",
"526 1625 CURVE SMOOTH",
"502 1599 OFFCURVE",
"479 1574 OFFCURVE",
"458 1551 CURVE",
"235 1551 LINE"
);
}
);
width = 1289;
}
);
unicode = 00CA;
},
{
glyphname = Edieresis;
lastChange = "2012-10-18 22:31:24 -0400";
layers = (
{
layerId = "D5D14868-B3D8-4E08-9530-062F6179E82D";
name = Bold;
paths = (
{
closed = 1;
nodes = (
"150 1493 LINE",
"1122 1493 LINE",
"1122 1256 LINE",
"418 1256 LINE",
"418 912 LINE",
"1092 912 LINE",
"1092 675 LINE",
"418 675 LINE",
"418 370 LINE",
"1139 370 LINE",
"1139 0 LINE",
"150 0 LINE"
);
},
{
closed = 1;
nodes = (
"673 1845 LINE",
"937 1845 LINE",
"937 1581 LINE",
"673 1581 LINE"
);
},
{
closed = 1;
nodes = (
"308 1845 LINE",
"573 1845 LINE",
"573 1581 LINE",
"308 1581 LINE"
);
}
);
width = 1289;
}
);
unicode = 00CB;
},
{
glyphname = Igrave;
lastChange = "2012-10-18 22:31:24 -0400";
layers = (
{
layerId = "D5D14868-B3D8-4E08-9530-062F6179E82D";
name = Bold;
paths = (
{
closed = 1;
nodes = (
"451 1493 LINE",
"708 1493 LINE",
"727 0 LINE",
"420 0 LINE"
);
},
{
closed = 1;
nodes = (
"424 1872 LINE",
"662 1551 LINE",
"429 1551 LINE",
"150 1872 LINE"
);
}
);
width = 877;
}
);
unicode = 00CC;
},
{
glyphname = Iacute;
lastChange = "2012-10-18 22:31:24 -0400";
layers = (
{
layerId = "D5D14868-B3D8-4E08-9530-062F6179E82D";
name = Bold;
paths = (
{
closed = 1;
nodes = (
"181 1493 LINE",
"438 1493 LINE",
"457 0 LINE",
"150 0 LINE"
);
},
{
closed = 1;
nodes = (
"397 1872 LINE",
"670 1872 LINE",
"393 1551 LINE",
"158 1551 LINE"
);
}
);
width = 820;
}
);
unicode = 00CD;
},
{
glyphname = Icircumflex;
lastChange = "2012-10-18 22:31:24 -0400";
layers = (
{
layerId = "D5D14868-B3D8-4E08-9530-062F6179E82D";
name = Bold;
paths = (
{
closed = 1;
nodes = (
"393 1493 LINE",
"650 1493 LINE",
"669 0 LINE",
"362 0 LINE"
);
},
{
closed = 1;
nodes = (
"406 1874 LINE",
"617 1874 LINE",
"874 1551 LINE",
"651 1551 LINE",
"511 1700 LINE",
"488 1676 OFFCURVE",
"464 1651 OFFCURVE",
"441 1625 CURVE SMOOTH",
"417 1599 OFFCURVE",
"394 1574 OFFCURVE",
"373 1551 CURVE",
"150 1551 LINE"
);
}
);
width = 1024;
}
);
unicode = 00CE;
},
{
glyphname = Idieresis;
lastChange = "2012-10-18 22:31:24 -0400";
layers = (
{
layerId = "D5D14868-B3D8-4E08-9530-062F6179E82D";
name = Bold;
paths = (
{
closed = 1;
nodes = (
"300 1493 LINE",
"557 1493 LINE",
"576 0 LINE",
"269 0 LINE"
);
},
{
closed = 1;
nodes = (
"515 1845 LINE",
"779 1845 LINE",
"779 1581 LINE",
"515 1581 LINE"
);
},
{
closed = 1;
nodes = (
"150 1845 LINE",
"415 1845 LINE",
"415 1581 LINE",
"150 1581 LINE"
);
}
);
width = 929;
}
);
unicode = 00CF;
},
{
glyphname = Eth;
lastChange = "2012-10-18 22:31:24 -0400";
layers = (
{
layerId = "D5D14868-B3D8-4E08-9530-062F6179E82D";
name = Bold;
paths = (
{
closed = 1;
nodes = (
"341 1493 LINE",
"774 1493 LINE SMOOTH",
"1053 1493 OFFCURVE",
"1267 1429 OFFCURVE",
"1403 1312 CURVE",
"1536 1189 OFFCURVE",
"1608 1000 OFFCURVE",
"1608 748 CURVE SMOOTH",
"1608 493 OFFCURVE",
"1537 305 OFFCURVE",
"1402 181 CURVE SMOOTH",
"1266 64 OFFCURVE",
"1053 0 OFFCURVE",
"774 0 CURVE SMOOTH",
"341 0 LINE",
"341 664 LINE",
"150 664 LINE",
"150 877 LINE",
"341 877 LINE"
);
},
{
closed = 1;
nodes = (
"610 1260 LINE",
"610 877 LINE",
"929 877 LINE",
"929 664 LINE",
"610 664 LINE",
"610 337 LINE",
"802 337 LINE SMOOTH",
"1171 337 OFFCURVE",
"1330 388 OFFCURVE",
"1330 748 CURVE SMOOTH",
"1330 1104 OFFCURVE",
"1171 1260 OFFCURVE",
"802 1260 CURVE SMOOTH"
);
}
);
width = 1758;
}
);
unicode = 00D0;
},
{
glyphname = Ntilde;
lastChange = "2012-10-18 22:31:24 -0400";
layers = (
{
layerId = "D5D14868-B3D8-4E08-9530-062F6179E82D";
name = Bold;
paths = (
{
closed = 1;
nodes = (
"189 1465 LINE",
"488 1465 LINE",
"1040 451 LINE",
"1066 1493 LINE",
"1318 1493 LINE",
"1318 0 LINE",
"980 0 LINE",
"421 1054 LINE",
"430 879 OFFCURVE",
"438 703 OFFCURVE",
"447 524 CURVE SMOOTH",
"455 345 OFFCURVE",
"463 171 OFFCURVE",
"471 0 CURVE",
"150 0 LINE"
);
},
{
closed = 1;
nodes = (
"611 1656 LINE SMOOTH",
"588 1669 OFFCURVE",
"573 1675 OFFCURVE",
"567 1675 CURVE SMOOTH",
"544 1675 OFFCURVE",
"533 1656 OFFCURVE",
"533 1624 CURVE SMOOTH",
"533 1581 LINE",
"342 1581 LINE",
"342 1666 OFFCURVE",
"363 1736 OFFCURVE",
"400 1785 CURVE SMOOTH",
"437 1833 OFFCURVE",
"491 1860 OFFCURVE",
"555 1860 CURVE SMOOTH",
"582 1860 OFFCURVE",
"603 1858 OFFCURVE",
"627 1851 CURVE SMOOTH",
"651 1844 OFFCURVE",
"676 1834 OFFCURVE",
"709 1815 CURVE",
"708 1815 LINE",
"762 1787 LINE",
"783 1774 OFFCURVE",
"800 1768 OFFCURVE",
"811 1768 CURVE SMOOTH",
"830 1768 OFFCURVE",
"841 1788 OFFCURVE",
"841 1817 CURVE SMOOTH",
"841 1860 LINE",
"1033 1860 LINE",
"1030 1775 OFFCURVE",
"1009 1705 OFFCURVE",
"972 1657 CURVE SMOOTH",
"935 1608 OFFCURVE",
"882 1581 OFFCURVE",
"819 1581 CURVE SMOOTH",
"792 1581 OFFCURVE",
"770 1584 OFFCURVE",
"749 1589 CURVE",
"728 1595 OFFCURVE",
"700 1607 OFFCURVE",
"665 1625 CURVE"
);
}
);
width = 1468;
}
);
unicode = 00D1;
},
{
glyphname = Ograve;
lastChange = "2012-10-18 22:31:24 -0400";
layers = (
{
layerId = "D5D14868-B3D8-4E08-9530-062F6179E82D";
name = Bold;
paths = (
{
closed = 1;
nodes = (
"721 1287 OFFCURVE",
"617 1234 OFFCURVE",
"542 1146 CURVE",
"470 1050 OFFCURVE",
"428 912 OFFCURVE",
"428 745 CURVE SMOOTH",
"428 613 OFFCURVE",
"464 526 OFFCURVE",
"532 482 CURVE",
"608 437 OFFCURVE",
"713 413 OFFCURVE",
"845 413 CURVE SMOOTH",
"1110 413 OFFCURVE",
"1259 481 OFFCURVE",
"1259 745 CURVE SMOOTH",
"1259 1088 OFFCURVE",
"1098 1287 OFFCURVE",
"845 1287 CURVE SMOOTH"
);
},
{
closed = 1;
nodes = (
"1054 1519 OFFCURVE",
"1223 1448 OFFCURVE",
"1350 1306 CURVE SMOOTH",
"1475 1165 OFFCURVE",
"1538 981 OFFCURVE",
"1538 745 CURVE SMOOTH",
"1538 512 OFFCURVE",
"1475 325 OFFCURVE",
"1350 184 CURVE SMOOTH",
"1222 43 OFFCURVE",
"1054 -28 OFFCURVE",
"845 -28 CURVE SMOOTH",
"634 -28 OFFCURVE",
"465 43 OFFCURVE",
"338 184 CURVE SMOOTH",
"213 325 OFFCURVE",
"150 512 OFFCURVE",
"150 745 CURVE SMOOTH",
"150 981 OFFCURVE",
"213 1165 OFFCURVE",
"338 1306 CURVE SMOOTH",
"465 1448 OFFCURVE",
"634 1519 OFFCURVE",
"845 1519 CURVE SMOOTH"
);
},
{
closed = 1;
nodes = (
"733 1872 LINE",
"971 1551 LINE",
"738 1551 LINE",
"459 1872 LINE"
);
}
);
width = 1688;
}
);
unicode = 00D2;
},
{
glyphname = Oacute;
lastChange = "2012-10-18 22:31:24 -0400";
layers = (
{
layerId = "D5D14868-B3D8-4E08-9530-062F6179E82D";
name = Bold;
paths = (
{
closed = 1;
nodes = (
"721 1287 OFFCURVE",
"617 1234 OFFCURVE",
"542 1146 CURVE",
"470 1050 OFFCURVE",
"428 912 OFFCURVE",
"428 745 CURVE SMOOTH",
"428 613 OFFCURVE",
"464 526 OFFCURVE",
"532 482 CURVE",
"608 437 OFFCURVE",
"713 413 OFFCURVE",
"845 413 CURVE SMOOTH",
"1110 413 OFFCURVE",
"1259 481 OFFCURVE",
"1259 745 CURVE SMOOTH",
"1259 1088 OFFCURVE",
"1098 1287 OFFCURVE",
"845 1287 CURVE SMOOTH"
);
},
{
closed = 1;
nodes = (
"1054 1519 OFFCURVE",
"1223 1448 OFFCURVE",
"1350 1306 CURVE SMOOTH",
"1475 1165 OFFCURVE",
"1538 981 OFFCURVE",
"1538 745 CURVE SMOOTH",
"1538 512 OFFCURVE",
"1475 325 OFFCURVE",
"1350 184 CURVE SMOOTH",
"1222 43 OFFCURVE",
"1054 -28 OFFCURVE",
"845 -28 CURVE SMOOTH",
"634 -28 OFFCURVE",
"465 43 OFFCURVE",
"338 184 CURVE SMOOTH",
"213 325 OFFCURVE",
"150 512 OFFCURVE",
"150 745 CURVE SMOOTH",
"150 981 OFFCURVE",
"213 1165 OFFCURVE",
"338 1306 CURVE SMOOTH",
"465 1448 OFFCURVE",
"634 1519 OFFCURVE",
"845 1519 CURVE SMOOTH"
);
},
{
closed = 1;
nodes = (
"896 1872 LINE",
"1169 1872 LINE",
"892 1551 LINE",
"657 1551 LINE"
);
}
);
width = 1688;
}
);
unicode = 00D3;
},
{
glyphname = Ocircumflex;
lastChange = "2012-10-18 22:31:24 -0400";
layers = (
{
layerId = "D5D14868-B3D8-4E08-9530-062F6179E82D";
name = Bold;
paths = (
{
closed = 1;
nodes = (
"721 1287 OFFCURVE",
"617 1234 OFFCURVE",
"542 1146 CURVE",
"470 1050 OFFCURVE",
"428 912 OFFCURVE",
"428 745 CURVE SMOOTH",
"428 613 OFFCURVE",
"464 526 OFFCURVE",
"532 482 CURVE",
"608 437 OFFCURVE",
"713 413 OFFCURVE",
"845 413 CURVE SMOOTH",
"1110 413 OFFCURVE",
"1259 481 OFFCURVE",
"1259 745 CURVE SMOOTH",
"1259 1088 OFFCURVE",
"1098 1287 OFFCURVE",
"845 1287 CURVE SMOOTH"
);
},
{
closed = 1;
nodes = (
"1054 1519 OFFCURVE",
"1223 1448 OFFCURVE",
"1350 1306 CURVE SMOOTH",
"1475 1165 OFFCURVE",
"1538 981 OFFCURVE",
"1538 745 CURVE SMOOTH",
"1538 512 OFFCURVE",
"1475 325 OFFCURVE",
"1350 184 CURVE SMOOTH",
"1222 43 OFFCURVE",
"1054 -28 OFFCURVE",
"845 -28 CURVE SMOOTH",
"634 -28 OFFCURVE",
"465 43 OFFCURVE",
"338 184 CURVE SMOOTH",
"213 325 OFFCURVE",
"150 512 OFFCURVE",
"150 745 CURVE SMOOTH",
"150 981 OFFCURVE",
"213 1165 OFFCURVE",
"338 1306 CURVE SMOOTH",
"465 1448 OFFCURVE",
"634 1519 OFFCURVE",
"845 1519 CURVE SMOOTH"
);
},
{
closed = 1;
nodes = (
"723 1874 LINE",
"934 1874 LINE",
"1191 1551 LINE",
"968 1551 LINE",
"828 1700 LINE",
"805 1676 OFFCURVE",
"781 1651 OFFCURVE",
"758 1625 CURVE SMOOTH",
"734 1599 OFFCURVE",
"711 1574 OFFCURVE",
"690 1551 CURVE",
"467 1551 LINE"
);
}
);
width = 1688;
}
);
unicode = 00D4;
},
{
glyphname = Otilde;
lastChange = "2012-10-18 22:31:24 -0400";
layers = (
{
layerId = "D5D14868-B3D8-4E08-9530-062F6179E82D";
name = Bold;
paths = (
{
closed = 1;
nodes = (
"721 1287 OFFCURVE",
"617 1234 OFFCURVE",
"542 1146 CURVE",
"470 1050 OFFCURVE",
"428 912 OFFCURVE",
"428 745 CURVE SMOOTH",
"428 613 OFFCURVE",
"464 526 OFFCURVE",
"532 482 CURVE",
"608 437 OFFCURVE",
"713 413 OFFCURVE",
"845 413 CURVE SMOOTH",
"1110 413 OFFCURVE",
"1259 481 OFFCURVE",
"1259 745 CURVE SMOOTH",
"1259 1088 OFFCURVE",
"1098 1287 OFFCURVE",
"845 1287 CURVE SMOOTH"
);
},
{
closed = 1;
nodes = (
"1054 1519 OFFCURVE",
"1223 1448 OFFCURVE",
"1350 1306 CURVE SMOOTH",
"1475 1165 OFFCURVE",
"1538 981 OFFCURVE",
"1538 745 CURVE SMOOTH",
"1538 512 OFFCURVE",
"1475 325 OFFCURVE",
"1350 184 CURVE SMOOTH",
"1222 43 OFFCURVE",
"1054 -28 OFFCURVE",
"845 -28 CURVE SMOOTH",
"634 -28 OFFCURVE",
"465 43 OFFCURVE",
"338 184 CURVE SMOOTH",
"213 325 OFFCURVE",
"150 512 OFFCURVE",
"150 745 CURVE SMOOTH",
"150 981 OFFCURVE",
"213 1165 OFFCURVE",
"338 1306 CURVE SMOOTH",
"465 1448 OFFCURVE",
"634 1519 OFFCURVE",
"845 1519 CURVE SMOOTH"
);
},
{
closed = 1;
nodes = (
"760 1656 LINE SMOOTH",
"737 1669 OFFCURVE",
"722 1675 OFFCURVE",
"716 1675 CURVE SMOOTH",
"693 1675 OFFCURVE",
"682 1656 OFFCURVE",
"682 1624 CURVE SMOOTH",
"682 1581 LINE",
"491 1581 LINE",
"491 1666 OFFCURVE",
"512 1736 OFFCURVE",
"549 1785 CURVE SMOOTH",
"586 1833 OFFCURVE",
"640 1860 OFFCURVE",
"704 1860 CURVE SMOOTH",
"731 1860 OFFCURVE",
"752 1858 OFFCURVE",
"776 1851 CURVE SMOOTH",
"800 1844 OFFCURVE",
"825 1834 OFFCURVE",
"858 1815 CURVE",
"857 1815 LINE",
"911 1787 LINE",
"932 1774 OFFCURVE",
"949 1768 OFFCURVE",
"960 1768 CURVE SMOOTH",
"979 1768 OFFCURVE",
"990 1788 OFFCURVE",
"990 1817 CURVE SMOOTH",
"990 1860 LINE",
"1182 1860 LINE",
"1179 1775 OFFCURVE",
"1158 1705 OFFCURVE",
"1121 1657 CURVE SMOOTH",
"1084 1608 OFFCURVE",
"1031 1581 OFFCURVE",
"968 1581 CURVE SMOOTH",
"941 1581 OFFCURVE",
"919 1584 OFFCURVE",
"898 1589 CURVE",
"877 1595 OFFCURVE",
"849 1607 OFFCURVE",
"814 1625 CURVE"
);
}
);
width = 1688;
}
);
unicode = 00D5;
},
{
glyphname = Odieresis;
lastChange = "2012-10-18 22:31:24 -0400";
layers = (
{
layerId = "D5D14868-B3D8-4E08-9530-062F6179E82D";
name = Bold;
paths = (
{
closed = 1;
nodes = (
"721 1287 OFFCURVE",
"617 1234 OFFCURVE",
"542 1146 CURVE",
"470 1050 OFFCURVE",
"428 912 OFFCURVE",
"428 745 CURVE SMOOTH",
"428 613 OFFCURVE",
"464 526 OFFCURVE",
"532 482 CURVE",
"608 437 OFFCURVE",
"713 413 OFFCURVE",
"845 413 CURVE SMOOTH",
"1110 413 OFFCURVE",
"1259 481 OFFCURVE",
"1259 745 CURVE SMOOTH",
"1259 1088 OFFCURVE",
"1098 1287 OFFCURVE",
"845 1287 CURVE SMOOTH"
);
},
{
closed = 1;
nodes = (
"1054 1519 OFFCURVE",
"1223 1448 OFFCURVE",
"1350 1306 CURVE SMOOTH",
"1475 1165 OFFCURVE",
"1538 981 OFFCURVE",
"1538 745 CURVE SMOOTH",
"1538 512 OFFCURVE",
"1475 325 OFFCURVE",
"1350 184 CURVE SMOOTH",
"1222 43 OFFCURVE",
"1054 -28 OFFCURVE",
"845 -28 CURVE SMOOTH",
"634 -28 OFFCURVE",
"465 43 OFFCURVE",
"338 184 CURVE SMOOTH",
"213 325 OFFCURVE",
"150 512 OFFCURVE",
"150 745 CURVE SMOOTH",
"150 981 OFFCURVE",
"213 1165 OFFCURVE",
"338 1306 CURVE SMOOTH",
"465 1448 OFFCURVE",
"634 1519 OFFCURVE",
"845 1519 CURVE SMOOTH"
);
},
{
closed = 1;
nodes = (
"955 1845 LINE",
"1219 1845 LINE",
"1219 1581 LINE",
"955 1581 LINE"
);
},
{
closed = 1;
nodes = (
"590 1845 LINE",
"855 1845 LINE",
"855 1581 LINE",
"590 1581 LINE"
);
}
);
width = 1688;
}
);
unicode = 00D6;
},
{
glyphname = multiply;
lastChange = "2012-10-18 22:31:24 -0400";
layers = (
{
layerId = "D5D14868-B3D8-4E08-9530-062F6179E82D";
name = Bold;
paths = (
{
closed = 1;
nodes = (
"1286 1017 LINE",
"924 654 LINE",
"1276 302 LINE",
"1067 90 LINE",
"713 444 LINE",
"358 90 LINE",
"150 302 LINE",
"501 654 LINE",
"168 989 LINE",
"377 1202 LINE",
"713 866 LINE",
"1076 1229 LINE"
);
}
);
width = 1436;
}
);
unicode = 00D7;
},
{
glyphname = Oslash;
lastChange = "2012-10-18 22:31:24 -0400";
layers = (
{
anchors = (
{
name = top;
position = "{871, 1493}";
}
);
layerId = "D5D14868-B3D8-4E08-9530-062F6179E82D";
name = Bold;
paths = (
{
closed = 1;
nodes = (
"676 364 LINE",
"697 353 OFFCURVE",
"716 349 OFFCURVE",
"736 346 CURVE",
"773 345 OFFCURVE",
"820 344 OFFCURVE",
"877 344 CURVE",
"1004 363 OFFCURVE",
"1103 402 OFFCURVE",
"1162 459 CURVE",
"1218 519 OFFCURVE",
"1263 644 OFFCURVE",
"1287 807 CURVE",
"1287 870 OFFCURVE",
"1281 920 OFFCURVE",
"1270 955 CURVE SMOOTH",
"1263 978 OFFCURVE",
"1255 1002 OFFCURVE",
"1244 1027 CURVE"
);
},
{
closed = 1;
nodes = (
"1125 1203 LINE",
"1094 1242 OFFCURVE",
"1062 1271 OFFCURVE",
"1023 1286 CURVE",
"976 1307 OFFCURVE",
"916 1318 OFFCURVE",
"841 1325 CURVE",
"720 1324 OFFCURVE",
"614 1271 OFFCURVE",
"541 1184 CURVE",
"469 1088 OFFCURVE",
"427 950 OFFCURVE",
"427 783 CURVE SMOOTH",
"427 719 OFFCURVE",
"441 663 OFFCURVE",
"465 614 CURVE",
"464 615 LINE",
"485 576 OFFCURVE",
"504 543 OFFCURVE",
"531 511 CURVE"
);
},
{
closed = 1;
nodes = (
"316 248 LINE",
"225 381 OFFCURVE",
"178 548 OFFCURVE",
"178 745 CURVE SMOOTH",
"178 1212 OFFCURVE",
"451 1519 OFFCURVE",
"872 1519 CURVE SMOOTH",
"1032 1519 OFFCURVE",
"1170 1474 OFFCURVE",
"1283 1389 CURVE",
"1438 1571 LINE",
"1592 1437 LINE",
"1426 1243 LINE",
"1517 1110 OFFCURVE",
"1565 942 OFFCURVE",
"1565 745 CURVE SMOOTH",
"1565 511 OFFCURVE",
"1502 324 OFFCURVE",
"1377 184 CURVE SMOOTH",
"1250 43 OFFCURVE",
"1084 -28 OFFCURVE",
"872 -28 CURVE SMOOTH",
"713 -28 OFFCURVE",
"577 13 OFFCURVE",
"460 101 CURVE",
"305 -82 LINE",
"150 51 LINE"
);
}
);
width = 1742;
}
);
unicode = 00D8;
},
{
glyphname = Ugrave;
lastChange = "2012-10-18 22:31:24 -0400";
layers = (
{
layerId = "D5D14868-B3D8-4E08-9530-062F6179E82D";
name = Bold;
paths = (
{
closed = 1;
nodes = (
"150 1493 LINE",
"419 1493 LINE",
"429 727 LINE SMOOTH",
"431 585 OFFCURVE",
"454 483 OFFCURVE",
"503 422 CURVE",
"503 423 LINE",
"550 366 OFFCURVE",
"630 337 OFFCURVE",
"741 337 CURVE SMOOTH",
"852 337 OFFCURVE",
"932 366 OFFCURVE",
"979 423 CURVE",
"979 422 LINE",
"1028 483 OFFCURVE",
"1051 585 OFFCURVE",
"1053 727 CURVE SMOOTH",
"1063 1493 LINE",
"1331 1493 LINE",
"1321 570 LINE SMOOTH",
"1317 174 OFFCURVE",
"1125 -28 OFFCURVE",
"741 -28 CURVE SMOOTH",
"358 -28 OFFCURVE",
"164 177 OFFCURVE",
"160 570 CURVE SMOOTH"
);
},
{
closed = 1;
nodes = (
"623 1872 LINE",
"861 1551 LINE",
"628 1551 LINE",
"349 1872 LINE"
);
}
);
width = 1481;
}
);
unicode = 00D9;
},
{
glyphname = Uacute;
lastChange = "2012-10-18 22:31:24 -0400";
layers = (
{
layerId = "D5D14868-B3D8-4E08-9530-062F6179E82D";
name = Bold;
paths = (
{
closed = 1;
nodes = (
"150 1493 LINE",
"419 1493 LINE",
"419 727 LINE SMOOTH",
"419 585 OFFCURVE",
"444 483 OFFCURVE",
"493 422 CURVE",
"493 423 LINE",
"540 366 OFFCURVE",
"620 337 OFFCURVE",
"731 337 CURVE SMOOTH",
"842 337 OFFCURVE",
"922 366 OFFCURVE",
"969 423 CURVE",
"969 422 LINE",
"1018 483 OFFCURVE",
"1043 585 OFFCURVE",
"1043 727 CURVE SMOOTH",
"1043 1493 LINE",
"1311 1493 LINE",
"1311 570 LINE SMOOTH",
"1311 174 OFFCURVE",
"1115 -28 OFFCURVE",
"731 -28 CURVE SMOOTH",
"348 -28 OFFCURVE",
"150 177 OFFCURVE",
"150 570 CURVE SMOOTH"
);
},
{
closed = 1;
nodes = (
"816 1872 LINE",
"1089 1872 LINE",
"812 1551 LINE",
"577 1551 LINE"
);
}
);
width = 1461;
}
);
unicode = 00DA;
},
{
glyphname = Ucircumflex;
lastChange = "2012-10-18 22:31:24 -0400";
layers = (
{
layerId = "D5D14868-B3D8-4E08-9530-062F6179E82D";
name = Bold;
paths = (
{
closed = 1;
nodes = (
"150 1493 LINE",
"419 1493 LINE",
"419 727 LINE SMOOTH",
"419 585 OFFCURVE",
"444 483 OFFCURVE",
"493 422 CURVE",
"493 423 LINE",
"540 366 OFFCURVE",
"620 337 OFFCURVE",
"731 337 CURVE SMOOTH",
"842 337 OFFCURVE",
"922 366 OFFCURVE",
"969 423 CURVE",
"969 422 LINE",
"1018 483 OFFCURVE",
"1043 585 OFFCURVE",
"1043 727 CURVE SMOOTH",
"1043 1493 LINE",
"1311 1493 LINE",
"1311 570 LINE SMOOTH",
"1311 174 OFFCURVE",
"1115 -28 OFFCURVE",
"731 -28 CURVE SMOOTH",
"348 -28 OFFCURVE",
"150 177 OFFCURVE",
"150 570 CURVE SMOOTH"
);
},
{
closed = 1;
nodes = (
"623 1874 LINE",
"834 1874 LINE",
"1091 1551 LINE",
"868 1551 LINE",
"728 1700 LINE",
"705 1676 OFFCURVE",
"681 1651 OFFCURVE",
"658 1625 CURVE SMOOTH",
"634 1599 OFFCURVE",
"611 1574 OFFCURVE",
"590 1551 CURVE",
"367 1551 LINE"
);
}
);
width = 1461;
}
);
unicode = 00DB;
},
{
glyphname = Udieresis;
lastChange = "2012-10-18 22:31:24 -0400";
layers = (
{
layerId = "D5D14868-B3D8-4E08-9530-062F6179E82D";
name = Bold;
paths = (
{
closed = 1;
nodes = (
"150 1493 LINE",
"419 1493 LINE",
"419 727 LINE SMOOTH",
"419 585 OFFCURVE",
"444 483 OFFCURVE",
"493 422 CURVE",
"493 423 LINE",
"540 366 OFFCURVE",
"620 337 OFFCURVE",
"731 337 CURVE SMOOTH",
"842 337 OFFCURVE",
"922 366 OFFCURVE",
"969 423 CURVE",
"969 422 LINE",
"1018 483 OFFCURVE",
"1043 585 OFFCURVE",
"1043 727 CURVE SMOOTH",
"1043 1493 LINE",
"1311 1493 LINE",
"1311 570 LINE SMOOTH",
"1311 174 OFFCURVE",
"1115 -28 OFFCURVE",
"731 -28 CURVE SMOOTH",
"348 -28 OFFCURVE",
"150 177 OFFCURVE",
"150 570 CURVE SMOOTH"
);
},
{
closed = 1;
nodes = (
"805 1845 LINE",
"1069 1845 LINE",
"1069 1581 LINE",
"805 1581 LINE"
);
},
{
closed = 1;
nodes = (
"440 1845 LINE",
"705 1845 LINE",
"705 1581 LINE",
"440 1581 LINE"
);
}
);
width = 1461;
}
);
unicode = 00DC;
},
{
glyphname = Yacute;
lastChange = "2012-10-18 22:31:24 -0400";
layers = (
{
layerId = "D5D14868-B3D8-4E08-9530-062F6179E82D";
name = Bold;
paths = (
{
closed = 1;
nodes = (
"150 1493 LINE",
"441 1493 LINE",
"811 809 LINE",
"1178 1493 LINE",
"1469 1493 LINE",
"972 513 LINE",
"972 0 LINE",
"637 0 LINE",
"637 513 LINE"
);
},
{
closed = 1;
nodes = (
"875 1872 LINE",
"1148 1872 LINE",
"871 1551 LINE",
"636 1551 LINE"
);
}
);
width = 1619;
}
);
unicode = 00DD;
},
{
glyphname = Thorn;
lastChange = "2012-10-18 22:31:24 -0400";
layers = (
{
layerId = "D5D14868-B3D8-4E08-9530-062F6179E82D";
name = Bold;
paths = (
{
closed = 1;
nodes = (
"150 1493 LINE",
"418 1493 LINE",
"418 1242 LINE",
"621 1242 LINE SMOOTH",
"966 1242 OFFCURVE",
"1141 1087 OFFCURVE",
"1141 782 CURVE SMOOTH",
"1141 477 OFFCURVE",
"966 321 OFFCURVE",
"621 321 CURVE SMOOTH",
"418 321 LINE",
"418 0 LINE",
"150 0 LINE"
);
},
{
closed = 1;
nodes = (
"418 1009 LINE",
"418 554 LINE",
"621 554 LINE SMOOTH",
"777 554 OFFCURVE",
"863 637 OFFCURVE",
"863 782 CURVE SMOOTH",
"863 927 OFFCURVE",
"777 1009 OFFCURVE",
"621 1009 CURVE SMOOTH"
);
}
);
width = 1291;
}
);
unicode = 00DE;
},
{
glyphname = germandbls;
lastChange = "2012-10-18 22:31:24 -0400";
layers = (
{
layerId = "D5D14868-B3D8-4E08-9530-062F6179E82D";
name = Bold;
paths = (
{
closed = 1;
nodes = (
"208 1100 LINE",
"208 1233 OFFCURVE",
"249 1338 OFFCURVE",
"331 1414 CURVE SMOOTH",
"414 1489 OFFCURVE",
"528 1527 OFFCURVE",
"672 1527 CURVE SMOOTH",
"957 1527 OFFCURVE",
"1107 1357 OFFCURVE",
"1112 1029 CURVE",
"921 1018 OFFCURVE",
"813 956 OFFCURVE",
"813 860 CURVE SMOOTH",
"813 816 OFFCURVE",
"842 777 OFFCURVE",
"911 733 CURVE",
"910 733 LINE",
"963 698 LINE SMOOTH",
"1182 559 OFFCURVE",
"1226 482 OFFCURVE",
"1226 342 CURVE SMOOTH",
"1226 102 OFFCURVE",
"1070 -27 OFFCURVE",
"781 -27 CURVE SMOOTH",
"697 -27 OFFCURVE",
"601 -7 OFFCURVE",
"489 29 CURVE",
"489 337 LINE",
"618 289 OFFCURVE",
"713 266 OFFCURVE",
"793 266 CURVE SMOOTH",
"854 266 OFFCURVE",
"899 273 OFFCURVE",
"930 287 CURVE SMOOTH",
"960 301 OFFCURVE",
"975 321 OFFCURVE",
"975 346 CURVE SMOOTH",
"975 365 OFFCURVE",
"968 385 OFFCURVE",
"954 404 CURVE",
"941 425 OFFCURVE",
"904 454 OFFCURVE",
"843 491 CURVE",
"761 547 LINE",
"726 590 OFFCURVE",
"698 631 OFFCURVE",
"671 671 CURVE SMOOTH",
"640 718 OFFCURVE",
"625 775 OFFCURVE",
"625 840 CURVE SMOOTH",
"625 1013 OFFCURVE",
"702 1134 OFFCURVE",
"915 1175 CURVE",
"838 1336 OFFCURVE",
"796 1347 OFFCURVE",
"668 1347 CURVE SMOOTH",
"528 1347 OFFCURVE",
"462 1287 OFFCURVE",
"439 1092 CURVE",
"447 916 OFFCURVE",
"455 731 OFFCURVE",
"463 546 CURVE SMOOTH",
"471 361 OFFCURVE",
"479 175 OFFCURVE",
"487 0 CURVE",
"150 0 LINE"
);
}
);
width = 1376;
}
);
unicode = 00DF;
},
{
glyphname = ae;
lastChange = "2012-10-18 22:31:24 -0400";
layers = (
{
anchors = (
{
name = top;
position = "{1015, 1120}";
}
);
layerId = "D5D14868-B3D8-4E08-9530-062F6179E82D";
name = Bold;
paths = (
{
closed = 1;
nodes = (
"1636 747 LINE",
"1620 839 OFFCURVE",
"1538 975 OFFCURVE",
"1394 975 CURVE SMOOTH",
"1309 975 OFFCURVE",
"1242 946 OFFCURVE",
"1192 889 CURVE SMOOTH",
"1151 845 OFFCURVE",
"1123 795 OFFCURVE",
"1110 746 CURVE"
);
},
{
closed = 1;
nodes = (
"789 1145 OFFCURVE",
"924 1091 OFFCURVE",
"1004 995 CURVE",
"1103 1094 OFFCURVE",
"1232 1145 OFFCURVE",
"1392 1145 CURVE SMOOTH",
"1695 1145 OFFCURVE",
"1886 915 OFFCURVE",
"1886 659 CURVE SMOOTH",
"1886 538 LINE",
"1103 538 LINE",
"1130 425 OFFCURVE",
"1223 303 OFFCURVE",
"1432 303 CURVE SMOOTH",
"1557 303 OFFCURVE",
"1691 343 OFFCURVE",
"1846 427 CURVE",
"1846 93 LINE",
"1815 80 OFFCURVE",
"1778 65 OFFCURVE",
"1740 50 CURVE SMOOTH",
"1702 35 OFFCURVE",
"1664 21 OFFCURVE",
"1632 9 CURVE SMOOTH",
"1563 -15 OFFCURVE",
"1493 -27 OFFCURVE",
"1423 -27 CURVE SMOOTH",
"1214 -27 OFFCURVE",
"1069 28 OFFCURVE",
"964 168 CURVE",
"868 40 OFFCURVE",
"732 -27 OFFCURVE",
"560 -27 CURVE SMOOTH",
"303 -27 OFFCURVE",
"150 110 OFFCURVE",
"150 342 CURVE SMOOTH",
"150 677 OFFCURVE",
"329 791 OFFCURVE",
"658 791 CURVE SMOOTH",
"859 791 LINE",
"851 820 OFFCURVE",
"829 852 OFFCURVE",
"793 889 CURVE",
"749 938 OFFCURVE",
"685 962 OFFCURVE",
"602 962 CURVE SMOOTH",
"487 962 OFFCURVE",
"362 926 OFFCURVE",
"227 851 CURVE",
"227 1060 LINE",
"373 1117 OFFCURVE",
"504 1145 OFFCURVE",
"620 1145 CURVE SMOOTH"
);
},
{
closed = 1;
nodes = (
"862 581 LINE",
"862 588 LINE",
"862 619 LINE",
"899 581 LINE"
);
},
{
closed = 1;
nodes = (
"836 401 OFFCURVE",
"861 476 OFFCURVE",
"862 581 CURVE",
"728 581 LINE SMOOTH",
"595 581 OFFCURVE",
"505 570 OFFCURVE",
"456 547 CURVE SMOOTH",
"417 528 OFFCURVE",
"397 481 OFFCURVE",
"397 406 CURVE SMOOTH",
"397 330 OFFCURVE",
"468 285 OFFCURVE",
"583 285 CURVE SMOOTH",
"670 285 OFFCURVE",
"738 308 OFFCURVE",
"787 355 CURVE SMOOTH"
);
}
);
width = 2036;
}
);
unicode = 00E6;
},
{
glyphname = ccedilla;
lastChange = "2012-10-18 22:31:24 -0400";
layers = (
{
layerId = "D5D14868-B3D8-4E08-9530-062F6179E82D";
name = Bold;
paths = (
{
closed = 1;
nodes = (
"1052 829 LINE",
"925 899 OFFCURVE",
"814 934 OFFCURVE",
"721 934 CURVE SMOOTH",
"521 934 OFFCURVE",
"418 795 OFFCURVE",
"415 563 CURVE",
"424 487 OFFCURVE",
"450 429 OFFCURVE",
"490 400 CURVE",
"535 371 OFFCURVE",
"622 351 OFFCURVE",
"715 343 CURVE",
"862 343 LINE SMOOTH",
"905 344 OFFCURVE",
"966 364 OFFCURVE",
"1047 411 CURVE",
"1052 54 LINE",
"935 -1 OFFCURVE",
"823 -27 OFFCURVE",
"702 -27 CURVE SMOOTH",
"367 -27 OFFCURVE",
"150 206 OFFCURVE",
"150 559 CURVE SMOOTH",
"150 920 OFFCURVE",
"365 1145 OFFCURVE",
"713 1145 CURVE SMOOTH",
"824 1145 OFFCURVE",
"936 1119 OFFCURVE",
"1052 1066 CURVE"
);
},
{
closed = 1;
nodes = (
"796 75 LINE",
"879 -20 OFFCURVE",
"918 -92 OFFCURVE",
"918 -163 CURVE SMOOTH",
"918 -300 OFFCURVE",
"830 -369 OFFCURVE",
"658 -369 CURVE SMOOTH",
"597 -369 OFFCURVE",
"532 -358 OFFCURVE",
"457 -338 CURVE",
"457 -125 LINE",
"533 -164 OFFCURVE",
"587 -179 OFFCURVE",
"639 -179 CURVE SMOOTH",
"688 -179 OFFCURVE",
"713 -162 OFFCURVE",
"713 -129 CURVE SMOOTH",
"713 -114 OFFCURVE",
"703 -89 OFFCURVE",
"684 -56 CURVE SMOOTH",
"664 -23 OFFCURVE",
"634 20 OFFCURVE",
"594 75 CURVE"
);
}
);
width = 1202;
}
);
unicode = 00E7;
},
{
glyphname = egrave;
lastChange = "2012-10-18 22:31:24 -0400";
layers = (
{
layerId = "D5D14868-B3D8-4E08-9530-062F6179E82D";
name = Bold;
paths = (
{
closed = 1;
nodes = (
"1184 566 LINE",
"405 566 LINE",
"413 466 OFFCURVE",
"444 398 OFFCURVE",
"487 366 CURVE",
"544 331 OFFCURVE",
"637 310 OFFCURVE",
"738 302 CURVE",
"805 302 OFFCURVE",
"862 304 OFFCURVE",
"925 309 CURVE SMOOTH",
"984 314 OFFCURVE",
"1058 341 OFFCURVE",
"1149 389 CURVE",
"1154 65 LINE",
"1010 5 OFFCURVE",
"869 -27 OFFCURVE",
"728 -27 CURVE SMOOTH",
"553 -21 OFFCURVE",
"413 32 OFFCURVE",
"307 133 CURVE SMOOTH",
"202 235 OFFCURVE",
"150 374 OFFCURVE",
"150 551 CURVE SMOOTH",
"162 911 OFFCURVE",
"362 1145 OFFCURVE",
"701 1145 CURVE",
"851 1139 OFFCURVE",
"966 1098 OFFCURVE",
"1046 1022 CURVE",
"1045 1022 LINE",
"1125 946 OFFCURVE",
"1171 829 OFFCURVE",
"1184 671 CURVE"
);
},
{
closed = 1;
nodes = (
"950 791 LINE",
"935 826 OFFCURVE",
"908 867 OFFCURVE",
"877 904 CURVE SMOOTH",
"833 955 OFFCURVE",
"774 980 OFFCURVE",
"701 980 CURVE SMOOTH",
"615 980 OFFCURVE",
"547 955 OFFCURVE",
"497 904 CURVE",
"497 905 LINE",
"458 866 OFFCURVE",
"435 828 OFFCURVE",
"426 790 CURVE"
);
},
{
closed = 1;
nodes = (
"559 1603 LINE",
"879 1180 LINE",
"527 1180 LINE",
"293 1603 LINE"
);
}
);
width = 1334;
}
);
unicode = 00E8;
},
{
glyphname = eacute;
lastChange = "2012-10-18 22:31:24 -0400";
layers = (
{
layerId = "D5D14868-B3D8-4E08-9530-062F6179E82D";
name = Bold;
paths = (
{
closed = 1;
nodes = (
"1184 566 LINE",
"405 566 LINE",
"413 466 OFFCURVE",
"444 398 OFFCURVE",
"487 366 CURVE",
"544 331 OFFCURVE",
"637 310 OFFCURVE",
"738 302 CURVE",
"805 302 OFFCURVE",
"862 304 OFFCURVE",
"925 309 CURVE SMOOTH",
"984 314 OFFCURVE",
"1058 341 OFFCURVE",
"1149 389 CURVE",
"1154 65 LINE",
"1010 5 OFFCURVE",
"869 -27 OFFCURVE",
"728 -27 CURVE SMOOTH",
"553 -21 OFFCURVE",
"413 32 OFFCURVE",
"307 133 CURVE SMOOTH",
"202 235 OFFCURVE",
"150 374 OFFCURVE",
"150 551 CURVE SMOOTH",
"162 911 OFFCURVE",
"362 1145 OFFCURVE",
"701 1145 CURVE",
"851 1139 OFFCURVE",
"966 1098 OFFCURVE",
"1046 1022 CURVE",
"1045 1022 LINE",
"1125 946 OFFCURVE",
"1171 829 OFFCURVE",
"1184 671 CURVE"
);
},
{
closed = 1;
nodes = (
"950 791 LINE",
"935 826 OFFCURVE",
"908 867 OFFCURVE",
"877 904 CURVE SMOOTH",
"833 955 OFFCURVE",
"774 980 OFFCURVE",
"701 980 CURVE SMOOTH",
"615 980 OFFCURVE",
"547 955 OFFCURVE",
"497 904 CURVE",
"497 905 LINE",
"458 866 OFFCURVE",
"435 828 OFFCURVE",
"426 790 CURVE"
);
},
{
closed = 1;
nodes = (
"799 1603 LINE",
"1105 1603 LINE",
"702 1139 LINE",
"452 1139 LINE"
);
}
);
width = 1334;
}
);
unicode = 00E9;
},
{
glyphname = ecircumflex;
lastChange = "2012-10-18 22:31:24 -0400";
layers = (
{
layerId = "D5D14868-B3D8-4E08-9530-062F6179E82D";
name = Bold;
paths = (
{
closed = 1;
nodes = (
"1184 566 LINE",
"405 566 LINE",
"413 466 OFFCURVE",
"444 398 OFFCURVE",
"487 366 CURVE",
"544 331 OFFCURVE",
"637 310 OFFCURVE",
"738 302 CURVE",
"805 302 OFFCURVE",
"862 304 OFFCURVE",
"925 309 CURVE SMOOTH",
"984 314 OFFCURVE",
"1058 341 OFFCURVE",
"1149 389 CURVE",
"1154 65 LINE",
"1010 5 OFFCURVE",
"869 -27 OFFCURVE",
"728 -27 CURVE SMOOTH",
"553 -21 OFFCURVE",
"413 32 OFFCURVE",
"307 133 CURVE SMOOTH",
"202 235 OFFCURVE",
"150 374 OFFCURVE",
"150 551 CURVE SMOOTH",
"162 911 OFFCURVE",
"362 1145 OFFCURVE",
"701 1145 CURVE",
"851 1139 OFFCURVE",
"966 1098 OFFCURVE",
"1046 1022 CURVE",
"1045 1022 LINE",
"1125 946 OFFCURVE",
"1171 829 OFFCURVE",
"1184 671 CURVE"
);
},
{
closed = 1;
nodes = (
"950 791 LINE",
"935 826 OFFCURVE",
"908 867 OFFCURVE",
"877 904 CURVE SMOOTH",
"833 955 OFFCURVE",
"774 980 OFFCURVE",
"701 980 CURVE SMOOTH",
"615 980 OFFCURVE",
"547 955 OFFCURVE",
"497 904 CURVE",
"497 905 LINE",
"458 866 OFFCURVE",
"435 828 OFFCURVE",
"426 790 CURVE"
);
},
{
closed = 1;
nodes = (
"572 1603 LINE",
"752 1603 LINE",
"1029 1178 LINE",
"811 1178 LINE",
"662 1381 LINE",
"637 1347 OFFCURVE",
"611 1313 OFFCURVE",
"586 1278 CURVE SMOOTH",
"561 1243 OFFCURVE",
"536 1209 OFFCURVE",
"513 1178 CURVE",
"295 1178 LINE"
);
}
);
width = 1334;
}
);
unicode = 00EA;
},
{
glyphname = edieresis;
lastChange = "2012-10-18 22:31:24 -0400";
layers = (
{
layerId = "D5D14868-B3D8-4E08-9530-062F6179E82D";
name = Bold;
paths = (
{
closed = 1;
nodes = (
"1184 566 LINE",
"405 566 LINE",
"413 466 OFFCURVE",
"444 398 OFFCURVE",
"487 366 CURVE",
"544 331 OFFCURVE",
"637 310 OFFCURVE",
"738 302 CURVE",
"805 302 OFFCURVE",
"862 304 OFFCURVE",
"925 309 CURVE SMOOTH",
"984 314 OFFCURVE",
"1058 341 OFFCURVE",
"1149 389 CURVE",
"1154 65 LINE",
"1010 5 OFFCURVE",
"869 -27 OFFCURVE",
"728 -27 CURVE SMOOTH",
"553 -21 OFFCURVE",
"413 32 OFFCURVE",
"307 133 CURVE SMOOTH",
"202 235 OFFCURVE",
"150 374 OFFCURVE",
"150 551 CURVE SMOOTH",
"162 911 OFFCURVE",
"362 1145 OFFCURVE",
"701 1145 CURVE",
"851 1139 OFFCURVE",
"966 1098 OFFCURVE",
"1046 1022 CURVE",
"1045 1022 LINE",
"1125 946 OFFCURVE",
"1171 829 OFFCURVE",
"1184 671 CURVE"
);
},
{
closed = 1;
nodes = (
"950 791 LINE",
"935 826 OFFCURVE",
"908 867 OFFCURVE",
"877 904 CURVE SMOOTH",
"833 955 OFFCURVE",
"774 980 OFFCURVE",
"701 980 CURVE SMOOTH",
"615 980 OFFCURVE",
"547 955 OFFCURVE",
"497 904 CURVE",
"497 905 LINE",
"458 866 OFFCURVE",
"435 828 OFFCURVE",
"426 790 CURVE"
);
},
{
closed = 1;
nodes = (
"780 1537 LINE",
"1058 1537 LINE",
"1058 1260 LINE",
"780 1260 LINE"
);
},
{
closed = 1;
nodes = (
"389 1537 LINE",
"667 1537 LINE",
"667 1260 LINE",
"389 1260 LINE"
);
}
);
width = 1334;
}
);
unicode = 00EB;
},
{
glyphname = igrave;
lastChange = "2012-10-18 22:31:24 -0400";
layers = (
{
layerId = "D5D14868-B3D8-4E08-9530-062F6179E82D";
name = Bold;
paths = (
{
closed = 1;
nodes = (
"442 1120 LINE",
"689 1120 LINE",
"689 0 LINE",
"442 0 LINE"
);
},
{
closed = 1;
nodes = (
"416 1603 LINE",
"736 1180 LINE",
"384 1180 LINE",
"150 1603 LINE"
);
}
);
width = 886;
}
);
unicode = 00EC;
},
{
glyphname = iacute;
lastChange = "2012-10-18 22:31:24 -0400";
layers = (
{
layerId = "D5D14868-B3D8-4E08-9530-062F6179E82D";
name = Bold;
paths = (
{
closed = 1;
nodes = (
"173 1120 LINE",
"420 1120 LINE",
"420 0 LINE",
"173 0 LINE"
);
},
{
closed = 1;
nodes = (
"497 1603 LINE",
"803 1603 LINE",
"400 1139 LINE",
"150 1139 LINE"
);
}
);
width = 953;
}
);
unicode = 00ED;
},
{
glyphname = icircumflex;
lastChange = "2012-10-18 22:31:24 -0400";
layers = (
{
layerId = "D5D14868-B3D8-4E08-9530-062F6179E82D";
name = Bold;
paths = (
{
closed = 1;
nodes = (
"430 1120 LINE",
"677 1120 LINE",
"677 0 LINE",
"430 0 LINE"
);
},
{
closed = 1;
nodes = (
"427 1603 LINE",
"607 1603 LINE",
"884 1178 LINE",
"666 1178 LINE",
"517 1381 LINE",
"492 1347 OFFCURVE",
"466 1313 OFFCURVE",
"441 1278 CURVE SMOOTH",
"416 1243 OFFCURVE",
"391 1209 OFFCURVE",
"368 1178 CURVE",
"150 1178 LINE"
);
}
);
width = 1034;
}
);
unicode = 00EE;
},
{
glyphname = idieresis;
lastChange = "2012-10-18 22:31:24 -0400";
layers = (
{
layerId = "D5D14868-B3D8-4E08-9530-062F6179E82D";
name = Bold;
paths = (
{
closed = 1;
nodes = (
"376 1120 LINE",
"623 1120 LINE",
"623 0 LINE",
"376 0 LINE"
);
},
{
closed = 1;
nodes = (
"541 1537 LINE",
"819 1537 LINE",
"819 1260 LINE",
"541 1260 LINE"
);
},
{
closed = 1;
nodes = (
"150 1537 LINE",
"428 1537 LINE",
"428 1260 LINE",
"150 1260 LINE"
);
}
);
width = 969;
}
);
unicode = 00EF;
},
{
glyphname = eth;
lastChange = "2012-10-18 22:31:24 -0400";
layers = (
{
layerId = "D5D14868-B3D8-4E08-9530-062F6179E82D";
name = Bold;
paths = (
{
closed = 1;
nodes = (
"852 856 LINE",
"842 859 LINE",
"841 860 OFFCURVE",
"840 862 OFFCURVE",
"839 864 CURVE",
"838 865 OFFCURVE",
"836 867 OFFCURVE",
"835 868 CURVE"
);
},
{
closed = 1;
nodes = (
"927 676 OFFCURVE",
"899 782 OFFCURVE",
"842 859 CURVE",
"786 876 OFFCURVE",
"741 885 OFFCURVE",
"697 885 CURVE SMOOTH",
"604 885 OFFCURVE",
"533 856 OFFCURVE",
"482 797 CURVE",
"483 797 LINE",
"432 736 OFFCURVE",
"406 650 OFFCURVE",
"406 539 CURVE SMOOTH",
"406 320 OFFCURVE",
"508 193 OFFCURVE",
"667 193 CURVE SMOOTH",
"823 193 OFFCURVE",
"927 322 OFFCURVE",
"927 539 CURVE SMOOTH"
);
},
{
closed = 1;
nodes = (
"951 1127 LINE SMOOTH",
"1030 1035 OFFCURVE",
"1092 940 OFFCURVE",
"1128 848 CURVE SMOOTH",
"1165 753 OFFCURVE",
"1184 650 OFFCURVE",
"1184 539 CURVE SMOOTH",
"1184 200 OFFCURVE",
"974 -27 OFFCURVE",
"667 -27 CURVE SMOOTH",
"358 -27 OFFCURVE",
"150 199 OFFCURVE",
"150 539 CURVE SMOOTH",
"150 868 OFFCURVE",
"352 1099 OFFCURVE",
"651 1099 CURVE SMOOTH",
"654 1099 OFFCURVE",
"656 1099 OFFCURVE",
"656 1100 CURVE",
"656 1100 OFFCURVE",
"655 1100 OFFCURVE",
"654 1100 CURVE",
"655 1100 OFFCURVE",
"657 1100 OFFCURVE",
"659 1100 CURVE",
"661 1099 OFFCURVE",
"663 1099 OFFCURVE",
"665 1099 CURVE",
"596 1178 LINE",
"548 1162 OFFCURVE",
"494 1144 OFFCURVE",
"440 1125 CURVE SMOOTH",
"386 1106 OFFCURVE",
"331 1088 OFFCURVE",
"286 1073 CURVE",
"231 1237 LINE",
"476 1318 LINE",
"461 1335 OFFCURVE",
"446 1353 OFFCURVE",
"429 1372 CURVE SMOOTH",
"412 1391 OFFCURVE",
"395 1410 OFFCURVE",
"378 1429 CURVE SMOOTH",
"361 1448 OFFCURVE",
"345 1466 OFFCURVE",
"330 1483 CURVE SMOOTH",
"315 1500 OFFCURVE",
"301 1514 OFFCURVE",
"290 1527 CURVE",
"602 1527 LINE",
"716 1397 LINE",
"1038 1505 LINE",
"1093 1344 LINE",
"835 1258 LINE"
);
}
);
width = 1334;
}
);
unicode = 00F0;
},
{
glyphname = ntilde;
lastChange = "2012-10-18 22:31:24 -0400";
layers = (
{
layerId = "D5D14868-B3D8-4E08-9530-062F6179E82D";
name = Bold;
paths = (
{
closed = 1;
nodes = (
"1168 0 LINE",
"843 0 LINE",
"882 674 LINE",
"882 846 OFFCURVE",
"834 931 OFFCURVE",
"707 931 CURVE SMOOTH",
"519 931 OFFCURVE",
"435 823 OFFCURVE",
"435 639 CURVE",
"465 0 LINE",
"150 0 LINE",
"180 1129 LINE",
"426 1129 LINE",
"426 1040 LINE",
"454 1059 OFFCURVE",
"483 1075 OFFCURVE",
"515 1094 CURVE",
"576 1127 OFFCURVE",
"646 1145 OFFCURVE",
"726 1145 CURVE SMOOTH",
"987 1145 OFFCURVE",
"1122 974 OFFCURVE",
"1138 670 CURVE SMOOTH"
);
},
{
closed = 1;
nodes = (
"495 1340 LINE",
"496 1340 LINE",
"477 1357 OFFCURVE",
"464 1366 OFFCURVE",
"458 1366 CURVE SMOOTH",
"447 1366 OFFCURVE",
"438 1355 OFFCURVE",
"433 1332 CURVE SMOOTH",
"428 1309 OFFCURVE",
"424 1273 OFFCURVE",
"423 1222 CURVE",
"232 1222 LINE",
"235 1438 OFFCURVE",
"315 1560 OFFCURVE",
"452 1560 CURVE SMOOTH",
"511 1560 OFFCURVE",
"552 1541 OFFCURVE",
"607 1492 CURVE SMOOTH",
"661 1441 LINE",
"660 1441 LINE",
"679 1424 OFFCURVE",
"692 1415 OFFCURVE",
"698 1415 CURVE SMOOTH",
"709 1415 OFFCURVE",
"718 1426 OFFCURVE",
"723 1449 CURVE SMOOTH",
"728 1472 OFFCURVE",
"732 1509 OFFCURVE",
"733 1560 CURVE",
"924 1560 LINE",
"920 1343 OFFCURVE",
"841 1222 OFFCURVE",
"704 1222 CURVE SMOOTH",
"644 1222 OFFCURVE",
"601 1240 OFFCURVE",
"548 1288 CURVE"
);
}
);
width = 1318;
}
);
unicode = 00F1;
},
{
glyphname = ograve;
lastChange = "2012-10-18 22:31:24 -0400";
layers = (
{
layerId = "D5D14868-B3D8-4E08-9530-062F6179E82D";
name = Bold;
paths = (
{
closed = 1;
nodes = (
"518 944 OFFCURVE",
"415 813 OFFCURVE",
"415 589 CURVE SMOOTH",
"415 373 OFFCURVE",
"505 344 OFFCURVE",
"677 344 CURVE SMOOTH",
"760 344 OFFCURVE",
"827 361 OFFCURVE",
"874 388 CURVE",
"916 415 OFFCURVE",
"937 482 OFFCURVE",
"937 589 CURVE SMOOTH",
"937 814 OFFCURVE",
"834 944 OFFCURVE",
"677 944 CURVE SMOOTH"
);
},
{
closed = 1;
nodes = (
"998 1145 OFFCURVE",
"1194 919 OFFCURVE",
"1194 559 CURVE SMOOTH",
"1194 199 OFFCURVE",
"998 -27 OFFCURVE",
"677 -27 CURVE SMOOTH",
"514 -27 OFFCURVE",
"387 26 OFFCURVE",
"296 132 CURVE SMOOTH",
"204 236 OFFCURVE",
"160 378 OFFCURVE",
"160 559 CURVE SMOOTH",
"160 740 OFFCURVE",
"204 882 OFFCURVE",
"296 987 CURVE SMOOTH",
"387 1092 OFFCURVE",
"514 1145 OFFCURVE",
"677 1145 CURVE SMOOTH"
);
},
{
closed = 1;
nodes = (
"416 1603 LINE",
"736 1180 LINE",
"384 1180 LINE",
"150 1603 LINE"
);
}
);
width = 1344;
}
);
unicode = 00F2;
},
{
glyphname = oacute;
lastChange = "2012-10-18 22:31:24 -0400";
layers = (
{
layerId = "D5D14868-B3D8-4E08-9530-062F6179E82D";
name = Bold;
paths = (
{
closed = 1;
nodes = (
"508 944 OFFCURVE",
"405 813 OFFCURVE",
"405 589 CURVE SMOOTH",
"405 373 OFFCURVE",
"495 344 OFFCURVE",
"667 344 CURVE SMOOTH",
"750 344 OFFCURVE",
"817 361 OFFCURVE",
"864 388 CURVE",
"906 415 OFFCURVE",
"927 482 OFFCURVE",
"927 589 CURVE SMOOTH",
"927 814 OFFCURVE",
"824 944 OFFCURVE",
"667 944 CURVE SMOOTH"
);
},
{
closed = 1;
nodes = (
"988 1145 OFFCURVE",
"1184 919 OFFCURVE",
"1184 559 CURVE SMOOTH",
"1184 199 OFFCURVE",
"988 -27 OFFCURVE",
"667 -27 CURVE SMOOTH",
"504 -27 OFFCURVE",
"377 26 OFFCURVE",
"286 132 CURVE SMOOTH",
"194 236 OFFCURVE",
"150 378 OFFCURVE",
"150 559 CURVE SMOOTH",
"150 740 OFFCURVE",
"194 882 OFFCURVE",
"286 987 CURVE SMOOTH",
"377 1092 OFFCURVE",
"504 1145 OFFCURVE",
"667 1145 CURVE SMOOTH"
);
},
{
closed = 1;
nodes = (
"856 1603 LINE",
"1162 1603 LINE",
"759 1139 LINE",
"509 1139 LINE"
);
}
);
width = 1334;
}
);
unicode = 00F3;
},
{
glyphname = ocircumflex;
lastChange = "2012-10-18 22:31:24 -0400";
layers = (
{
layerId = "D5D14868-B3D8-4E08-9530-062F6179E82D";
name = Bold;
paths = (
{
closed = 1;
nodes = (
"508 944 OFFCURVE",
"405 813 OFFCURVE",
"405 589 CURVE SMOOTH",
"405 373 OFFCURVE",
"495 344 OFFCURVE",
"667 344 CURVE SMOOTH",
"750 344 OFFCURVE",
"817 361 OFFCURVE",
"864 388 CURVE",
"906 415 OFFCURVE",
"927 482 OFFCURVE",
"927 589 CURVE SMOOTH",
"927 814 OFFCURVE",
"824 944 OFFCURVE",
"667 944 CURVE SMOOTH"
);
},
{
closed = 1;
nodes = (
"988 1145 OFFCURVE",
"1184 919 OFFCURVE",
"1184 559 CURVE SMOOTH",
"1184 199 OFFCURVE",
"988 -27 OFFCURVE",
"667 -27 CURVE SMOOTH",
"504 -27 OFFCURVE",
"377 26 OFFCURVE",
"286 132 CURVE SMOOTH",
"194 236 OFFCURVE",
"150 378 OFFCURVE",
"150 559 CURVE SMOOTH",
"150 740 OFFCURVE",
"194 882 OFFCURVE",
"286 987 CURVE SMOOTH",
"377 1092 OFFCURVE",
"504 1145 OFFCURVE",
"667 1145 CURVE SMOOTH"
);
},
{
closed = 1;
nodes = (
"529 1603 LINE",
"709 1603 LINE",
"986 1178 LINE",
"768 1178 LINE",
"619 1381 LINE",
"594 1347 OFFCURVE",
"568 1313 OFFCURVE",
"543 1278 CURVE SMOOTH",
"518 1243 OFFCURVE",
"493 1209 OFFCURVE",
"470 1178 CURVE",
"252 1178 LINE"
);
}
);
width = 1334;
}
);
unicode = 00F4;
},
{
glyphname = otilde;
lastChange = "2012-10-18 22:31:24 -0400";
layers = (
{
layerId = "D5D14868-B3D8-4E08-9530-062F6179E82D";
name = Bold;
paths = (
{
closed = 1;
nodes = (
"508 944 OFFCURVE",
"405 813 OFFCURVE",
"405 589 CURVE SMOOTH",
"405 373 OFFCURVE",
"495 344 OFFCURVE",
"667 344 CURVE SMOOTH",
"750 344 OFFCURVE",
"817 361 OFFCURVE",
"864 388 CURVE",
"906 415 OFFCURVE",
"927 482 OFFCURVE",
"927 589 CURVE SMOOTH",
"927 814 OFFCURVE",
"824 944 OFFCURVE",
"667 944 CURVE SMOOTH"
);
},
{
closed = 1;
nodes = (
"988 1145 OFFCURVE",
"1184 919 OFFCURVE",
"1184 559 CURVE SMOOTH",
"1184 199 OFFCURVE",
"988 -27 OFFCURVE",
"667 -27 CURVE SMOOTH",
"504 -27 OFFCURVE",
"377 26 OFFCURVE",
"286 132 CURVE SMOOTH",
"194 236 OFFCURVE",
"150 378 OFFCURVE",
"150 559 CURVE SMOOTH",
"150 740 OFFCURVE",
"194 882 OFFCURVE",
"286 987 CURVE SMOOTH",
"377 1092 OFFCURVE",
"504 1145 OFFCURVE",
"667 1145 CURVE SMOOTH"
);
},
{
closed = 1;
nodes = (
"569 1340 LINE",
"570 1340 LINE",
"551 1357 OFFCURVE",
"538 1366 OFFCURVE",
"532 1366 CURVE SMOOTH",
"521 1366 OFFCURVE",
"512 1355 OFFCURVE",
"507 1332 CURVE SMOOTH",
"502 1309 OFFCURVE",
"498 1273 OFFCURVE",
"497 1222 CURVE",
"306 1222 LINE",
"309 1438 OFFCURVE",
"389 1560 OFFCURVE",
"526 1560 CURVE SMOOTH",
"585 1560 OFFCURVE",
"626 1541 OFFCURVE",
"681 1492 CURVE SMOOTH",
"735 1441 LINE",
"734 1441 LINE",
"753 1424 OFFCURVE",
"766 1415 OFFCURVE",
"772 1415 CURVE SMOOTH",
"783 1415 OFFCURVE",
"792 1426 OFFCURVE",
"797 1449 CURVE SMOOTH",
"802 1472 OFFCURVE",
"806 1509 OFFCURVE",
"807 1560 CURVE",
"998 1560 LINE",
"994 1343 OFFCURVE",
"915 1222 OFFCURVE",
"778 1222 CURVE SMOOTH",
"718 1222 OFFCURVE",
"675 1240 OFFCURVE",
"622 1288 CURVE"
);
}
);
width = 1334;
}
);
unicode = 00F5;
},
{
glyphname = odieresis;
lastChange = "2012-10-18 22:31:24 -0400";
layers = (
{
layerId = "D5D14868-B3D8-4E08-9530-062F6179E82D";
name = Bold;
paths = (
{
closed = 1;
nodes = (
"508 944 OFFCURVE",
"405 813 OFFCURVE",
"405 589 CURVE SMOOTH",
"405 373 OFFCURVE",
"495 344 OFFCURVE",
"667 344 CURVE SMOOTH",
"750 344 OFFCURVE",
"817 361 OFFCURVE",
"864 388 CURVE",
"906 415 OFFCURVE",
"927 482 OFFCURVE",
"927 589 CURVE SMOOTH",
"927 814 OFFCURVE",
"824 944 OFFCURVE",
"667 944 CURVE SMOOTH"
);
},
{
closed = 1;
nodes = (
"988 1145 OFFCURVE",
"1184 919 OFFCURVE",
"1184 559 CURVE SMOOTH",
"1184 199 OFFCURVE",
"988 -27 OFFCURVE",
"667 -27 CURVE SMOOTH",
"504 -27 OFFCURVE",
"377 26 OFFCURVE",
"286 132 CURVE SMOOTH",
"194 236 OFFCURVE",
"150 378 OFFCURVE",
"150 559 CURVE SMOOTH",
"150 740 OFFCURVE",
"194 882 OFFCURVE",
"286 987 CURVE SMOOTH",
"377 1092 OFFCURVE",
"504 1145 OFFCURVE",
"667 1145 CURVE SMOOTH"
);
},
{
closed = 1;
nodes = (
"797 1537 LINE",
"1075 1537 LINE",
"1075 1260 LINE",
"797 1260 LINE"
);
},
{
closed = 1;
nodes = (
"406 1537 LINE",
"684 1537 LINE",
"684 1260 LINE",
"406 1260 LINE"
);
}
);
width = 1334;
}
);
unicode = 00F6;
},
{
glyphname = divide;
lastChange = "2012-10-18 22:31:24 -0400";
layers = (
{
layerId = "D5D14868-B3D8-4E08-9530-062F6179E82D";
name = Bold;
paths = (
{
closed = 1;
nodes = (
"634 1181 LINE",
"985 1181 LINE",
"985 830 LINE",
"634 830 LINE"
);
},
{
closed = 1;
nodes = (
"634 397 LINE",
"985 397 LINE",
"985 47 LINE",
"634 47 LINE"
);
},
{
closed = 1;
nodes = (
"150 753 LINE",
"1468 753 LINE",
"1468 473 LINE",
"150 473 LINE"
);
}
);
width = 1618;
}
);
unicode = 00F7;
},
{
glyphname = oslash;
lastChange = "2012-10-18 22:31:24 -0400";
layers = (
{
anchors = (
{
name = top;
position = "{719, 1120}";
}
);
layerId = "D5D14868-B3D8-4E08-9530-062F6179E82D";
name = Bold;
paths = (
{
closed = 1;
nodes = (
"576 237 LINE",
"616 206 OFFCURVE",
"660 193 OFFCURVE",
"720 193 CURVE SMOOTH",
"877 193 OFFCURVE",
"980 326 OFFCURVE",
"980 559 CURVE SMOOTH",
"980 623 OFFCURVE",
"978 666 OFFCURVE",
"966 709 CURVE"
);
},
{
closed = 1;
nodes = (
"862 881 LINE",
"822 912 OFFCURVE",
"776 925 OFFCURVE",
"720 925 CURVE SMOOTH",
"640 925 OFFCURVE",
"575 891 OFFCURVE",
"530 831 CURVE SMOOTH",
"483 764 OFFCURVE",
"459 669 OFFCURVE",
"459 546 CURVE SMOOTH",
"459 495 OFFCURVE",
"463 447 OFFCURVE",
"472 410 CURVE"
);
},
{
closed = 1;
nodes = (
"294 193 LINE",
"230 293 OFFCURVE",
"203 410 OFFCURVE",
"203 559 CURVE SMOOTH",
"203 920 OFFCURVE",
"397 1145 OFFCURVE",
"720 1145 CURVE SMOOTH",
"831 1145 OFFCURVE",
"928 1118 OFFCURVE",
"1011 1063 CURVE",
"1031 1088 OFFCURVE",
"1055 1117 OFFCURVE",
"1079 1145 CURVE",
"1090 1159 OFFCURVE",
"1102 1173 OFFCURVE",
"1113 1186 CURVE SMOOTH",
"1124 1199 OFFCURVE",
"1134 1211 OFFCURVE",
"1143 1222 CURVE",
"1288 1100 LINE",
"1146 926 LINE",
"1207 826 OFFCURVE",
"1237 704 OFFCURVE",
"1237 559 CURVE SMOOTH",
"1237 200 OFFCURVE",
"1043 -27 OFFCURVE",
"720 -27 CURVE SMOOTH",
"605 -27 OFFCURVE",
"507 0 OFFCURVE",
"428 55 CURVE",
"418 42 OFFCURVE",
"407 29 OFFCURVE",
"396 16 CURVE SMOOTH",
"372 -12 OFFCURVE",
"349 -40 OFFCURVE",
"327 -67 CURVE SMOOTH",
"316 -80 OFFCURVE",
"306 -92 OFFCURVE",
"297 -103 CURVE",
"150 17 LINE"
);
}
);
width = 1438;
}
);
unicode = 00F8;
},
{
glyphname = ugrave;
lastChange = "2012-10-18 22:31:24 -0400";
layers = (
{
layerId = "D5D14868-B3D8-4E08-9530-062F6179E82D";
name = Bold;
paths = (
{
closed = 1;
nodes = (
"150 1120 LINE",
"368 1120 LINE",
"368 608 LINE",
"379 437 OFFCURVE",
"435 346 OFFCURVE",
"562 346 CURVE SMOOTH",
"644 346 OFFCURVE",
"706 371 OFFCURVE",
"749 422 CURVE SMOOTH",
"794 473 OFFCURVE",
"818 551 OFFCURVE",
"825 642 CURVE",
"836 1120 LINE",
"1110 1120 LINE",
"1090 0 LINE",
"841 0 LINE",
"846 85 LINE",
"769 10 OFFCURVE",
"671 -27 OFFCURVE",
"554 -27 CURVE SMOOTH",
"289 -27 OFFCURVE",
"150 137 OFFCURVE",
"150 450 CURVE SMOOTH"
);
},
{
closed = 1;
nodes = (
"421 1603 LINE",
"741 1180 LINE",
"389 1180 LINE",
"155 1603 LINE"
);
}
);
width = 1260;
}
);
unicode = 00F9;
},
{
glyphname = uacute;
lastChange = "2012-10-18 22:31:24 -0400";
layers = (
{
layerId = "D5D14868-B3D8-4E08-9530-062F6179E82D";
name = Bold;
paths = (
{
closed = 1;
nodes = (
"150 1120 LINE",
"368 1120 LINE",
"368 608 LINE",
"379 437 OFFCURVE",
"435 346 OFFCURVE",
"562 346 CURVE SMOOTH",
"644 346 OFFCURVE",
"706 371 OFFCURVE",
"749 422 CURVE SMOOTH",
"794 473 OFFCURVE",
"818 551 OFFCURVE",
"825 642 CURVE",
"836 1120 LINE",
"1110 1120 LINE",
"1090 0 LINE",
"841 0 LINE",
"846 85 LINE",
"769 10 OFFCURVE",
"671 -27 OFFCURVE",
"554 -27 CURVE SMOOTH",
"289 -27 OFFCURVE",
"150 137 OFFCURVE",
"150 450 CURVE SMOOTH"
);
},
{
closed = 1;
nodes = (
"771 1603 LINE",
"1077 1603 LINE",
"674 1139 LINE",
"424 1139 LINE"
);
}
);
width = 1260;
}
);
unicode = 00FA;
},
{
glyphname = ucircumflex;
lastChange = "2012-10-18 22:31:24 -0400";
layers = (
{
layerId = "D5D14868-B3D8-4E08-9530-062F6179E82D";
name = Bold;
paths = (
{
closed = 1;
nodes = (
"150 1120 LINE",
"368 1120 LINE",
"368 608 LINE",
"379 437 OFFCURVE",
"435 346 OFFCURVE",
"562 346 CURVE SMOOTH",
"644 346 OFFCURVE",
"706 371 OFFCURVE",
"749 422 CURVE SMOOTH",
"794 473 OFFCURVE",
"818 551 OFFCURVE",
"825 642 CURVE",
"836 1120 LINE",
"1110 1120 LINE",
"1090 0 LINE",
"841 0 LINE",
"846 85 LINE",
"769 10 OFFCURVE",
"671 -27 OFFCURVE",
"554 -27 CURVE SMOOTH",
"289 -27 OFFCURVE",
"150 137 OFFCURVE",
"150 450 CURVE SMOOTH"
);
},
{
closed = 1;
nodes = (
"544 1603 LINE",
"724 1603 LINE",
"1001 1178 LINE",
"783 1178 LINE",
"634 1381 LINE",
"609 1347 OFFCURVE",
"583 1313 OFFCURVE",
"558 1278 CURVE SMOOTH",
"533 1243 OFFCURVE",
"508 1209 OFFCURVE",
"485 1178 CURVE",
"267 1178 LINE"
);
}
);
width = 1260;
}
);
unicode = 00FB;
},
{
glyphname = udieresis;
lastChange = "2012-10-18 22:31:24 -0400";
layers = (
{
layerId = "D5D14868-B3D8-4E08-9530-062F6179E82D";
name = Bold;
paths = (
{
closed = 1;
nodes = (
"150 1120 LINE",
"368 1120 LINE",
"368 608 LINE",
"379 437 OFFCURVE",
"435 346 OFFCURVE",
"562 346 CURVE SMOOTH",
"644 346 OFFCURVE",
"706 371 OFFCURVE",
"749 422 CURVE SMOOTH",
"794 473 OFFCURVE",
"818 551 OFFCURVE",
"825 642 CURVE",
"836 1120 LINE",
"1110 1120 LINE",
"1090 0 LINE",
"841 0 LINE",
"846 85 LINE",
"769 10 OFFCURVE",
"671 -27 OFFCURVE",
"554 -27 CURVE SMOOTH",
"289 -27 OFFCURVE",
"150 137 OFFCURVE",
"150 450 CURVE SMOOTH"
);
},
{
closed = 1;
nodes = (
"712 1537 LINE",
"990 1537 LINE",
"990 1260 LINE",
"712 1260 LINE"
);
},
{
closed = 1;
nodes = (
"321 1537 LINE",
"599 1537 LINE",
"599 1260 LINE",
"321 1260 LINE"
);
}
);
width = 1260;
}
);
unicode = 00FC;
},
{
glyphname = yacute;
lastChange = "2012-10-18 22:31:24 -0400";
layers = (
{
layerId = "D5D14868-B3D8-4E08-9530-062F6179E82D";
name = Bold;
paths = (
{
closed = 1;
nodes = (
"819 -74 LINE",
"694 -359 OFFCURVE",
"592 -416 OFFCURVE",
"420 -416 CURVE SMOOTH",
"227 -416 LINE",
"227 -114 LINE",
"384 -114 LINE SMOOTH",
"421 -114 OFFCURVE",
"451 -105 OFFCURVE",
"470 -90 CURVE",
"493 -70 OFFCURVE",
"520 -42 OFFCURVE",
"547 -7 CURVE",
"558 16 OFFCURVE",
"570 38 OFFCURVE",
"581 59 CURVE SMOOTH",
"592 80 OFFCURVE",
"603 102 OFFCURVE",
"614 125 CURVE",
"577 204 OFFCURVE",
"539 285 OFFCURVE",
"500 369 CURVE SMOOTH",
"421 537 OFFCURVE",
"342 708 OFFCURVE",
"264 876 CURVE SMOOTH",
"225 960 OFFCURVE",
"187 1041 OFFCURVE",
"150 1120 CURVE",
"410 1120 LINE",
"755 553 LINE",
"1020 1120 LINE",
"1279 1120 LINE"
);
},
{
closed = 1;
nodes = (
"908 1603 LINE",
"1214 1603 LINE",
"811 1139 LINE",
"561 1139 LINE"
);
}
);
width = 1429;
}
);
unicode = 00FD;
},
{
glyphname = thorn;
lastChange = "2012-10-18 22:31:24 -0400";
layers = (
{
layerId = "D5D14868-B3D8-4E08-9530-062F6179E82D";
name = Bold;
paths = (
{
closed = 1;
nodes = (
"397 -398 LINE",
"150 -398 LINE",
"150 1527 LINE",
"397 1527 LINE",
"397 1035 LINE",
"473 1111 OFFCURVE",
"569 1145 OFFCURVE",
"694 1145 CURVE SMOOTH",
"970 1145 OFFCURVE",
"1160 906 OFFCURVE",
"1160 559 CURVE SMOOTH",
"1160 212 OFFCURVE",
"970 -27 OFFCURVE",
"694 -27 CURVE SMOOTH",
"569 -27 OFFCURVE",
"473 7 OFFCURVE",
"397 83 CURVE"
);
},
{
closed = 1;
nodes = (
"907 794 OFFCURVE",
"807 927 OFFCURVE",
"652 927 CURVE SMOOTH",
"575 927 OFFCURVE",
"514 896 OFFCURVE",
"467 833 CURVE",
"468 834 LINE",
"421 769 OFFCURVE",
"397 678 OFFCURVE",
"397 559 CURVE SMOOTH",
"397 440 OFFCURVE",
"421 348 OFFCURVE",
"468 283 CURVE",
"467 284 LINE",
"512 222 OFFCURVE",
"573 191 OFFCURVE",
"652 191 CURVE SMOOTH",
"731 191 OFFCURVE",
"792 222 OFFCURVE",
"835 283 CURVE SMOOTH",
"883 348 OFFCURVE",
"907 440 OFFCURVE",
"907 559 CURVE SMOOTH"
);
}
);
width = 1310;
}
);
unicode = 00FE;
},
{
glyphname = ydieresis;
lastChange = "2012-10-18 22:31:24 -0400";
layers = (
{
layerId = "D5D14868-B3D8-4E08-9530-062F6179E82D";
name = Bold;
paths = (
{
closed = 1;
nodes = (
"819 -74 LINE",
"694 -359 OFFCURVE",
"592 -416 OFFCURVE",
"420 -416 CURVE SMOOTH",
"227 -416 LINE",
"227 -114 LINE",
"384 -114 LINE SMOOTH",
"421 -114 OFFCURVE",
"451 -105 OFFCURVE",
"470 -90 CURVE",
"493 -70 OFFCURVE",
"520 -42 OFFCURVE",
"547 -7 CURVE",
"558 16 OFFCURVE",
"570 38 OFFCURVE",
"581 59 CURVE SMOOTH",
"592 80 OFFCURVE",
"603 102 OFFCURVE",
"614 125 CURVE",
"577 204 OFFCURVE",
"539 285 OFFCURVE",
"500 369 CURVE SMOOTH",
"421 537 OFFCURVE",
"342 708 OFFCURVE",
"264 876 CURVE SMOOTH",
"225 960 OFFCURVE",
"187 1041 OFFCURVE",
"150 1120 CURVE",
"410 1120 LINE",
"755 553 LINE",
"1020 1120 LINE",
"1279 1120 LINE"
);
},
{
closed = 1;
nodes = (
"739 1537 LINE",
"1017 1537 LINE",
"1017 1260 LINE",
"739 1260 LINE"
);
},
{
closed = 1;
nodes = (
"348 1537 LINE",
"626 1537 LINE",
"626 1260 LINE",
"348 1260 LINE"
);
}
);
width = 1429;
}
);
unicode = 00FF;
},
{
glyphname = Cacute;
lastChange = "2012-10-18 22:31:24 -0400";
layers = (
{
layerId = "D5D14868-B3D8-4E08-9530-062F6179E82D";
name = Bold;
paths = (
{
closed = 1;
nodes = (
"1368 1056 LINE",
"1201 1211 OFFCURVE",
"1046 1285 OFFCURVE",
"891 1285 CURVE SMOOTH",
"590 1285 OFFCURVE",
"428 1097 OFFCURVE",
"428 745 CURVE SMOOTH",
"433 440 OFFCURVE",
"582 339 OFFCURVE",
"891 339 CURVE SMOOTH",
"1046 339 OFFCURVE",
"1201 413 OFFCURVE",
"1368 568 CURVE",
"1368 127 LINE",
"1217 24 OFFCURVE",
"1056 -28 OFFCURVE",
"880 -28 CURVE SMOOTH",
"429 -28 OFFCURVE",
"150 270 OFFCURVE",
"150 745 CURVE SMOOTH",
"150 1218 OFFCURVE",
"428 1519 OFFCURVE",
"880 1519 CURVE SMOOTH",
"1055 1519 OFFCURVE",
"1218 1468 OFFCURVE",
"1368 1366 CURVE"
);
},
{
closed = 1;
nodes = (
"973 1872 LINE",
"1246 1872 LINE",
"969 1551 LINE",
"734 1551 LINE"
);
}
);
width = 1518;
}
);
unicode = 0106;
},
{
glyphname = cacute;
lastChange = "2012-10-18 22:31:24 -0400";
layers = (
{
layerId = "D5D14868-B3D8-4E08-9530-062F6179E82D";
name = Bold;
paths = (
{
closed = 1;
nodes = (
"1052 829 LINE",
"925 899 OFFCURVE",
"814 934 OFFCURVE",
"721 934 CURVE SMOOTH",
"521 934 OFFCURVE",
"418 795 OFFCURVE",
"415 563 CURVE",
"424 487 OFFCURVE",
"450 429 OFFCURVE",
"490 400 CURVE",
"535 371 OFFCURVE",
"622 351 OFFCURVE",
"715 343 CURVE",
"862 343 LINE SMOOTH",
"905 344 OFFCURVE",
"966 364 OFFCURVE",
"1047 411 CURVE",
"1052 54 LINE",
"935 -1 OFFCURVE",
"823 -27 OFFCURVE",
"702 -27 CURVE SMOOTH",
"367 -27 OFFCURVE",
"150 206 OFFCURVE",
"150 559 CURVE SMOOTH",
"150 920 OFFCURVE",
"365 1145 OFFCURVE",
"713 1145 CURVE SMOOTH",
"824 1145 OFFCURVE",
"936 1119 OFFCURVE",
"1052 1066 CURVE"
);
},
{
closed = 1;
nodes = (
"808 1603 LINE",
"1114 1603 LINE",
"711 1139 LINE",
"461 1139 LINE"
);
}
);
width = 1264;
}
);
unicode = 0107;
},
{
glyphname = Ccaron;
lastChange = "2012-10-18 22:31:24 -0400";
layers = (
{
layerId = "D5D14868-B3D8-4E08-9530-062F6179E82D";
name = Bold;
paths = (
{
closed = 1;
nodes = (
"1368 1056 LINE",
"1201 1211 OFFCURVE",
"1046 1285 OFFCURVE",
"891 1285 CURVE SMOOTH",
"590 1285 OFFCURVE",
"428 1097 OFFCURVE",
"428 745 CURVE SMOOTH",
"433 440 OFFCURVE",
"582 339 OFFCURVE",
"891 339 CURVE SMOOTH",
"1046 339 OFFCURVE",
"1201 413 OFFCURVE",
"1368 568 CURVE",
"1368 127 LINE",
"1217 24 OFFCURVE",
"1056 -28 OFFCURVE",
"880 -28 CURVE SMOOTH",
"429 -28 OFFCURVE",
"150 270 OFFCURVE",
"150 745 CURVE SMOOTH",
"150 1218 OFFCURVE",
"428 1519 OFFCURVE",
"880 1519 CURVE SMOOTH",
"1055 1519 OFFCURVE",
"1218 1468 OFFCURVE",
"1368 1366 CURVE"
);
},
{
closed = 1;
nodes = (
"625 1551 LINE",
"369 1874 LINE",
"592 1874 LINE",
"732 1724 LINE",
"755 1749 OFFCURVE",
"779 1774 OFFCURVE",
"803 1800 CURVE SMOOTH",
"826 1826 OFFCURVE",
"849 1851 OFFCURVE",
"870 1874 CURVE",
"1093 1874 LINE",
"836 1551 LINE"
);
}
);
width = 1518;
}
);
unicode = 010C;
},
{
glyphname = ccaron;
lastChange = "2012-10-18 22:31:24 -0400";
layers = (
{
layerId = "D5D14868-B3D8-4E08-9530-062F6179E82D";
name = Bold;
paths = (
{
closed = 1;
nodes = (
"1052 829 LINE",
"925 899 OFFCURVE",
"814 934 OFFCURVE",
"721 934 CURVE SMOOTH",
"521 934 OFFCURVE",
"418 795 OFFCURVE",
"415 563 CURVE",
"424 487 OFFCURVE",
"450 429 OFFCURVE",
"490 400 CURVE",
"535 371 OFFCURVE",
"622 351 OFFCURVE",
"715 343 CURVE",
"862 343 LINE SMOOTH",
"905 344 OFFCURVE",
"966 364 OFFCURVE",
"1047 411 CURVE",
"1052 54 LINE",
"935 -1 OFFCURVE",
"823 -27 OFFCURVE",
"702 -27 CURVE SMOOTH",
"367 -27 OFFCURVE",
"150 206 OFFCURVE",
"150 559 CURVE SMOOTH",
"150 920 OFFCURVE",
"365 1145 OFFCURVE",
"713 1145 CURVE SMOOTH",
"824 1145 OFFCURVE",
"936 1119 OFFCURVE",
"1052 1066 CURVE"
);
},
{
closed = 1;
nodes = (
"478 1178 LINE",
"201 1603 LINE",
"419 1603 LINE",
"568 1400 LINE",
"617 1468 OFFCURVE",
"670 1540 OFFCURVE",
"717 1603 CURVE",
"935 1603 LINE",
"658 1178 LINE"
);
}
);
width = 1202;
}
);
unicode = 010D;
},
{
glyphname = dcroat;
lastChange = "2012-10-18 22:31:24 -0400";
layers = (
{
layerId = "D5D14868-B3D8-4E08-9530-062F6179E82D";
name = Bold;
paths = (
{
closed = 1;
nodes = (
"913 1198 LINE",
"608 1198 LINE",
"608 1390 LINE",
"913 1390 LINE",
"913 1527 LINE",
"1159 1527 LINE",
"1159 1390 LINE",
"1303 1390 LINE",
"1303 1198 LINE",
"1159 1198 LINE",
"1159 0 LINE",
"913 0 LINE",
"913 83 LINE",
"837 7 OFFCURVE",
"740 -27 OFFCURVE",
"615 -27 CURVE SMOOTH",
"338 -27 OFFCURVE",
"150 212 OFFCURVE",
"150 559 CURVE SMOOTH",
"150 906 OFFCURVE",
"338 1145 OFFCURVE",
"615 1145 CURVE SMOOTH",
"740 1145 OFFCURVE",
"837 1111 OFFCURVE",
"913 1035 CURVE"
);
},
{
closed = 1;
nodes = (
"402 496 OFFCURVE",
"425 414 OFFCURVE",
"471 355 CURVE",
"516 302 OFFCURVE",
"580 272 OFFCURVE",
"657 272 CURVE SMOOTH",
"814 272 OFFCURVE",
"913 391 OFFCURVE",
"913 599 CURVE SMOOTH",
"913 810 OFFCURVE",
"814 927 OFFCURVE",
"657 927 CURVE SMOOTH",
"580 927 OFFCURVE",
"516 896 OFFCURVE",
"471 844 CURVE",
"425 785 OFFCURVE",
"402 703 OFFCURVE",
"402 599 CURVE SMOOTH"
);
}
);
width = 1453;
}
);
unicode = 0111;
},
{
glyphname = Gbreve;
lastChange = "2012-10-18 22:31:24 -0400";
layers = (
{
layerId = "D5D14868-B3D8-4E08-9530-062F6179E82D";
name = Bold;
paths = (
{
closed = 1;
nodes = (
"1169 507 LINE",
"866 507 LINE",
"866 788 LINE",
"1464 788 LINE",
"1464 150 LINE",
"1297 31 OFFCURVE",
"1108 -28 OFFCURVE",
"895 -28 CURVE SMOOTH",
"663 -28 OFFCURVE",
"480 40 OFFCURVE",
"347 177 CURVE SMOOTH",
"216 316 OFFCURVE",
"150 505 OFFCURVE",
"150 745 CURVE SMOOTH",
"150 1229 OFFCURVE",
"431 1519 OFFCURVE",
"895 1519 CURVE SMOOTH",
"1088 1519 OFFCURVE",
"1267 1467 OFFCURVE",
"1427 1367 CURVE",
"1427 1079 LINE",
"1251 1229 OFFCURVE",
"1079 1304 OFFCURVE",
"911 1304 CURVE SMOOTH",
"590 1304 OFFCURVE",
"429 1125 OFFCURVE",
"428 766 CURVE",
"436 609 OFFCURVE",
"476 496 OFFCURVE",
"548 441 CURVE",
"547 441 LINE",
"624 386 OFFCURVE",
"746 358 OFFCURVE",
"911 358 CURVE SMOOTH",
"978 358 OFFCURVE",
"1034 363 OFFCURVE",
"1085 374 CURVE",
"1084 374 LINE",
"1121 383 OFFCURVE",
"1149 394 OFFCURVE",
"1169 409 CURVE"
);
},
{
closed = 1;
nodes = (
"609 1874 LINE",
"625 1806 OFFCURVE",
"677 1770 OFFCURVE",
"761 1770 CURVE SMOOTH",
"843 1770 OFFCURVE",
"894 1805 OFFCURVE",
"914 1874 CURVE",
"1094 1874 LINE",
"1078 1675 OFFCURVE",
"964 1573 OFFCURVE",
"761 1573 CURVE SMOOTH",
"558 1573 OFFCURVE",
"445 1674 OFFCURVE",
"429 1874 CURVE"
);
}
);
width = 1614;
}
);
unicode = 011E;
},
{
glyphname = gbreve;
lastChange = "2012-10-18 22:31:24 -0400";
layers = (
{
layerId = "D5D14868-B3D8-4E08-9530-062F6179E82D";
name = Bold;
paths = (
{
closed = 1;
nodes = (
"837 695 OFFCURVE",
"814 784 OFFCURVE",
"771 845 CURVE SMOOTH",
"727 905 OFFCURVE",
"663 937 OFFCURVE",
"582 937 CURVE SMOOTH",
"423 937 OFFCURVE",
"367 826 OFFCURVE",
"345 738 CURVE SMOOTH",
"334 693 OFFCURVE",
"328 643 OFFCURVE",
"327 586 CURVE",
"338 478 OFFCURVE",
"360 409 OFFCURVE",
"389 386 CURVE",
"424 365 OFFCURVE",
"485 353 OFFCURVE",
"569 353 CURVE SMOOTH",
"742 353 OFFCURVE",
"837 366 OFFCURVE",
"837 582 CURVE SMOOTH"
);
},
{
closed = 1;
nodes = (
"1149 166 LINE SMOOTH",
"1141 -57 OFFCURVE",
"1096 -229 OFFCURVE",
"1012 -320 CURVE SMOOTH",
"925 -415 OFFCURVE",
"794 -463 OFFCURVE",
"621 -463 CURVE SMOOTH",
"496 -463 OFFCURVE",
"378 -441 OFFCURVE",
"257 -397 CURVE",
"257 -2 LINE",
"390 -75 OFFCURVE",
"498 -107 OFFCURVE",
"594 -107 CURVE SMOOTH",
"693 -107 OFFCURVE",
"767 -77 OFFCURVE",
"814 -26 CURVE SMOOTH",
"845 10 OFFCURVE",
"867 48 OFFCURVE",
"884 84 CURVE",
"869 73 OFFCURVE",
"851 61 OFFCURVE",
"832 50 CURVE SMOOTH",
"771 17 OFFCURVE",
"698 0 OFFCURVE",
"614 0 CURVE SMOOTH",
"333 0 OFFCURVE",
"150 233 OFFCURVE",
"150 572 CURVE SMOOTH",
"150 912 OFFCURVE",
"333 1145 OFFCURVE",
"614 1145 CURVE SMOOTH",
"747 1145 OFFCURVE",
"847 1108 OFFCURVE",
"923 1024 CURVE",
"926 1041 OFFCURVE",
"928 1058 OFFCURVE",
"930 1075 CURVE",
"931 1092 OFFCURVE",
"933 1107 OFFCURVE",
"934 1120 CURVE",
"1178 1120 LINE"
);
},
{
closed = 1;
nodes = (
"454 1575 LINE",
"468 1482 OFFCURVE",
"518 1435 OFFCURVE",
"603 1435 CURVE SMOOTH",
"691 1435 OFFCURVE",
"738 1480 OFFCURVE",
"754 1575 CURVE",
"935 1575 LINE",
"919 1347 OFFCURVE",
"807 1233 OFFCURVE",
"603 1233 CURVE SMOOTH",
"398 1233 OFFCURVE",
"287 1347 OFFCURVE",
"271 1575 CURVE"
);
}
);
width = 1328;
}
);
unicode = 011F;
},
{
glyphname = Idotaccent;
lastChange = "2012-10-18 22:31:24 -0400";
layers = (
{
layerId = "D5D14868-B3D8-4E08-9530-062F6179E82D";
name = Bold;
paths = (
{
closed = 1;
nodes = (
"200 1493 LINE",
"457 1493 LINE",
"476 0 LINE",
"169 0 LINE"
);
},
{
closed = 1;
nodes = (
"150 1847 LINE",
"415 1847 LINE",
"415 1581 LINE",
"150 1581 LINE"
);
}
);
width = 626;
}
);
unicode = 0130;
},
{
glyphname = dotlessi;
lastChange = "2013-04-22 10:09:18 -0400";
layers = (
{
anchors = (
{
name = ogonek;
position = "{272, 1}";
},
{
name = top;
position = "{270, 1120}";
}
);
layerId = "D5D14868-B3D8-4E08-9530-062F6179E82D";
name = Bold;
paths = (
{
closed = 1;
nodes = (
"150 1120 LINE",
"397 1120 LINE",
"397 0 LINE",
"150 0 LINE"
);
}
);
width = 547;
}
);
unicode = 0131;
},
{
glyphname = Lslash;
lastChange = "2012-10-18 22:31:24 -0400";
layers = (
{
layerId = "D5D14868-B3D8-4E08-9530-062F6179E82D";
name = Bold;
paths = (
{
closed = 1;
nodes = (
"378 1493 LINE",
"647 1493 LINE",
"647 943 LINE",
"916 1131 LINE",
"1035 963 LINE",
"647 693 LINE",
"647 237 LINE",
"1337 237 LINE",
"1337 0 LINE",
"378 0 LINE",
"378 506 LINE",
"266 426 LINE",
"150 593 LINE",
"378 754 LINE"
);
}
);
width = 1487;
}
);
unicode = 0141;
},
{
glyphname = lslash;
lastChange = "2012-10-18 22:31:24 -0400";
layers = (
{
layerId = "D5D14868-B3D8-4E08-9530-062F6179E82D";
name = Bold;
paths = (
{
closed = 1;
nodes = (
"348 1527 LINE",
"595 1527 LINE",
"595 1001 LINE",
"682 1064 LINE",
"797 903 LINE",
"595 762 LINE",
"595 0 LINE",
"348 0 LINE",
"348 587 LINE",
"261 525 LINE",
"150 684 LINE",
"348 825 LINE"
);
}
);
width = 947;
}
);
unicode = 0142;
},
{
glyphname = OE;
lastChange = "2012-10-18 22:31:24 -0400";
layers = (
{
anchors = (
{
name = top;
position = "{1148, 1493}";
}
);
layerId = "D5D14868-B3D8-4E08-9530-062F6179E82D";
name = Bold;
paths = (
{
closed = 1;
nodes = (
"2055 1493 LINE",
"2055 1294 LINE",
"1350 1294 LINE",
"1350 979 LINE",
"2044 979 LINE",
"2044 741 LINE",
"1350 741 LINE",
"1350 342 LINE",
"2072 342 LINE",
"2072 0 LINE",
"1023 0 LINE SMOOTH",
"451 0 OFFCURVE",
"150 257 OFFCURVE",
"150 748 CURVE SMOOTH",
"150 992 OFFCURVE",
"225 1178 OFFCURVE",
"372 1303 CURVE SMOOTH",
"519 1428 OFFCURVE",
"736 1493 OFFCURVE",
"1023 1493 CURVE SMOOTH"
);
},
{
closed = 1;
nodes = (
"1083 1294 LINE",
"998 1294 LINE SMOOTH",
"614 1294 OFFCURVE",
"428 1140 OFFCURVE",
"428 748 CURVE SMOOTH",
"428 648 OFFCURVE",
"479 552 OFFCURVE",
"567 469 CURVE",
"663 385 OFFCURVE",
"807 342 OFFCURVE",
"998 342 CURVE SMOOTH",
"1083 342 LINE"
);
}
);
width = 2222;
}
);
unicode = 0152;
},
{
glyphname = oe;
lastChange = "2012-10-18 22:31:24 -0400";
layers = (
{
anchors = (
{
name = top;
position = "{1061, 1120}";
}
);
layerId = "D5D14868-B3D8-4E08-9530-062F6179E82D";
name = Bold;
paths = (
{
closed = 1;
nodes = (
"1715 821 LINE",
"1704 845 OFFCURVE",
"1687 869 OFFCURVE",
"1658 900 CURVE SMOOTH",
"1614 948 OFFCURVE",
"1555 972 OFFCURVE",
"1481 972 CURVE SMOOTH",
"1396 972 OFFCURVE",
"1328 948 OFFCURVE",
"1277 901 CURVE",
"1278 901 LINE",
"1247 872 OFFCURVE",
"1224 845 OFFCURVE",
"1209 820 CURVE"
);
},
{
closed = 1;
nodes = (
"1974 622 LINE",
"1186 622 LINE",
"1191 533 OFFCURVE",
"1200 462 OFFCURVE",
"1215 411 CURVE SMOOTH",
"1230 359 OFFCURVE",
"1250 324 OFFCURVE",
"1275 307 CURVE",
"1274 307 LINE",
"1332 268 OFFCURVE",
"1414 249 OFFCURVE",
"1519 249 CURVE SMOOTH",
"1642 249 OFFCURVE",
"1781 290 OFFCURVE",
"1934 371 CURVE",
"1934 65 LINE",
"1790 5 OFFCURVE",
"1647 -27 OFFCURVE",
"1510 -27 CURVE SMOOTH",
"1319 -27 OFFCURVE",
"1170 34 OFFCURVE",
"1062 153 CURVE",
"1014 88 OFFCURVE",
"960 42 OFFCURVE",
"896 14 CURVE SMOOTH",
"831 -15 OFFCURVE",
"755 -27 OFFCURVE",
"667 -27 CURVE SMOOTH",
"506 -27 OFFCURVE",
"379 24 OFFCURVE",
"286 132 CURVE SMOOTH",
"195 235 OFFCURVE",
"150 378 OFFCURVE",
"150 559 CURVE SMOOTH",
"150 920 OFFCURVE",
"344 1145 OFFCURVE",
"667 1145 CURVE SMOOTH",
"838 1145 OFFCURVE",
"970 1086 OFFCURVE",
"1059 967 CURVE",
"1163 1091 OFFCURVE",
"1302 1145 OFFCURVE",
"1479 1145 CURVE SMOOTH",
"1784 1145 OFFCURVE",
"1974 886 OFFCURVE",
"1974 743 CURVE SMOOTH"
);
},
{
closed = 1;
nodes = (
"506 953 OFFCURVE",
"406 830 OFFCURVE",
"406 619 CURVE SMOOTH",
"406 403 OFFCURVE",
"506 285 OFFCURVE",
"667 285 CURVE SMOOTH",
"827 285 OFFCURVE",
"928 408 OFFCURVE",
"928 619 CURVE SMOOTH",
"928 826 OFFCURVE",
"827 953 OFFCURVE",
"667 953 CURVE SMOOTH"
);
}
);
width = 2124;
}
);
unicode = 0153;
},
{
glyphname = Scedilla;
lastChange = "2012-10-18 22:31:24 -0400";
layers = (
{
layerId = "D5D14868-B3D8-4E08-9530-062F6179E82D";
name = Bold;
paths = (
{
closed = 1;
nodes = (
"1138 1162 LINE",
"959 1246 OFFCURVE",
"822 1287 OFFCURVE",
"707 1287 CURVE SMOOTH",
"522 1287 OFFCURVE",
"418 1217 OFFCURVE",
"418 1092 CURVE SMOOTH",
"418 1040 OFFCURVE",
"432 1002 OFFCURVE",
"461 978 CURVE",
"460 979 LINE",
"494 950 OFFCURVE",
"560 927 OFFCURVE",
"657 909 CURVE SMOOTH",
"774 886 LINE",
"773 886 LINE",
"1080 827 OFFCURVE",
"1223 681 OFFCURVE",
"1223 429 CURVE SMOOTH",
"1223 130 OFFCURVE",
"1023 -28 OFFCURVE",
"642 -28 CURVE SMOOTH",
"503 -28 OFFCURVE",
"338 6 OFFCURVE",
"155 74 CURVE",
"155 468 LINE",
"344 363 OFFCURVE",
"503 308 OFFCURVE",
"642 308 CURVE SMOOTH",
"743 308 OFFCURVE",
"820 327 OFFCURVE",
"874 366 CURVE SMOOTH",
"923 401 OFFCURVE",
"947 433 OFFCURVE",
"947 462 CURVE SMOOTH",
"947 489 OFFCURVE",
"928 518 OFFCURVE",
"895 550 CURVE",
"859 581 OFFCURVE",
"786 610 OFFCURVE",
"703 629 CURVE SMOOTH",
"586 652 LINE SMOOTH",
"285 709 OFFCURVE",
"150 840 OFFCURVE",
"150 1076 CURVE SMOOTH",
"150 1352 OFFCURVE",
"358 1519 OFFCURVE",
"685 1519 CURVE SMOOTH",
"821 1519 OFFCURVE",
"972 1491 OFFCURVE",
"1138 1436 CURVE"
);
},
{
closed = 1;
nodes = (
"515 75 LINE",
"598 -20 OFFCURVE",
"637 -92 OFFCURVE",
"637 -163 CURVE SMOOTH",
"637 -300 OFFCURVE",
"549 -369 OFFCURVE",
"377 -369 CURVE SMOOTH",
"316 -369 OFFCURVE",
"251 -358 OFFCURVE",
"176 -338 CURVE",
"176 -125 LINE",
"252 -164 OFFCURVE",
"306 -179 OFFCURVE",
"358 -179 CURVE SMOOTH",
"407 -179 OFFCURVE",
"432 -162 OFFCURVE",
"432 -129 CURVE SMOOTH",
"432 -114 OFFCURVE",
"422 -89 OFFCURVE",
"403 -56 CURVE SMOOTH",
"383 -23 OFFCURVE",
"353 20 OFFCURVE",
"313 75 CURVE"
);
}
);
width = 1373;
}
);
unicode = 015E;
},
{
glyphname = scedilla;
lastChange = "2012-10-18 22:31:24 -0400";
layers = (
{
layerId = "D5D14868-B3D8-4E08-9530-062F6179E82D";
name = Bold;
paths = (
{
closed = 1;
nodes = (
"1060 847 LINE",
"931 912 OFFCURVE",
"814 945 OFFCURVE",
"709 945 CURVE SMOOTH",
"562 945 OFFCURVE",
"481 898 OFFCURVE",
"481 817 CURVE SMOOTH",
"481 784 OFFCURVE",
"493 757 OFFCURVE",
"518 738 CURVE",
"517 738 LINE",
"545 717 OFFCURVE",
"607 695 OFFCURVE",
"691 676 CURVE SMOOTH",
"700 674 OFFCURVE",
"710 672 OFFCURVE",
"720 669 CURVE SMOOTH",
"729 666 OFFCURVE",
"739 664 OFFCURVE",
"748 663 CURVE",
"876 636 OFFCURVE",
"970 595 OFFCURVE",
"1026 548 CURVE SMOOTH",
"1083 497 OFFCURVE",
"1116 422 OFFCURVE",
"1116 326 CURVE SMOOTH",
"1116 107 OFFCURVE",
"931 -27 OFFCURVE",
"647 -27 CURVE SMOOTH",
"532 -27 OFFCURVE",
"397 -2 OFFCURVE",
"242 49 CURVE",
"242 389 LINE",
"400 307 OFFCURVE",
"536 266 OFFCURVE",
"650 266 CURVE SMOOTH",
"717 266 OFFCURVE",
"766 274 OFFCURVE",
"797 290 CURVE SMOOTH",
"828 305 OFFCURVE",
"845 329 OFFCURVE",
"846 360 CURVE",
"830 387 OFFCURVE",
"817 409 OFFCURVE",
"802 425 CURVE SMOOTH",
"791 436 OFFCURVE",
"737 453 OFFCURVE",
"640 474 CURVE SMOOTH",
"580 488 LINE",
"581 488 LINE",
"357 533 OFFCURVE",
"250 615 OFFCURVE",
"250 800 CURVE SMOOTH",
"250 1023 OFFCURVE",
"406 1145 OFFCURVE",
"689 1145 CURVE SMOOTH",
"821 1145 OFFCURVE",
"944 1124 OFFCURVE",
"1060 1077 CURVE"
);
},
{
closed = 1;
nodes = (
"489 75 LINE",
"572 -20 OFFCURVE",
"611 -92 OFFCURVE",
"611 -163 CURVE SMOOTH",
"611 -300 OFFCURVE",
"523 -369 OFFCURVE",
"351 -369 CURVE SMOOTH",
"290 -369 OFFCURVE",
"225 -358 OFFCURVE",
"150 -338 CURVE",
"150 -125 LINE",
"226 -164 OFFCURVE",
"280 -179 OFFCURVE",
"332 -179 CURVE SMOOTH",
"381 -179 OFFCURVE",
"406 -162 OFFCURVE",
"406 -129 CURVE SMOOTH",
"406 -114 OFFCURVE",
"396 -89 OFFCURVE",
"377 -56 CURVE SMOOTH",
"357 -23 OFFCURVE",
"327 20 OFFCURVE",
"287 75 CURVE"
);
}
);
width = 1266;
}
);
unicode = 015F;
},
{
glyphname = Scaron;
lastChange = "2012-10-18 22:31:24 -0400";
layers = (
{
layerId = "D5D14868-B3D8-4E08-9530-062F6179E82D";
name = Bold;
paths = (
{
closed = 1;
nodes = (
"1153 1162 LINE",
"974 1246 OFFCURVE",
"837 1287 OFFCURVE",
"722 1287 CURVE SMOOTH",
"537 1287 OFFCURVE",
"433 1217 OFFCURVE",
"433 1092 CURVE SMOOTH",
"433 1040 OFFCURVE",
"447 1002 OFFCURVE",
"476 978 CURVE",
"475 979 LINE",
"509 950 OFFCURVE",
"575 927 OFFCURVE",
"672 909 CURVE SMOOTH",
"789 886 LINE",
"788 886 LINE",
"1095 827 OFFCURVE",
"1238 681 OFFCURVE",
"1238 429 CURVE SMOOTH",
"1238 130 OFFCURVE",
"1038 -28 OFFCURVE",
"657 -28 CURVE SMOOTH",
"518 -28 OFFCURVE",
"353 6 OFFCURVE",
"170 74 CURVE",
"170 468 LINE",
"359 363 OFFCURVE",
"518 308 OFFCURVE",
"657 308 CURVE SMOOTH",
"758 308 OFFCURVE",
"835 327 OFFCURVE",
"889 366 CURVE SMOOTH",
"938 401 OFFCURVE",
"962 433 OFFCURVE",
"962 462 CURVE SMOOTH",
"962 489 OFFCURVE",
"943 518 OFFCURVE",
"910 550 CURVE",
"874 581 OFFCURVE",
"801 610 OFFCURVE",
"718 629 CURVE SMOOTH",
"601 652 LINE SMOOTH",
"300 709 OFFCURVE",
"165 840 OFFCURVE",
"165 1076 CURVE SMOOTH",
"165 1352 OFFCURVE",
"373 1519 OFFCURVE",
"700 1519 CURVE SMOOTH",
"836 1519 OFFCURVE",
"987 1491 OFFCURVE",
"1153 1436 CURVE"
);
},
{
closed = 1;
nodes = (
"406 1551 LINE",
"150 1874 LINE",
"373 1874 LINE",
"513 1724 LINE",
"536 1749 OFFCURVE",
"560 1774 OFFCURVE",
"584 1800 CURVE SMOOTH",
"607 1826 OFFCURVE",
"630 1851 OFFCURVE",
"651 1874 CURVE",
"874 1874 LINE",
"617 1551 LINE"
);
}
);
width = 1388;
}
);
unicode = 0160;
},
{
glyphname = scaron;
lastChange = "2013-06-15 07:13:28 -0400";
layers = (
{
layerId = "D5D14868-B3D8-4E08-9530-062F6179E82D";
name = Bold;
paths = (
{
closed = 1;
nodes = (
"1110 847 LINE",
"981 912 OFFCURVE",
"864 945 OFFCURVE",
"759 945 CURVE SMOOTH",
"612 945 OFFCURVE",
"531 898 OFFCURVE",
"531 817 CURVE SMOOTH",
"531 784 OFFCURVE",
"543 757 OFFCURVE",
"568 738 CURVE",
"567 738 LINE",
"595 717 OFFCURVE",
"657 695 OFFCURVE",
"741 676 CURVE SMOOTH",
"750 674 OFFCURVE",
"760 672 OFFCURVE",
"770 669 CURVE SMOOTH",
"779 666 OFFCURVE",
"789 664 OFFCURVE",
"798 663 CURVE",
"926 636 OFFCURVE",
"1020 595 OFFCURVE",
"1076 548 CURVE SMOOTH",
"1133 497 OFFCURVE",
"1166 422 OFFCURVE",
"1166 326 CURVE SMOOTH",
"1166 107 OFFCURVE",
"981 -27 OFFCURVE",
"697 -27 CURVE SMOOTH",
"582 -27 OFFCURVE",
"447 -2 OFFCURVE",
"292 49 CURVE",
"292 389 LINE",
"450 307 OFFCURVE",
"586 266 OFFCURVE",
"700 266 CURVE SMOOTH",
"767 266 OFFCURVE",
"816 274 OFFCURVE",
"847 290 CURVE SMOOTH",
"878 305 OFFCURVE",
"895 329 OFFCURVE",
"896 360 CURVE",
"880 387 OFFCURVE",
"867 409 OFFCURVE",
"852 425 CURVE SMOOTH",
"841 436 OFFCURVE",
"787 453 OFFCURVE",
"690 474 CURVE SMOOTH",
"630 488 LINE",
"631 488 LINE",
"407 533 OFFCURVE",
"300 615 OFFCURVE",
"300 800 CURVE SMOOTH",
"300 1023 OFFCURVE",
"456 1145 OFFCURVE",
"739 1145 CURVE SMOOTH",
"871 1145 OFFCURVE",
"994 1124 OFFCURVE",
"1110 1077 CURVE"
);
},
{
closed = 1;
nodes = (
"527 1178 LINE",
"250 1603 LINE",
"468 1603 LINE",
"617 1400 LINE",
"666 1468 OFFCURVE",
"719 1540 OFFCURVE",
"766 1603 CURVE",
"984 1603 LINE",
"707 1178 LINE"
);
}
);
width = 1316;
}
);
unicode = 0161;
},
{
glyphname = Ydieresis;
lastChange = "2012-10-18 22:31:24 -0400";
layers = (
{
layerId = "D5D14868-B3D8-4E08-9530-062F6179E82D";
name = Bold;
paths = (
{
closed = 1;
nodes = (
"150 1493 LINE",
"441 1493 LINE",
"811 809 LINE",
"1178 1493 LINE",
"1469 1493 LINE",
"972 513 LINE",
"972 0 LINE",
"637 0 LINE",
"637 513 LINE"
);
},
{
closed = 1;
nodes = (
"904 1845 LINE",
"1168 1845 LINE",
"1168 1581 LINE",
"904 1581 LINE"
);
},
{
closed = 1;
nodes = (
"539 1845 LINE",
"804 1845 LINE",
"804 1581 LINE",
"539 1581 LINE"
);
}
);
width = 1619;
}
);
unicode = 0178;
},
{
glyphname = zcaron;
lastChange = "2013-06-15 07:13:40 -0400";
layers = (
{
layerId = "D5D14868-B3D8-4E08-9530-062F6179E82D";
name = Bold;
paths = (
{
closed = 1;
nodes = (
"383 1120 LINE",
"1264 1120 LINE",
"1264 911 LINE",
"720 305 LINE",
"1254 305 LINE",
"1254 0 LINE",
"341 0 LINE",
"341 302 LINE",
"954 917 LINE",
"383 917 LINE"
);
},
{
closed = 1;
nodes = (
"727 1178 LINE",
"450 1603 LINE",
"668 1603 LINE",
"817 1400 LINE",
"866 1468 OFFCURVE",
"919 1540 OFFCURVE",
"966 1603 CURVE",
"1184 1603 LINE",
"907 1178 LINE"
);
}
);
width = 1414;
}
);
unicode = 017E;
},
{
glyphname = florin;
lastChange = "2012-10-18 22:31:24 -0400";
layers = (
{
layerId = "D5D14868-B3D8-4E08-9530-062F6179E82D";
name = Bold;
paths = (
{
closed = 1;
nodes = (
"1397 1246 LINE",
"1314 1310 OFFCURVE",
"1255 1337 OFFCURVE",
"1208 1337 CURVE SMOOTH",
"1113 1337 OFFCURVE",
"1052 1268 OFFCURVE",
"1025 1131 CURVE SMOOTH",
"979 869 LINE",
"1000 870 OFFCURVE",
"1021 872 OFFCURVE",
"1044 874 CURVE",
"1067 875 OFFCURVE",
"1089 877 OFFCURVE",
"1112 879 CURVE",
"1135 880 OFFCURVE",
"1157 882 OFFCURVE",
"1178 884 CURVE",
"1199 885 OFFCURVE",
"1219 887 OFFCURVE",
"1238 888 CURVE",
"1238 679 LINE",
"938 660 LINE",
"880 238 LINE SMOOTH",
"848 13 OFFCURVE",
"788 -162 OFFCURVE",
"704 -254 CURVE",
"705 -254 LINE",
"617 -350 OFFCURVE",
"510 -398 OFFCURVE",
"383 -398 CURVE SMOOTH",
"306 -398 OFFCURVE",
"233 -381 OFFCURVE",
"150 -342 CURVE",
"222 36 LINE",
"311 -21 OFFCURVE",
"380 -49 OFFCURVE",
"431 -49 CURVE SMOOTH",
"480 -49 OFFCURVE",
"517 -32 OFFCURVE",
"542 1 CURVE",
"574 40 OFFCURVE",
"599 108 OFFCURVE",
"618 203 CURVE",
"617 202 LINE",
"629 285 OFFCURVE",
"639 356 OFFCURVE",
"650 428 CURVE SMOOTH",
"661 500 OFFCURVE",
"671 571 OFFCURVE",
"683 654 CURVE",
"458 637 LINE",
"458 846 LINE",
"725 864 LINE",
"778 1144 LINE SMOOTH",
"826 1393 OFFCURVE",
"965 1527 OFFCURVE",
"1174 1527 CURVE SMOOTH",
"1245 1527 OFFCURVE",
"1320 1512 OFFCURVE",
"1397 1481 CURVE"
);
}
);
width = 1547;
}
);
unicode = 0192;
},
{
glyphname = circumflex;
lastChange = "2012-10-18 22:31:24 -0400";
layers = (
{
anchors = (
{
name = _top;
position = "{517, 1120}";
}
);
layerId = "D5D14868-B3D8-4E08-9530-062F6179E82D";
name = Bold;
paths = (
{
closed = 1;
nodes = (
"427 1603 LINE",
"607 1603 LINE",
"884 1178 LINE",
"666 1178 LINE",
"517 1381 LINE",
"492 1347 OFFCURVE",
"466 1313 OFFCURVE",
"441 1278 CURVE SMOOTH",
"416 1243 OFFCURVE",
"391 1209 OFFCURVE",
"368 1178 CURVE",
"150 1178 LINE"
);
}
);
width = 1034;
}
);
unicode = 02C6;
},
{
glyphname = caron;
lastChange = "2012-10-18 22:31:24 -0400";
layers = (
{
anchors = (
{
name = _top;
position = "{517, 1120}";
}
);
layerId = "D5D14868-B3D8-4E08-9530-062F6179E82D";
name = Bold;
paths = (
{
closed = 1;
nodes = (
"427 1178 LINE",
"150 1603 LINE",
"368 1603 LINE",
"517 1400 LINE",
"566 1468 OFFCURVE",
"619 1540 OFFCURVE",
"666 1603 CURVE",
"884 1603 LINE",
"607 1178 LINE"
);
}
);
width = 1034;
}
);
unicode = 02C7;
},
{
glyphname = breve;
lastChange = "2013-04-01 01:07:37 -0400";
layers = (
{
anchors = (
{
name = _top;
position = "{482, 1170}";
}
);
layerId = "D5D14868-B3D8-4E08-9530-062F6179E82D";
name = Bold;
paths = (
{
closed = 1;
nodes = (
"333 1575 LINE",
"347 1482 OFFCURVE",
"397 1435 OFFCURVE",
"482 1435 CURVE SMOOTH",
"570 1435 OFFCURVE",
"617 1480 OFFCURVE",
"633 1575 CURVE",
"814 1575 LINE",
"798 1347 OFFCURVE",
"686 1233 OFFCURVE",
"482 1233 CURVE SMOOTH",
"277 1233 OFFCURVE",
"166 1347 OFFCURVE",
"150 1575 CURVE"
);
}
);
width = 964;
}
);
unicode = 02D8;
},
{
glyphname = dotaccent;
lastChange = "2012-10-18 22:31:24 -0400";
layers = (
{
anchors = (
{
name = _top;
position = "{283, 1120}";
}
);
layerId = "D5D14868-B3D8-4E08-9530-062F6179E82D";
name = Bold;
paths = (
{
closed = 1;
nodes = (
"150 1523 LINE",
"415 1523 LINE",
"415 1258 LINE",
"150 1258 LINE"
);
}
);
width = 565;
}
);
unicode = 02D9;
},
{
glyphname = ring;
lastChange = "2012-10-18 22:31:24 -0400";
layers = (
{
anchors = (
{
name = _top;
position = "{443, 1120}";
}
);
layerId = "D5D14868-B3D8-4E08-9530-062F6179E82D";
name = Bold;
paths = (
{
closed = 1;
nodes = (
"547 1519 OFFCURVE",
"503 1563 OFFCURVE",
"443 1563 CURVE SMOOTH",
"382 1563 OFFCURVE",
"338 1519 OFFCURVE",
"338 1460 CURVE SMOOTH",
"338 1430 OFFCURVE",
"348 1405 OFFCURVE",
"367 1384 CURVE",
"388 1365 OFFCURVE",
"413 1355 OFFCURVE",
"443 1355 CURVE SMOOTH",
"503 1355 OFFCURVE",
"547 1401 OFFCURVE",
"547 1460 CURVE SMOOTH"
);
},
{
closed = 1;
nodes = (
"736 1297 OFFCURVE",
"604 1166 OFFCURVE",
"443 1166 CURVE SMOOTH",
"280 1166 OFFCURVE",
"150 1296 OFFCURVE",
"150 1460 CURVE SMOOTH",
"150 1623 OFFCURVE",
"280 1753 OFFCURVE",
"443 1753 CURVE SMOOTH",
"604 1753 OFFCURVE",
"736 1621 OFFCURVE",
"736 1460 CURVE SMOOTH"
);
}
);
width = 886;
}
);
unicode = 02DA;
},
{
glyphname = ogonek;
lastChange = "2013-04-22 10:03:41 -0400";
layers = (
{
anchors = (
{
name = _ogonek;
position = "{369, 75}";
}
);
layerId = "D5D14868-B3D8-4E08-9530-062F6179E82D";
name = Bold;
paths = (
{
closed = 1;
nodes = (
"473 75 LINE",
"432 20 OFFCURVE",
"402 -24 OFFCURVE",
"383 -57 CURVE SMOOTH",
"364 -91 OFFCURVE",
"354 -116 OFFCURVE",
"354 -131 CURVE SMOOTH",
"354 -163 OFFCURVE",
"376 -179 OFFCURVE",
"419 -179 CURVE SMOOTH",
"452 -179 OFFCURVE",
"503 -162 OFFCURVE",
"573 -129 CURVE",
"573 -342 LINE",
"502 -359 OFFCURVE",
"448 -369 OFFCURVE",
"408 -369 CURVE SMOOTH",
"229 -369 OFFCURVE",
"150 -306 OFFCURVE",
"150 -163 CURVE SMOOTH",
"150 -94 OFFCURVE",
"188 -20 OFFCURVE",
"271 75 CURVE"
);
}
);
width = 723;
}
);
unicode = 02DB;
},
{
glyphname = tilde;
lastChange = "2013-04-20 00:31:52 -0400";
layers = (
{
anchors = (
{
name = _top;
position = "{496, 785}";
}
);
layerId = "D5D14868-B3D8-4E08-9530-062F6179E82D";
name = Bold;
paths = (
{
closed = 1;
nodes = (
"413 1340 LINE",
"414 1340 LINE",
"395 1357 OFFCURVE",
"382 1366 OFFCURVE",
"376 1366 CURVE SMOOTH",
"365 1366 OFFCURVE",
"356 1355 OFFCURVE",
"351 1332 CURVE SMOOTH",
"346 1309 OFFCURVE",
"342 1273 OFFCURVE",
"341 1222 CURVE",
"150 1222 LINE",
"153 1438 OFFCURVE",
"233 1560 OFFCURVE",
"370 1560 CURVE SMOOTH",
"429 1560 OFFCURVE",
"470 1541 OFFCURVE",
"525 1492 CURVE SMOOTH",
"579 1441 LINE",
"578 1441 LINE",
"597 1424 OFFCURVE",
"610 1415 OFFCURVE",
"616 1415 CURVE SMOOTH",
"627 1415 OFFCURVE",
"636 1426 OFFCURVE",
"641 1449 CURVE SMOOTH",
"646 1472 OFFCURVE",
"650 1509 OFFCURVE",
"651 1560 CURVE",
"842 1560 LINE",
"838 1343 OFFCURVE",
"759 1222 OFFCURVE",
"622 1222 CURVE SMOOTH",
"562 1222 OFFCURVE",
"519 1240 OFFCURVE",
"466 1288 CURVE"
);
}
);
width = 992;
}
);
unicode = 02DC;
},
{
glyphname = hungarumlaut;
lastChange = "2012-10-18 22:31:24 -0400";
layers = (
{
anchors = (
{
name = _top;
position = "{543, 1120}";
}
);
layerId = "D5D14868-B3D8-4E08-9530-062F6179E82D";
name = Bold;
paths = (
{
closed = 1;
nodes = (
"677 1603 LINE",
"935 1603 LINE",
"654 1178 LINE",
"446 1178 LINE"
);
},
{
closed = 1;
nodes = (
"365 1603 LINE",
"612 1603 LINE",
"359 1178 LINE",
"150 1178 LINE"
);
}
);
width = 1085;
}
);
unicode = 02DD;
},
{
glyphname = pi;
lastChange = "2012-10-18 22:31:24 -0400";
layers = (
{
layerId = "D5D14868-B3D8-4E08-9530-062F6179E82D";
name = Bold;
paths = (
{
closed = 1;
nodes = (
"1334 861 LINE",
"1164 861 LINE",
"1149 789 OFFCURVE",
"1134 717 OFFCURVE",
"1119 645 CURVE SMOOTH",
"1104 572 OFFCURVE",
"1088 500 OFFCURVE",
"1073 427 CURVE SMOOTH",
"1064 384 OFFCURVE",
"1058 349 OFFCURVE",
"1053 321 CURVE SMOOTH",
"1048 292 OFFCURVE",
"1046 272 OFFCURVE",
"1046 259 CURVE SMOOTH",
"1046 215 OFFCURVE",
"1062 197 OFFCURVE",
"1103 197 CURVE SMOOTH",
"1111 197 OFFCURVE",
"1126 198 OFFCURVE",
"1147 201 CURVE SMOOTH",
"1168 204 OFFCURVE",
"1200 208 OFFCURVE",
"1242 214 CURVE",
"1202 -58 LINE",
"1146 -74 OFFCURVE",
"1104 -80 OFFCURVE",
"1065 -80 CURVE SMOOTH",
"898 -80 OFFCURVE",
"758 66 OFFCURVE",
"758 211 CURVE SMOOTH",
"758 275 OFFCURVE",
"768 342 OFFCURVE",
"789 417 CURVE SMOOTH",
"799 454 OFFCURVE",
"813 499 OFFCURVE",
"830 551 CURVE",
"829 549 LINE",
"838 579 OFFCURVE",
"846 607 OFFCURVE",
"853 632 CURVE SMOOTH",
"867 682 OFFCURVE",
"880 729 OFFCURVE",
"895 779 CURVE SMOOTH",
"902 804 OFFCURVE",
"910 831 OFFCURVE",
"919 861 CURVE",
"695 861 LINE",
"670 722 OFFCURVE",
"644 576 OFFCURVE",
"618 430 CURVE SMOOTH",
"592 284 OFFCURVE",
"566 137 OFFCURVE",
"542 0 CURVE",
"190 0 LINE",
"445 861 LINE",
"426 858 OFFCURVE",
"412 846 OFFCURVE",
"401 826 CURVE SMOOTH",
"390 805 OFFCURVE",
"381 773 OFFCURVE",
"376 728 CURVE",
"150 728 LINE",
"173 867 OFFCURVE",
"213 961 OFFCURVE",
"262 1006 CURVE SMOOTH",
"313 1051 OFFCURVE",
"395 1074 OFFCURVE",
"507 1074 CURVE SMOOTH",
"1384 1074 LINE"
);
}
);
width = 1534;
}
);
unicode = 03C0;
},
{
glyphname = endash;
lastChange = "2012-10-18 22:31:24 -0400";
layers = (
{
layerId = "D5D14868-B3D8-4E08-9530-062F6179E82D";
name = Bold;
paths = (
{
closed = 1;
nodes = (
"150 665 LINE",
"1180 665 LINE",
"1180 456 LINE",
"150 456 LINE"
);
}
);
width = 1330;
}
);
unicode = 2013;
},
{
glyphname = emdash;
lastChange = "2012-10-18 22:31:24 -0400";
layers = (
{
layerId = "D5D14868-B3D8-4E08-9530-062F6179E82D";
name = Bold;
paths = (
{
closed = 1;
nodes = (
"150 665 LINE",
"2136 665 LINE",
"2136 456 LINE",
"150 456 LINE"
);
}
);
width = 2286;
}
);
unicode = 2014;
},
{
glyphname = quoteleft;
lastChange = "2012-10-18 22:31:24 -0400";
layers = (
{
layerId = "D5D14868-B3D8-4E08-9530-062F6179E82D";
name = Bold;
paths = (
{
closed = 1;
nodes = (
"468 853 LINE",
"150 853 LINE",
"150 1098 LINE",
"352 1492 LINE",
"571 1492 LINE",
"468 1084 LINE"
);
}
);
width = 721;
}
);
unicode = 2018;
},
{
glyphname = quoteright;
lastChange = "2012-10-18 22:31:24 -0400";
layers = (
{
layerId = "D5D14868-B3D8-4E08-9530-062F6179E82D";
name = Bold;
paths = (
{
closed = 1;
nodes = (
"254 1484 LINE",
"568 1484 LINE",
"568 1265 LINE",
"368 876 LINE",
"150 876 LINE",
"254 1280 LINE"
);
}
);
width = 718;
}
);
unicode = 2019;
},
{
glyphname = quotesinglbase;
lastChange = "2012-10-18 22:31:24 -0400";
layers = (
{
layerId = "D5D14868-B3D8-4E08-9530-062F6179E82D";
name = Bold;
paths = (
{
closed = 1;
nodes = (
"238 312 LINE",
"510 312 LINE",
"510 105 LINE",
"343 -222 LINE",
"150 -222 LINE",
"238 119 LINE"
);
}
);
width = 660;
}
);
unicode = 201A;
},
{
glyphname = quotedblleft;
lastChange = "2012-10-18 22:31:24 -0400";
layers = (
{
layerId = "D5D14868-B3D8-4E08-9530-062F6179E82D";
name = Bold;
paths = (
{
closed = 1;
nodes = (
"469 822 LINE",
"150 822 LINE",
"150 1070 LINE",
"354 1468 LINE",
"575 1468 LINE",
"469 1054 LINE"
);
},
{
closed = 1;
nodes = (
"945 822 LINE",
"626 822 LINE",
"626 1070 LINE",
"830 1468 LINE",
"1051 1468 LINE",
"945 1054 LINE"
);
}
);
width = 1201;
}
);
unicode = 201C;
},
{
glyphname = quotedblright;
lastChange = "2012-10-18 22:31:24 -0400";
layers = (
{
layerId = "D5D14868-B3D8-4E08-9530-062F6179E82D";
name = Bold;
paths = (
{
closed = 1;
nodes = (
"249 1468 LINE",
"553 1468 LINE",
"553 1235 LINE",
"361 860 LINE",
"150 860 LINE",
"249 1249 LINE"
);
},
{
closed = 1;
nodes = (
"694 1468 LINE",
"997 1468 LINE",
"997 1235 LINE",
"805 860 LINE",
"593 860 LINE",
"694 1249 LINE"
);
}
);
width = 1147;
}
);
unicode = 201D;
},
{
glyphname = quotedblbase;
lastChange = "2012-10-18 22:31:24 -0400";
layers = (
{
layerId = "D5D14868-B3D8-4E08-9530-062F6179E82D";
name = Bold;
paths = (
{
closed = 1;
nodes = (
"738 429 LINE",
"1060 429 LINE",
"1060 181 LINE",
"854 -222 LINE",
"631 -222 LINE",
"738 196 LINE"
);
},
{
closed = 1;
nodes = (
"257 429 LINE",
"579 429 LINE",
"579 181 LINE",
"373 -222 LINE",
"150 -222 LINE",
"257 196 LINE"
);
}
);
width = 1210;
}
);
unicode = 201E;
},
{
glyphname = dagger;
lastChange = "2012-10-18 22:31:24 -0400";
layers = (
{
layerId = "D5D14868-B3D8-4E08-9530-062F6179E82D";
name = Bold;
paths = (
{
closed = 1;
nodes = (
"493 1468 LINE",
"732 1468 LINE",
"732 1076 LINE",
"1074 1076 LINE",
"1074 859 LINE",
"732 859 LINE",
"732 -184 LINE",
"493 -184 LINE",
"493 859 LINE",
"150 859 LINE",
"150 1076 LINE",
"493 1076 LINE"
);
}
);
width = 1224;
}
);
unicode = 2020;
},
{
glyphname = daggerdbl;
lastChange = "2012-10-18 22:31:24 -0400";
layers = (
{
layerId = "D5D14868-B3D8-4E08-9530-062F6179E82D";
name = Bold;
paths = (
{
closed = 1;
nodes = (
"1074 143 LINE",
"771 143 LINE",
"772 117 OFFCURVE",
"774 90 OFFCURVE",
"776 62 CURVE SMOOTH",
"779 5 OFFCURVE",
"782 -52 OFFCURVE",
"785 -107 CURVE SMOOTH",
"786 -134 OFFCURVE",
"788 -160 OFFCURVE",
"789 -184 CURVE",
"435 -184 LINE",
"453 143 LINE",
"150 143 LINE",
"150 427 LINE",
"475 427 LINE",
"478 504 OFFCURVE",
"480 573 OFFCURVE",
"483 641 CURVE SMOOTH",
"484 675 OFFCURVE",
"486 710 OFFCURVE",
"488 746 CURVE SMOOTH",
"489 781 OFFCURVE",
"491 819 OFFCURVE",
"492 859 CURVE",
"150 859 LINE",
"150 1076 LINE",
"492 1076 LINE",
"492 1468 LINE",
"731 1468 LINE",
"731 1076 LINE",
"1074 1076 LINE",
"1074 859 LINE",
"732 859 LINE",
"735 786 OFFCURVE",
"738 714 OFFCURVE",
"741 645 CURVE SMOOTH",
"744 576 OFFCURVE",
"746 503 OFFCURVE",
"749 427 CURVE",
"1074 427 LINE"
);
}
);
width = 1224;
}
);
unicode = 2021;
},
